<svg id="Layer_1" data-name="Layer 1" xmlns="http://www.w3.org/2000/svg" viewBox="0 0 912.33 304.45"><defs><style>.cls-1{fill:#006937;}.cls-2,.cls-7{fill:#76bc21;}.cls-3{fill:#d3d4d6;}.cls-4,.cls-5{fill:none;}.cls-4{stroke:#006937;stroke-width:1.05px;}.cls-5,.cls-7{stroke:#76bc21;}.cls-5{stroke-width:0.95px;}.cls-6,.cls-8{fill:#fff;}.cls-7,.cls-8{stroke-miterlimit:10;}.cls-7{stroke-width:0.55px;}.cls-8{stroke:#fff;stroke-width:0.28px;}</style></defs><title>LOGOS PRODUBANCO</title><path class="cls-1" d="M307.78,345.17h-.19a13.8,13.8,0,0,1-12.51,7.47c-10.18,0-14-7.29-10-26.14,3.33-15.69,8-27,20.39-27,4.2,0,8.48,1.4,9.85,6.82h.18l4.61-21.67h15.13L321,351.33H306.47Zm1.57-34.64c-5.51,0-7.08,6.07-9,15.22-1.72,8.13-3.19,15.87,2.51,15.87,4.48,0,6.56-5.41,8.65-15.22,1.91-9,3-15.87-2.14-15.87" transform="translate(-145.41 -250.11)"/><path class="cls-1" d="M368.66,351.34H354.09l1.27-6h-.19a16.54,16.54,0,0,1-13.68,7.29c-8.6,0-12.26-4.29-10.19-14l8-37.81h15.12l-7.32,34.46c-.78,3.63.36,5.78,3.15,5.78s5.9-2.23,6.95-7.18l7-33.06h15.12Z" transform="translate(-145.41 -250.11)"/><path class="cls-1" d="M390.39,284.67h15.13l-4.61,21.65h.19a14.66,14.66,0,0,1,12.75-6.81c12.41,0,12.25,11.3,8.92,27-4,18.86-11,26.14-21.15,26.14-6.73,0-8.95-4-9.34-7.47h-.19l-1.31,6.16H376.22Zm8.15,56.95c5.7,0,7.53-7.74,9.26-15.87,1.95-9.15,3-15.22-2.56-15.22-5.13,0-7,6.91-8.88,15.88-2.08,9.8-2.3,15.21,2.18,15.21" transform="translate(-145.41 -250.11)"/><path class="cls-1" d="M211.92,300.73h14.56l-1.5,7.1h.18c2.92-4.48,7.59-8.41,13.93-8.41a10.75,10.75,0,0,1,2.39.19l-3,14.2a20.09,20.09,0,0,0-4.11-.37c-6.08,0-10.54,2.52-11.95,9.15l-6.09,28.68H201.18Z" transform="translate(-145.41 -250.11)"/><path class="cls-1" d="M238.75,326.08c3.21-15.1,9-26.66,26.45-26.66,18.46,0,18.39,11.28,15.17,26.39s-9,26.64-26.45,26.64c-18.44,0-18.38-11.27-15.17-26.37m24.44-16.77c-4.47,0-6.7,4.37-9.3,16.59s-2.24,16.67,2.22,16.67c4.67,0,6.5-4.18,9.12-16.58s2.62-16.68-2-16.68" transform="translate(-145.41 -250.11)"/><path class="cls-1" d="M166.74,284.63H191c16.52,0,17.15,11.95,15.39,20.25-2.54,11.95-10,20.35-25.69,20.35h-6.91l-5.53,26H152.58Zm9.51,29h4.3c6.25,0,8.58-3.91,9.53-8.39,1.08-5.14.24-9.06-6.11-9.06h-4Z" transform="translate(-145.41 -250.11)"/><path class="cls-1" d="M565.57,326.08c3.21-15.1,9-26.66,26.45-26.66,18.46,0,18.38,11.28,15.17,26.39s-9,26.64-26.45,26.64c-18.45,0-18.38-11.27-15.17-26.37M590,309.31c-4.48,0-6.71,4.37-9.31,16.59s-2.23,16.67,2.23,16.67c4.67,0,6.49-4.18,9.12-16.58s2.62-16.68-2-16.68" transform="translate(-145.41 -250.11)"/><path class="cls-1" d="M507.51,299.39a16.59,16.59,0,0,0-13.71,7.29h-.19l1.28-6H480.3l-10.76,50.58h15.15l7-33.1c1.07-4.95,4.06-7.2,6.95-7.2s3.95,2.16,3.18,5.81l-7.34,34.49h15.15l8.05-37.87c2.07-9.72-1.6-14-10.2-14" transform="translate(-145.41 -250.11)"/><path class="cls-1" d="M454.81,299.54c-6.26,0-10.74.84-14.8,3.27s-7,6.63-8.57,13.54h13.45c1-4.39,2.77-6.91,7-6.91,3.36,0,4.35,2,3.69,5-.82,3.82-1.83,4.57-6.65,5.78-4.45,1.12-10.25,2.06-14.41,4.11s-7.65,7-8.91,12.89c-2.33,10.92,1.68,15.42,10.18,15.42a16.44,16.44,0,0,0,13.35-7.11h.2a22.73,22.73,0,0,0-.38,5.8H463.5c-1.31-2.25-.27-7.1.55-10.93l5.51-26c2.26-10.64-2.33-14.94-14.75-14.94M451,335.29c-1.07,5.06-4.36,6.92-7.54,6.92-2.79,0-3.87-2.43-3-6.45a8,8,0,0,1,3.51-5.6c1.65-1.12,3.73-1.21,9-3.72-.43,2-1.08,4.67-2,8.85" transform="translate(-145.41 -250.11)"/><path class="cls-1" d="M548.74,319.81c1.57-7.37.55-10.45-3.47-10.45-5,0-7,6.35-9.24,16.71-2.41,11.38-2.87,16.6,2.16,16.6,4.49,0,6.16-3.07,8.24-11.94h14c-3.41,15.59-10.9,21.84-24.62,21.84-19,0-17.69-13.34-14.5-28.36,3-14.2,9.37-24.74,25.79-24.74,15.87,0,18.2,8.3,15.64,20.34Z" transform="translate(-145.41 -250.11)"/><path class="cls-1" d="M153.46,382.33h3.09l-.49,2.37a4.47,4.47,0,0,1-3.7,3.71c-2.7,0-2.47-3.52-1.28-9.11,1.22-5.8,2.64-8.14,4.92-8.14,1.88,0,2.21,2.18,1.84,3.9h4.5c1-4.71-.53-7.35-5.67-7.35-6,0-8.67,4-10.32,11.83-1.71,8-1.49,12.33,4.26,12.33a6.58,6.58,0,0,0,5.45-2.61h.06l-.45,2.16h3.44l2.68-12.54H154.2Zm21.26-8.83a7.18,7.18,0,0,0-.8-.06c-1.86,0-3.37,1.11-4.63,2.79h-.07l.49-2.33h-4.29l-3.72,17.52h4.49l2.24-10.53a3.91,3.91,0,0,1,4-3.16c.46,0,.93,0,1.39.07Zm10.65.4-2.47,11.61c-.41,2-1.47,2.9-3,2.9-1.32,0-1.77-.67-1.39-2.44l2.57-12.07h-4.5l-2.76,13c-.73,3.45.6,5,3.4,5a6.09,6.09,0,0,0,5-2.51h.07l-.44,2.06h4.3l3.72-17.52Zm15.92-.46a5.36,5.36,0,0,0-4.46,2.31h-.07l.39-1.85h-4.29l-4.93,23.24h4.48l1.57-7.37h.07a3.27,3.27,0,0,0,3.31,2.1c3.7,0,6-2.7,7.35-9.22s.26-9.21-3.42-9.21m-1.07,9.21c-.82,3.82-1.63,5.76-3.58,5.76s-1.95-1.94-1.14-5.76,1.61-5.77,3.6-5.77,1.92,2,1.12,5.77m15.33-9.21c-5.14,0-7.59,3.21-8.86,9.21s-.48,9.32,4.94,9.22c5.15,0,7.6-3.22,8.87-9.22s.48-9.31-4.95-9.21m.45,9.21c-.92,4.36-1.9,6.15-3.72,6.15-2.2,0-1.87-2.58-1.1-6.15s1.51-6.14,3.73-6.14c1.82,0,2,1.79,1.09,6.14m26.54-14.49h-8.21l-4.94,23.26h4.69l2-9.29h2.5c4.43,0,7.85-2.18,8.88-7,.74-3.49-.15-7-4.9-7m-.09,7.33c-.5,2.37-2,3.48-3.87,3.48H236.5l1.5-7.06H240c2.36,0,3,1.3,2.5,3.58m16.33-2a7.18,7.18,0,0,0-.81-.06c-1.85,0-3.36,1.11-4.63,2.79h-.06l.49-2.33h-4.3l-3.72,17.52h4.5l2.24-10.53a3.89,3.89,0,0,1,4-3.16c.46,0,.94,0,1.39.07Zm8-.06c-5.15,0-7.59,3.21-8.86,9.21s-.48,9.32,4.94,9.22c5.15,0,7.59-3.22,8.88-9.22s.47-9.31-5-9.21m.44,9.21c-.92,4.36-1.88,6.15-3.71,6.15-2.2,0-1.86-2.58-1.1-6.15s1.51-6.14,3.73-6.14c1.82,0,2,1.79,1.08,6.14m26.2-9.21a5.59,5.59,0,0,0-5,2.79h-.07c-.1-1.78-1.38-2.79-3.44-2.79a6.28,6.28,0,0,0-4.9,2.25h-.07l.39-1.79h-4.31l-3.71,17.52h4.48l2.45-11.53c.43-2,1.54-3,3-3,1.27,0,1.58.83,1.27,2.3l-2.6,12.24h4.5l2.44-11.53c.43-2,1.55-3,3-3,1.27,0,1.58.83,1.28,2.3l-2.61,12.24h4.49l2.7-12.74c.72-3.38-.27-5.24-3.23-5.24m13.67,0c-6.07,0-7.89,4.36-8.9,9-.92,4.38-1.73,9.39,4.8,9.39,4.21,0,6.65-2.28,7.69-6.36h-4c-.73,2.17-1.6,3.29-3.1,3.29s-1.78-2-1.34-4.06l.29-1.41h8.9l.21-1c1.14-5.38.72-8.89-4.52-8.89m.58,7.22H303l.14-.68c.35-1.62,1.26-3.47,3.05-3.47s1.87,1.49,1.4,4.15M325,373.5a7.18,7.18,0,0,0-.8-.06c-1.86,0-3.36,1.11-4.64,2.79h-.07l.51-2.33h-4.3L312,391.42h4.49l2.25-10.53a3.89,3.89,0,0,1,4-3.16c.46,0,.94,0,1.4.07Zm7.47-5.6H328l-.81,3.85h4.49ZM323,391.42h4.5l3.73-17.52h-4.5Zm22.77-11.22c.88-4.11-.71-6.76-4.84-6.76s-7.54,2-9.06,9.21.26,9.22,4.74,9.22c4.76,0,7.23-2.58,8.19-7.17h-4.28c-.61,2.84-1.56,4.1-3.06,4.1-2,0-2-1.79-1.11-6.11.86-4,1.64-6,3.84-6,1.7,0,1.64,1.83,1.28,3.51Zm9.89-6.76c-3.38,0-6.43,1.38-7.3,5.4l-.08.43h4.05l.09-.49a2.58,2.58,0,0,1,2.56-2.27c1.5,0,1.92.8,1.63,2.14-.24,1.17-.81,1.69-2.23,2l-2.67.7c-3.29.83-4.9,2.18-5.61,5.47-.49,2.33.05,5,3.17,5a5.38,5.38,0,0,0,4.95-2.28h.07a7,7,0,0,0,.16,1.83h4.3a6.84,6.84,0,0,1,.17-3.39l2-9.22c.67-3.15.13-5.37-5.22-5.37M355,386.1a3.43,3.43,0,0,1-3.35,2.7c-1.2,0-1.46-1.1-1.17-2.44.33-1.56,1.23-2.43,3.14-2.82a6.9,6.9,0,0,0,2.11-.89Z" transform="translate(-145.41 -250.11)"/><path class="cls-2" d="M723.22,280a569.53,569.53,0,0,0-67.36,80.31v0c35.74-31.05,74.6-58.47,116.42-80.7v-.06q-24.54-.93-49.07.43" transform="translate(-145.41 -250.11)"/><path class="cls-1" d="M641.22,376.47h0c21.68-35.65,46.82-69.16,76-99-3.52-9.12-10.78-27.34-10.78-27.34a291,291,0,0,0-26.69,35.78A320,320,0,0,0,634,299.79s18.88,12.81,28.14,19.42c-7.85,18.14-20.19,55.05-20.91,57.26m103.41-5.18,0,0q-8-29.72-15.81-59.52Q709.52,324.26,691,338q27.06,16.23,53.6,33.31" transform="translate(-145.41 -250.11)"/><path class="cls-1" d="M979.63,367.82h7.08l.88,24.07h-5.87l.1-4.58h-5.76l-1.83,4.58h-5.86Zm2.5,4.38h-.08l-4.24,10.72h4.11Z" transform="translate(-145.41 -250.11)"/><path class="cls-1" d="M992.41,373.66h5.26l-.47,2.15h.07a6,6,0,0,1,5-2.63c3.1,0,4.42,1.55,3.68,5.06L1003,391.89h-5.45l2.63-12.43c.3-1.32-.11-2.1-1.12-2.1s-2.12.81-2.52,2.6L994,391.89h-5.46Zm14.13-6.61c-.58,2-1.93,4.58-4.35,4.58-1.65,0-2.9-1-3.78-1-.64,0-1,.64-1.18,1h-2.59a8.23,8.23,0,0,1,1.58-3.17,3.45,3.45,0,0,1,2.57-1.41,5,5,0,0,1,2.15.5,5.06,5.06,0,0,0,1.62.51c.84,0,1.08-.54,1.28-1Z" transform="translate(-145.41 -250.11)"/><path class="cls-1" d="M1006.71,382.83c1.18-5.47,3.27-9.64,9.58-9.64,6.67,0,6.64,4.07,5.49,9.54s-3.27,9.63-9.58,9.63c-6.67,0-6.63-4.07-5.49-9.53m8.83-6.08c-1.62,0-2.42,1.59-3.34,6s-.8,6,.82,6,2.32-1.51,3.27-6,.94-6-.75-6" transform="translate(-145.41 -250.11)"/><path class="cls-1" d="M1027.05,386.1a4.26,4.26,0,0,0-.07,2c.17.5.6.84,1.48.84a2.32,2.32,0,0,0,2.36-1.85c.17-.84-.07-1.65-1.62-2.23-4.15-1.51-6.13-2.39-5.33-6.23.78-3.64,3.75-5.5,8.13-5.5,5.12,0,6.07,2.5,5.53,5.13l-.13.6h-4.86l.07-.33c.34-1.59-.21-2-1.35-2a2,2,0,0,0-2.22,1.68c-.68,3.24,8.49,1.08,7,8.16-.8,3.67-3.73,6-8.25,6-4.89,0-6.54-1.82-5.8-5.46l.2-.8Z" transform="translate(-145.41 -250.11)"/><path class="cls-1" d="M879.53,337.7h-20v10.95H883.4Z" transform="translate(-145.41 -250.11)"/><path class="cls-2" d="M921,279.64c-15.64-4.11-33.49,12.06-39.77,36-3,11.48-3,23.05.11,32.57,3.16,9.8,9.16,16.3,16.88,18.33a19.52,19.52,0,0,0,5,.63c14.29,0,29.18-15.19,34.81-36.64C944.32,306.58,936.69,283.75,921,279.64Zm6.7,48.19c-4.48,17.06-17.49,30.89-26.79,28.45s-13.85-20.86-9.38-37.92c4.13-15.75,15.53-28.74,24.57-28.74a9,9,0,0,1,2.21.28C927.65,292.34,932.21,310.77,927.74,327.83Z" transform="translate(-145.41 -250.11)"/><path class="cls-2" d="M862.29,367.92H851.68l18.81-88.45h11.36Z" transform="translate(-145.41 -250.11)"/><polygon class="cls-1" points="720.3 51.72 725.11 29.37 676.68 82.49 676.68 98.54 710.37 98.54 712.69 87.57 687.62 87.57 687.62 86.67 720.3 51.72"/><path class="cls-2" d="M891.8,343.15c19.11,2.61,39.72,3.47,57.66-4.84,8.39-3.88,13.78-10.16,20.79-15.91,13.2-10.84,21.21-9.72,31.32,1.65,7.63,8.56,14.26,23.15,26,26.81,9.49,2.94,19.16-2.26,26.33-8.07,1.79-1.46-6.49-.47-8.2.92-18.78,15.23-33.61-30.17-51.52-33.81-7-1.42-14.74.94-20.75,4.38-7.05,4.05-12.24,10.39-18.34,15.62-15.83,13.57-36.7,12.25-55.9,9.63-2.12-.29-9.77,3.3-7.41,3.62" transform="translate(-145.41 -250.11)"/><path class="cls-1" d="M1053,313.28c-13.83-2.61-27.23-5.29-41-1s-24.55,15.36-32.8,26.67c-4,5.46-8,11.51-13.72,15.3-5.54,3.67-12.06.54-17.25-2.11-8.66-4.42-15.74-9.6-28.75-12.27v-.09l-1.52-.2a107.45,107.45,0,0,0-21.77-1.45h0c-1.86,0-3.76,0-5.68.07h-.19a35.74,35.74,0,0,0,2.71,10s17.16-2.58,26.27-.68c11.69,3.08,22.92,8.45,33.58,13.89,4.5,2.3,9.07,4.07,14.17,3.24,6.66-1.09,11.61-9,15.3-13.92,8.47-11.3,17.09-21.39,30.1-27.65,14.42-6.94,30-3.57,44.92-.75C1058.94,322.61,1055.75,313.8,1053,313.28Z" transform="translate(-145.41 -250.11)"/><rect class="cls-3" x="650.5" y="41.25" width="2.55" height="56.2"/><polygon class="cls-1" points="151.5 222.31 135.8 222.31 135.8 274.46 130.35 274.46 130.35 222.31 114.64 222.31 114.64 216.09 151.5 216.09 151.5 222.31"/><polygon class="cls-4" points="151.5 222.31 135.8 222.31 135.8 274.46 130.35 274.46 130.35 222.31 114.64 222.31 114.64 216.09 151.5 216.09 151.5 222.31"/><path class="cls-1" d="M325.23,524.57H319l-7.31-13H297.81v13h-5.45V489.1h22.57a8.9,8.9,0,0,1,7.08,3,12.15,12.15,0,0,1,2.63,8.19q0,8.84-6.95,10.79ZM314.11,505.3c3.29,0,4.95-1.61,4.95-4.84q0-5.13-5.27-5.13h-16v10Z" transform="translate(-145.41 -250.11)"/><path class="cls-4" d="M325.23,524.57H319l-7.31-13H297.81v13h-5.45V489.1h22.57a8.9,8.9,0,0,1,7.08,3,12.15,12.15,0,0,1,2.63,8.19q0,8.84-6.95,10.79ZM314.11,505.3c3.29,0,4.95-1.61,4.95-4.84q0-5.13-5.27-5.13h-16v10Z" transform="translate(-145.41 -250.11)"/><path class="cls-1" d="M366,524.57h-6L356.75,517H338l-3.21,7.62h-6L344,489.1h6.77ZM354,510.73,347.39,495l-6.68,15.72Z" transform="translate(-145.41 -250.11)"/><path class="cls-4" d="M366,524.57h-6L356.75,517H338l-3.21,7.62h-6L344,489.1h6.77ZM354,510.73,347.39,495l-6.68,15.72Z" transform="translate(-145.41 -250.11)"/><polygon class="cls-1" points="263.47 274.46 258.02 274.46 257.88 245.27 243.85 269.44 229.87 245.04 229.73 245.27 229.73 274.46 224.29 274.46 224.29 238.99 232.46 238.99 243.85 259.05 255.27 238.99 263.47 238.99 263.47 274.46"/><polygon class="cls-4" points="263.47 274.46 258.02 274.46 257.88 245.27 243.85 269.44 229.87 245.04 229.73 245.27 229.73 274.46 224.29 274.46 224.29 238.99 232.46 238.99 243.85 259.05 255.27 238.99 263.47 238.99 263.47 274.46"/><rect class="cls-1" x="269.77" y="238.99" width="5.45" height="35.47"/><rect class="cls-4" x="269.77" y="238.99" width="5.45" height="35.47"/><polygon class="cls-1" points="313.27 245.22 299.92 245.22 299.92 274.46 294.47 274.46 294.47 245.22 281.12 245.22 281.12 238.99 313.27 238.99 313.27 245.22"/><polygon class="cls-4" points="313.27 245.22 299.92 245.22 299.92 274.46 294.47 274.46 294.47 245.22 281.12 245.22 281.12 238.99 313.27 238.99 313.27 245.22"/><polygon class="cls-1" points="347.61 274.46 317.55 274.46 317.55 238.99 346.56 238.99 346.56 245.22 323 245.22 323 252.89 339.39 252.89 339.39 259.12 323 259.12 323 268.23 347.61 268.23 347.61 274.46"/><polygon class="cls-4" points="347.61 274.46 317.55 274.46 317.55 238.99 346.56 238.99 346.56 245.22 323 245.22 323 252.89 339.39 252.89 339.39 259.12 323 259.12 323 268.23 347.61 268.23 347.61 274.46"/><path class="cls-1" d="M525.35,497.86a21,21,0,0,0-11.85-3.63q-9.31,0-9.31,4.21c0,1.65,1.16,2.73,3.5,3.23,3.17.35,6.35.71,9.53,1.1q6.85.86,9.76,3.11c2.15,1.66,3.23,4.17,3.23,7.56a10.52,10.52,0,0,1-4,8.82q-4,3.12-11.65,3.12-10.75,0-17.21-6.23l2.95-4.91a20.53,20.53,0,0,0,14.17,5.14,14.44,14.44,0,0,0,7.31-1.53,4.59,4.59,0,0,0,2.59-4.07q0-2.82-3.18-4a21.47,21.47,0,0,0-5.49-.86c-3.88-.24-6.25-.4-7.13-.52-3.45-.42-6-1.37-7.63-2.83a8.14,8.14,0,0,1-2.45-6.4,9.55,9.55,0,0,1,3.93-8c2.61-2,6.28-3,11-3q9.44,0,15.3,5.18Z" transform="translate(-145.41 -250.11)"/><path class="cls-4" d="M525.35,497.86a21,21,0,0,0-11.85-3.63q-9.31,0-9.31,4.21c0,1.65,1.16,2.73,3.5,3.23,3.17.35,6.35.71,9.53,1.1q6.85.86,9.76,3.11c2.15,1.66,3.23,4.17,3.23,7.56a10.52,10.52,0,0,1-4,8.82q-4,3.12-11.65,3.12-10.75,0-17.21-6.23l2.95-4.91a20.53,20.53,0,0,0,14.17,5.14,14.44,14.44,0,0,0,7.31-1.53,4.59,4.59,0,0,0,2.59-4.07q0-2.82-3.18-4a21.47,21.47,0,0,0-5.49-.86c-3.88-.24-6.25-.4-7.13-.52-3.45-.42-6-1.37-7.63-2.83a8.14,8.14,0,0,1-2.45-6.4,9.55,9.55,0,0,1,3.93-8c2.61-2,6.28-3,11-3q9.44,0,15.3,5.18Z" transform="translate(-145.41 -250.11)"/><rect class="cls-1" x="278.74" y="216.35" width="106.55" height="5.86"/><rect class="cls-4" x="278.74" y="216.35" width="106.95" height="5.86"/><path class="cls-2" d="M329.21,444.85a9,9,0,0,1,7.3,3.22,12.93,12.93,0,0,1,2.7,8.6c0,3.76-.94,6.64-2.8,8.62s-4.59,3-8.15,3H310.38V482.7h-5V444.85Zm-.87,17.78c3.84,0,5.77-1.95,5.77-5.86q0-6.27-6.1-6.27H310.38v12.13Z" transform="translate(-145.41 -250.11)"/><path class="cls-5" d="M329.21,444.85a9,9,0,0,1,7.3,3.22,12.93,12.93,0,0,1,2.7,8.6c0,3.76-.94,6.64-2.8,8.62s-4.59,3-8.15,3H310.38V482.7h-5V444.85Zm-.87,17.78c3.84,0,5.77-1.95,5.77-5.86q0-6.27-6.1-6.27H310.38v12.13Z" transform="translate(-145.41 -250.11)"/><path class="cls-2" d="M374.29,482.7h-5.7l-6.68-11.81H349.24V482.7h-5V450.55h20.61a8.16,8.16,0,0,1,6.47,2.77,11,11,0,0,1,2.4,7.43q0,8-6.34,9.77Zm-10.16-17.46q4.51,0,4.52-4.39,0-4.65-4.81-4.65h-14.6v9Z" transform="translate(-145.41 -250.11)"/><path class="cls-5" d="M374.29,482.7h-5.7l-6.68-11.81H349.24V482.7h-5V450.55h20.61a8.16,8.16,0,0,1,6.47,2.77,11,11,0,0,1,2.4,7.43q0,8-6.34,9.77Zm-10.16-17.46q4.51,0,4.52-4.39,0-4.65-4.81-4.65h-14.6v9Z" transform="translate(-145.41 -250.11)"/><path class="cls-2" d="M413.35,466.55A16.76,16.76,0,0,1,408,479.41a17.51,17.51,0,0,1-22.85,0,16.63,16.63,0,0,1-5.35-12.86,16.45,16.45,0,0,1,5.39-12.76,17.1,17.1,0,0,1,22.77,0,16.6,16.6,0,0,1,5.38,12.76m-5.18,0a11.09,11.09,0,0,0-3.24-8.2,12.47,12.47,0,0,0-16.76,0,11,11,0,0,0-3.26,8.17,11.16,11.16,0,0,0,3.2,8.31,12.82,12.82,0,0,0,16.88,0,11.22,11.22,0,0,0,3.18-8.31" transform="translate(-145.41 -250.11)"/><path class="cls-5" d="M413.35,466.55A16.76,16.76,0,0,1,408,479.41a17.51,17.51,0,0,1-22.85,0,16.63,16.63,0,0,1-5.35-12.86,16.45,16.45,0,0,1,5.39-12.76,17.1,17.1,0,0,1,22.77,0A16.6,16.6,0,0,1,413.35,466.55Zm-5.18,0a11.09,11.09,0,0,0-3.24-8.2,12.47,12.47,0,0,0-16.76,0,11,11,0,0,0-3.26,8.17,11.16,11.16,0,0,0,3.2,8.31,12.82,12.82,0,0,0,16.88,0A11.22,11.22,0,0,0,408.17,466.52Z" transform="translate(-145.41 -250.11)"/><rect class="cls-1" x="113.16" y="285.33" width="272.95" height="19.12"/><path class="cls-6" d="M272.16,541v1.17H269v8.68h-1.28v-8.68h-3.16V541Z" transform="translate(-145.41 -250.11)"/><path class="cls-6" d="M275.44,541h4.25a4,4,0,0,1,1.74.33,2.34,2.34,0,0,1,1.29,2.32,2.62,2.62,0,0,1-.35,1.45,2.51,2.51,0,0,1-1,.91,1.93,1.93,0,0,1,.83.62,2.42,2.42,0,0,1,.31,1.24l0,1.32a3.87,3.87,0,0,0,.09.84.82.82,0,0,0,.41.6v.22h-1.56a1.45,1.45,0,0,1-.1-.33q0-.19-.06-.78l-.08-1.64a1.41,1.41,0,0,0-.66-1.29,2.6,2.6,0,0,0-1.11-.18h-2.8v4.22h-1.27Zm4.12,4.51a2.25,2.25,0,0,0,1.37-.37,1.58,1.58,0,0,0,.5-1.36,1.47,1.47,0,0,0-.7-1.43,2.09,2.09,0,0,0-1-.2h-3v3.36Z" transform="translate(-145.41 -250.11)"/><path class="cls-6" d="M289.4,541h1.43l3.4,9.85h-1.39l-1-3h-3.67l-1,3h-1.3Zm2.1,5.81-1.44-4.35-1.5,4.35Z" transform="translate(-145.41 -250.11)"/><path class="cls-6" d="M297.3,541h1.82l2.69,8.33,2.67-8.33h1.81v9.85h-1.22V545c0-.21,0-.54,0-1s0-1,0-1.5l-2.67,8.31h-1.26l-2.7-8.31v.3c0,.25,0,.61,0,1.11s0,.85,0,1.09v5.81H297.3Z" transform="translate(-145.41 -250.11)"/><path class="cls-6" d="M310.45,541h1.28v9.85h-1.28Z" transform="translate(-145.41 -250.11)"/><path class="cls-6" d="M322.55,541v1.17H319.4v8.68h-1.28v-8.68H315V541Z" transform="translate(-145.41 -250.11)"/><path class="cls-6" d="M325.8,541h6.79v1.2H327v3h5.14v1.14H327v3.34h5.66v1.17H325.8Z" transform="translate(-145.41 -250.11)"/><path class="cls-6" d="M337.17,547.64a2.92,2.92,0,0,0,.36,1.36,2.3,2.3,0,0,0,2.14,1,3.52,3.52,0,0,0,1.25-.21,1.51,1.51,0,0,0,1.1-1.49,1.34,1.34,0,0,0-.47-1.15,4.37,4.37,0,0,0-1.47-.58l-1.22-.3a5.58,5.58,0,0,1-1.71-.65,2.14,2.14,0,0,1-.86-1.85,3,3,0,0,1,.85-2.18,3.23,3.23,0,0,1,2.4-.85,4,4,0,0,1,2.44.75,2.78,2.78,0,0,1,1,2.39h-1.19a2.57,2.57,0,0,0-.39-1.21,2.16,2.16,0,0,0-1.89-.78,2.07,2.07,0,0,0-1.55.5,1.64,1.64,0,0,0-.47,1.15,1.14,1.14,0,0,0,.56,1.06,6.92,6.92,0,0,0,1.65.54l1.27.32a3.76,3.76,0,0,1,1.42.62,2.41,2.41,0,0,1,.86,2,2.55,2.55,0,0,1-1.1,2.34,4.64,4.64,0,0,1-2.56.7,3.64,3.64,0,0,1-2.67-.94,3.27,3.27,0,0,1-.94-2.53Z" transform="translate(-145.41 -250.11)"/><path class="cls-6" d="M352.71,541h4.19a2.6,2.6,0,0,1,2.77,2.82,3.1,3.1,0,0,1-.69,2,2.5,2.5,0,0,1-2.08.86H354v4.16h-1.27Zm4.92,1.35a2.61,2.61,0,0,0-1.15-.2H354v3.41h2.5a2.35,2.35,0,0,0,1.38-.38,1.57,1.57,0,0,0,.52-1.35A1.51,1.51,0,0,0,357.63,542.32Z" transform="translate(-145.41 -250.11)"/><path class="cls-6" d="M363.4,541h4.26a4,4,0,0,1,1.73.33,2.35,2.35,0,0,1,1.3,2.32,2.71,2.71,0,0,1-.35,1.45,2.58,2.58,0,0,1-1,.91,1.9,1.9,0,0,1,.82.62,2.24,2.24,0,0,1,.31,1.24l.05,1.32a3.87,3.87,0,0,0,.09.84.81.81,0,0,0,.4.6v.22h-1.55a1.08,1.08,0,0,1-.1-.33,5.79,5.79,0,0,1-.07-.78l-.07-1.64a1.4,1.4,0,0,0-.67-1.29,2.52,2.52,0,0,0-1.1-.18h-2.81v4.22H363.4Zm4.12,4.51a2.23,2.23,0,0,0,1.37-.37,1.58,1.58,0,0,0,.51-1.36,1.47,1.47,0,0,0-.71-1.43,2.09,2.09,0,0,0-1-.2h-3v3.36Z" transform="translate(-145.41 -250.11)"/><path class="cls-6" d="M382.34,542.38a5.63,5.63,0,0,1,.93,3.34,6,6,0,0,1-1.06,3.67,4.13,4.13,0,0,1-3.56,1.72,4.18,4.18,0,0,1-3.4-1.5,5.92,5.92,0,0,1-1.1-3.66,6.05,6.05,0,0,1,.94-3.43,4,4,0,0,1,3.58-1.82A4.18,4.18,0,0,1,382.34,542.38Zm-1.11,6.28a5.72,5.72,0,0,0,.74-2.91,4.26,4.26,0,0,0-.86-2.8,2.86,2.86,0,0,0-2.36-1.06,3,3,0,0,0-2.37,1.05,4.59,4.59,0,0,0-.92,3.1,4.66,4.66,0,0,0,.79,2.76,2.88,2.88,0,0,0,2.55,1.12A2.61,2.61,0,0,0,381.23,548.66Z" transform="translate(-145.41 -250.11)"/><path class="cls-6" d="M386.86,541h6.5v1.2h-5.23v3h4.6v1.17h-4.6v4.48h-1.27Z" transform="translate(-145.41 -250.11)"/><path class="cls-6" d="M396.79,541h6.8v1.2H398v3h5.14v1.14H398v3.34h5.65v1.17h-6.89Z" transform="translate(-145.41 -250.11)"/><path class="cls-6" d="M408.17,547.64a2.7,2.7,0,0,0,.36,1.36,2.3,2.3,0,0,0,2.14,1,3.52,3.52,0,0,0,1.25-.21,1.51,1.51,0,0,0,1.1-1.49,1.34,1.34,0,0,0-.47-1.15,4.37,4.37,0,0,0-1.47-.58l-1.23-.3a5.5,5.5,0,0,1-1.7-.65,2.11,2.11,0,0,1-.86-1.85,3,3,0,0,1,.85-2.18,3.21,3.21,0,0,1,2.4-.85,4,4,0,0,1,2.44.75,2.8,2.8,0,0,1,1,2.39h-1.19a2.68,2.68,0,0,0-.4-1.21,2.15,2.15,0,0,0-1.88-.78,2.06,2.06,0,0,0-1.55.5,1.64,1.64,0,0,0-.47,1.15,1.12,1.12,0,0,0,.56,1.06,7,7,0,0,0,1.64.54l1.28.32a3.83,3.83,0,0,1,1.42.62,2.43,2.43,0,0,1,.86,2,2.57,2.57,0,0,1-1.1,2.34,4.67,4.67,0,0,1-2.57.7,3.63,3.63,0,0,1-2.66-.94,3.31,3.31,0,0,1-.95-2.53Z" transform="translate(-145.41 -250.11)"/><path class="cls-6" d="M418.29,541h1.28v9.85h-1.28Z" transform="translate(-145.41 -250.11)"/><path class="cls-6" d="M431.3,542.38a5.63,5.63,0,0,1,.93,3.34,6,6,0,0,1-1.07,3.67,4.13,4.13,0,0,1-3.56,1.72,4.18,4.18,0,0,1-3.4-1.5,5.92,5.92,0,0,1-1.1-3.66,6.05,6.05,0,0,1,.94-3.43,4,4,0,0,1,3.58-1.82A4.21,4.21,0,0,1,431.3,542.38Zm-1.12,6.28a5.63,5.63,0,0,0,.75-2.91,4.26,4.26,0,0,0-.87-2.8,2.86,2.86,0,0,0-2.36-1.06,3,3,0,0,0-2.37,1.05,4.59,4.59,0,0,0-.92,3.1,4.66,4.66,0,0,0,.79,2.76,2.88,2.88,0,0,0,2.55,1.12A2.61,2.61,0,0,0,430.18,548.66Z" transform="translate(-145.41 -250.11)"/><path class="cls-6" d="M435.69,541h1.5l4.67,8v-8h1.21v9.85h-1.43l-4.74-8v8h-1.21Z" transform="translate(-145.41 -250.11)"/><path class="cls-6" d="M449.81,541h1.43l3.4,9.85h-1.39l-1-3H448.6l-1,3h-1.3Zm2.1,5.81-1.44-4.35-1.5,4.35Z" transform="translate(-145.41 -250.11)"/><path class="cls-6" d="M457.74,541H459v8.68h4.7v1.17h-6Z" transform="translate(-145.41 -250.11)"/><path class="cls-6" d="M467.08,541h6.79v1.2h-5.55v3h5.13v1.14h-5.13v3.34H474v1.17h-6.89Z" transform="translate(-145.41 -250.11)"/><path class="cls-6" d="M478.45,547.64a2.92,2.92,0,0,0,.36,1.36,2.31,2.31,0,0,0,2.15,1,3.6,3.6,0,0,0,1.25-.21,1.5,1.5,0,0,0,1.09-1.49,1.33,1.33,0,0,0-.46-1.15,4.46,4.46,0,0,0-1.47-.58l-1.23-.3a5.5,5.5,0,0,1-1.7-.65,2.12,2.12,0,0,1-.87-1.85,3,3,0,0,1,.85-2.18,3.25,3.25,0,0,1,2.41-.85,4,4,0,0,1,2.43.75,2.78,2.78,0,0,1,1,2.39h-1.19a2.57,2.57,0,0,0-.39-1.21,2.16,2.16,0,0,0-1.89-.78,2,2,0,0,0-1.54.5,1.6,1.6,0,0,0-.47,1.15,1.13,1.13,0,0,0,.55,1.06,6.92,6.92,0,0,0,1.65.54l1.27.32a3.69,3.69,0,0,1,1.42.62,2.41,2.41,0,0,1,.87,2,2.56,2.56,0,0,1-1.11,2.34,4.64,4.64,0,0,1-2.56.7,3.66,3.66,0,0,1-2.67-.94,3.3,3.3,0,0,1-.94-2.53Z" transform="translate(-145.41 -250.11)"/><path class="cls-6" d="M494.7,547.64a2.92,2.92,0,0,0,.36,1.36,2.31,2.31,0,0,0,2.14,1,3.62,3.62,0,0,0,1.26-.21,1.51,1.51,0,0,0,1.09-1.49,1.36,1.36,0,0,0-.46-1.15,4.55,4.55,0,0,0-1.47-.58l-1.23-.3a5.69,5.69,0,0,1-1.71-.65,2.14,2.14,0,0,1-.86-1.85,3,3,0,0,1,.85-2.18,3.25,3.25,0,0,1,2.41-.85,4,4,0,0,1,2.43.75,2.78,2.78,0,0,1,1,2.39h-1.19a2.57,2.57,0,0,0-.39-1.21,2.16,2.16,0,0,0-1.89-.78,2,2,0,0,0-1.54.5,1.61,1.61,0,0,0-.48,1.15,1.14,1.14,0,0,0,.56,1.06,6.92,6.92,0,0,0,1.65.54l1.27.32a3.76,3.76,0,0,1,1.42.62,2.41,2.41,0,0,1,.87,2,2.56,2.56,0,0,1-1.11,2.34,4.64,4.64,0,0,1-2.56.7,3.64,3.64,0,0,1-2.67-.94,3.3,3.3,0,0,1-.94-2.53Z" transform="translate(-145.41 -250.11)"/><path class="cls-6" d="M504.66,549.36H506v1.46h-1.33Z" transform="translate(-145.41 -250.11)"/><path class="cls-6" d="M512.85,541h1.43l3.4,9.85h-1.39l-1-3h-3.67l-1,3h-1.3Zm2.11,5.81-1.45-4.35L512,546.78Z" transform="translate(-145.41 -250.11)"/><path class="cls-6" d="M520.91,549.36h1.33v1.46h-1.33Z" transform="translate(-145.41 -250.11)"/><path class="cls-1" d="M827.8,499.74A13,13,0,0,0,825,491a9.7,9.7,0,0,0-7.71-3.35H793.68V525h7V511.79h12.86L820.91,525h8l-7.8-13.9C825.55,509.46,827.8,505.65,827.8,499.74Zm-27.14-4.34h15.43c3.13,0,4.58,1.42,4.58,4.46,0,2.84-1.35,4.16-4.26,4.16H800.66Z" transform="translate(-145.41 -250.11)"/><path class="cls-1" d="M885.82,487.63l-16,37.34h7.67l3.25-7.7h18L902,525h7.67l-16-37.34Zm9.52,21.87H884.11l5.64-13.26Z" transform="translate(-145.41 -250.11)"/><polygon class="cls-1" points="618.01 259.35 634.58 259.35 634.58 251.58 618.01 251.58 618.01 245.29 641.83 245.29 641.83 237.52 611.02 237.52 611.02 274.86 642.89 274.86 642.89 267.09 618.01 267.09 618.01 259.35"/><polygon class="cls-1" points="495.92 266.9 495.92 245.39 518.22 245.39 518.22 237.6 495.92 237.6 495.92 222.16 525.48 222.16 525.48 214.37 488.58 214.37 488.58 274.7 526.53 274.7 526.53 266.9 495.92 266.9"/><rect class="cls-1" x="740.4" y="214.37" width="23.82" height="7.8"/><path class="cls-1" d="M864.53,504.76c-2.09-1.62-5.44-2.7-10.23-3.3-3.48-.42-6.63-.78-9.58-1.1-2.64-.57-3-1.72-3-2.54,0-2.34,2.92-3.52,8.67-3.52A20.54,20.54,0,0,1,862,497.85l.58.39,4.22-5.66-.51-.45c-4.06-3.6-9.43-5.43-16-5.43-4.92,0-8.81,1.06-11.58,3.15a10.41,10.41,0,0,0-4.26,8.72,9,9,0,0,0,2.72,7c1.77,1.57,4.5,2.6,8.11,3,.88.11,3.12.28,7.26.53A21.41,21.41,0,0,1,858,510c1.86.68,2.73,1.73,2.73,3.33a3.93,3.93,0,0,1-2.26,3.48,14.07,14.07,0,0,1-7,1.44,20.16,20.16,0,0,1-13.84-5l-.66-.6-3.74,6.23.42.4c4.47,4.32,10.5,6.51,17.91,6.51,5.28,0,9.4-1.11,12.23-3.3a11.4,11.4,0,0,0,4.34-9.51C868.07,509.34,866.88,506.57,864.53,504.76Z" transform="translate(-145.41 -250.11)"/><path class="cls-1" d="M747.28,504.76c-2.09-1.62-5.44-2.7-10.23-3.3-3.47-.42-6.63-.78-9.57-1.1-2.65-.57-3-1.72-3-2.54,0-2.34,2.91-3.52,8.67-3.52a20.53,20.53,0,0,1,11.57,3.55l.58.39,4.22-5.66-.51-.45c-4.06-3.6-9.43-5.43-15.95-5.43-4.92,0-8.82,1.06-11.58,3.15a10.42,10.42,0,0,0-4.27,8.72,9,9,0,0,0,2.73,7c1.76,1.57,4.49,2.6,8.11,3,.87.11,3.11.28,7.26.53a21.4,21.4,0,0,1,5.34.83c1.86.68,2.73,1.73,2.73,3.33a3.93,3.93,0,0,1-2.26,3.48,14,14,0,0,1-7,1.44,20.13,20.13,0,0,1-13.83-5l-.67-.6-3.74,6.23.42.4c4.47,4.32,10.5,6.51,17.91,6.51,5.29,0,9.4-1.11,12.23-3.3a11.38,11.38,0,0,0,4.35-9.51C750.83,509.34,749.64,506.57,747.28,504.76Z" transform="translate(-145.41 -250.11)"/><path class="cls-1" d="M706.64,525l-11.22-14.24L684,525h-9.52l16.15-20.13L677.1,487.71h9.53l8.79,11.43,9.26-11.43h9.26l-13.79,17.12,16,20.13Z" transform="translate(-145.41 -250.11)"/><path class="cls-7" d="M677.45,476.62V459.69h13.86v2.44H679.89v4.44h5.75V469h-5.75v5.17h11.85v2.44Z" transform="translate(-145.41 -250.11)"/><path class="cls-2" d="M703.84,476.62l-4-5.11-4.11,5.11h-3.44l5.82-7.23-4.87-6.14h3.44l3.16,4.1,3.33-4.1h3.34l-5,6.14,5.75,7.23Z" transform="translate(-145.41 -250.11)"/><path class="cls-2" d="M714.81,465.93v10.69h-2.53V465.93h-4.64v-2.68h11.82v2.68Z" transform="translate(-145.41 -250.11)"/><path class="cls-2" d="M721,476.62V463.25h11.19v2.68h-8.66v2.43h4.57V471h-4.57v2.89h9v2.69Z" transform="translate(-145.41 -250.11)"/><path class="cls-2" d="M744,476.62l-3.19-5.45h-4v5.45h-2.53V463.25h8c2.34,0,4.56.93,4.56,3.95a3.93,3.93,0,0,1-2.83,3.94l3.19,5.48Zm-1.73-10.69h-5.5v2.56h5.5c.76,0,2-.11,2-1.29S743.19,465.93,742.31,465.93Z" transform="translate(-145.41 -250.11)"/><path class="cls-2" d="M759.28,476.62l-6.91-9h0v9h-2.53V463.25h2.53l6.91,9h0v-9h2.53v13.37Z" transform="translate(-145.41 -250.11)"/><path class="cls-2" d="M777,476.62l-1.26-2.82h-7.38l-1.26,2.82h-2.87l6.11-13.37h3.35l6.19,13.37Zm-5-10.77-2.43,5.27h4.86Z" transform="translate(-145.41 -250.11)"/><path class="cls-2" d="M781.71,476.62V463.25h2.54v10.68h7.25v2.69Z" transform="translate(-145.41 -250.11)"/><path class="cls-2" d="M794.3,476.62V463.25h2.53v13.37Z" transform="translate(-145.41 -250.11)"/><path class="cls-2" d="M800.31,476.62l-.88-1.73,7.81-9h-6.93v-2.68H810.6l1.12,1.8-7.86,8.88h7.86v2.69Z" transform="translate(-145.41 -250.11)"/><path class="cls-2" d="M825.11,476.62l-1.27-2.82h-7.37l-1.27,2.82h-2.87l6.11-13.37h3.36L828,476.62Zm-5-10.77-2.43,5.27h4.87Z" transform="translate(-145.41 -250.11)"/><path class="cls-2" d="M835.91,477c-4.23,0-7.74-2.45-7.74-7.1s4.09-7.1,7.6-7.1a9.65,9.65,0,0,1,6.37,2.53l-1.48,2.35a7.67,7.67,0,0,0-5-2.19A4.69,4.69,0,0,0,830.7,470c0,2,1.61,4.33,5.24,4.33a8.85,8.85,0,0,0,5.28-1.88l1.14,2.48A11.4,11.4,0,0,1,835.91,477Z" transform="translate(-145.41 -250.11)"/><path class="cls-2" d="M845,476.62V463.25h2.53v13.37Z" transform="translate(-145.41 -250.11)"/><path class="cls-2" d="M857.94,477c-4.94,0-7.74-3.36-7.74-7.1s2.77-7.1,7.74-7.1,7.73,3.33,7.73,7.1S862.88,477,857.94,477Zm0-11.51c-3.14,0-5.21,2.11-5.21,4.41s2.07,4.41,5.21,4.41,5.2-2.09,5.2-4.41S861.07,465.52,857.94,465.52Z" transform="translate(-145.41 -250.11)"/><path class="cls-2" d="M878.06,476.62l-6.91-9h0v9h-2.53V463.25h2.53l6.91,9h0v-9h2.53v13.37Z" transform="translate(-145.41 -250.11)"/><rect class="cls-1" x="488.58" y="285.12" width="275.65" height="19.33"/><path class="cls-8" d="M694.27,540.8h4c2.6,0,4.2,2,4.2,4.86,0,2.24-1,5.13-4.25,5.13h-4Zm1.35,8.84h2.61c1.75,0,2.89-1.38,2.89-3.9s-1.15-3.78-3-3.78h-2.51Z" transform="translate(-145.41 -250.11)"/><path class="cls-8" d="M713.55,550.79h-7.37v-10h7.28V542h-5.93v3.06H713v1.2h-5.47v3.33h6Z" transform="translate(-145.41 -250.11)"/><path class="cls-8" d="M728.82,543.72a2.18,2.18,0,0,0-2.47-2c-.85,0-2.28.24-2.28,1.76,0,.85.59,1.12,1.18,1.26l2.85.66a2.59,2.59,0,0,1,2.27,2.67c0,2.36-2.2,3-3.91,3a4,4,0,0,1-3-1,3.07,3.07,0,0,1-1-2.53h1.27c0,1.81,1.47,2.34,2.75,2.34,1,0,2.62-.25,2.62-1.68,0-1.05-.49-1.38-2.13-1.77l-2-.47a2.41,2.41,0,0,1-2.13-2.35c0-1.56,1-3.09,3.43-3.09,3.49,0,3.84,2.09,3.9,3.18Z" transform="translate(-145.41 -250.11)"/><path class="cls-8" d="M741.39,550.79H734v-10h7.28V542h-5.93v3.06h5.47v1.2h-5.47v3.33h6Z" transform="translate(-145.41 -250.11)"/><path class="cls-8" d="M746.48,550.79h-1.35v-10h4.62c1.64,0,3.28.57,3.28,2.69a2.47,2.47,0,0,1-1.39,2.39c.57.24,1.14.49,1.2,1.88l.08,1.81c0,.55.08.76.5,1v.22h-1.65a11.9,11.9,0,0,1-.24-2.5c0-.82-.17-1.78-1.78-1.78h-3.27Zm0-5.44h3.13c1,0,2-.25,2-1.72s-1.13-1.67-1.79-1.67h-3.37Z" transform="translate(-145.41 -250.11)"/><path class="cls-8" d="M762.54,540.8h1.52l-3.64,10H759l-3.64-10h1.5l2.85,8.52h0Z" transform="translate(-145.41 -250.11)"/><path class="cls-8" d="M768.76,550.79h-1.35v-10h1.35Z" transform="translate(-145.41 -250.11)"/><path class="cls-8" d="M779.88,543.81a2.59,2.59,0,0,0-2.79-2.07c-1.81,0-3.27,1.33-3.27,4,0,2.35.84,4.16,3.31,4.16.88,0,2.39-.42,2.85-2.74h1.31a4.21,4.21,0,0,1-4.37,3.93c-2.26,0-4.49-1.47-4.49-5.31,0-3.07,1.75-5.2,4.66-5.2a3.78,3.78,0,0,1,4.1,3.27Z" transform="translate(-145.41 -250.11)"/><path class="cls-8" d="M786.28,550.79h-1.35v-10h1.35Z" transform="translate(-145.41 -250.11)"/><path class="cls-8" d="M794.75,551.05c-3.73,0-4.87-3.1-4.87-5.25s1.14-5.26,4.87-5.26,4.87,3.1,4.87,5.26S798.48,551.05,794.75,551.05Zm0-9.31c-2.17,0-3.48,1.71-3.48,4.06s1.31,4.06,3.48,4.06,3.48-1.71,3.48-4.06S796.92,541.74,794.75,541.74Z" transform="translate(-145.41 -250.11)"/><path class="cls-8" d="M809,543.72a2.18,2.18,0,0,0-2.47-2c-.85,0-2.28.24-2.28,1.76,0,.85.6,1.12,1.18,1.26l2.85.66a2.59,2.59,0,0,1,2.27,2.67c0,2.36-2.2,3-3.91,3a4,4,0,0,1-3-1,3.06,3.06,0,0,1-1-2.53h1.26c0,1.81,1.48,2.34,2.76,2.34,1,0,2.61-.25,2.61-1.68,0-1.05-.49-1.38-2.13-1.77l-2-.47a2.41,2.41,0,0,1-2.13-2.35c0-1.56,1-3.09,3.44-3.09,3.49,0,3.83,2.09,3.89,3.18Z" transform="translate(-145.41 -250.11)"/><path class="cls-8" d="M825.8,543.72a2.19,2.19,0,0,0-2.48-2c-.84,0-2.28.24-2.28,1.76,0,.85.6,1.12,1.19,1.26l2.85.66a2.58,2.58,0,0,1,2.26,2.67c0,2.36-2.19,3-3.9,3a3.93,3.93,0,0,1-3-1,3.07,3.07,0,0,1-1-2.53h1.27c0,1.81,1.47,2.34,2.75,2.34,1,0,2.62-.25,2.62-1.68,0-1.05-.49-1.38-2.13-1.77l-2-.47a2.41,2.41,0,0,1-2.12-2.35c0-1.56,1-3.09,3.43-3.09,3.49,0,3.84,2.09,3.89,3.18Z" transform="translate(-145.41 -250.11)"/><path class="cls-8" d="M832.18,550.79h-1.44v-1.47h1.44Z" transform="translate(-145.41 -250.11)"/><path class="cls-8" d="M837.83,547.88l-1,2.91H835.4l3.75-10h1.53l3.62,10h-1.48l-1-2.91Zm3.52-1.19-1.48-4.4h0l-1.6,4.4Z" transform="translate(-145.41 -250.11)"/><path class="cls-8" d="M848.94,550.79h-1.45v-1.47h1.45Z" transform="translate(-145.41 -250.11)"/></svg>