<svg id="Layer_1" data-name="Layer 1" xmlns="http://www.w3.org/2000/svg" viewBox="0 0 626.88 147.03"><defs><style>.cls-1{fill:#006937;}.cls-2{fill:#76bc21;}</style></defs><title>LOGO solo</title><path class="cls-1" d="M307.78,345.17h-.19a13.8,13.8,0,0,1-12.51,7.47c-10.18,0-14-7.29-10-26.14,3.33-15.69,8-27,20.39-27,4.2,0,8.48,1.4,9.85,6.82h.18l4.61-21.67h15.13L321,351.33H306.47Zm1.57-34.64c-5.51,0-7.08,6.07-9,15.22-1.72,8.13-3.19,15.87,2.51,15.87,4.48,0,6.56-5.41,8.65-15.22,1.91-9,3-15.87-2.14-15.87" transform="translate(-145.41 -250.11)"/><path class="cls-1" d="M368.66,351.34H354.09l1.27-6h-.19a16.54,16.54,0,0,1-13.68,7.29c-8.6,0-12.26-4.29-10.19-14l8-37.81h15.12l-7.32,34.46c-.78,3.63.36,5.78,3.15,5.78s5.9-2.23,6.95-7.18l7-33.06h15.12Z" transform="translate(-145.41 -250.11)"/><path class="cls-1" d="M390.39,284.67h15.13l-4.61,21.65h.19a14.66,14.66,0,0,1,12.75-6.81c12.41,0,12.25,11.3,8.92,27-4,18.86-11,26.14-21.15,26.14-6.73,0-8.95-4-9.34-7.47h-.19l-1.31,6.16H376.22Zm8.15,56.95c5.7,0,7.53-7.74,9.26-15.87,1.95-9.15,3-15.22-2.56-15.22-5.13,0-7,6.91-8.88,15.88-2.08,9.8-2.3,15.21,2.18,15.21" transform="translate(-145.41 -250.11)"/><path class="cls-1" d="M211.92,300.73h14.56l-1.5,7.1h.18c2.92-4.48,7.59-8.41,13.93-8.41a10.75,10.75,0,0,1,2.39.19l-3,14.2a20.09,20.09,0,0,0-4.11-.37c-6.08,0-10.54,2.52-11.95,9.15l-6.09,28.68H201.18Z" transform="translate(-145.41 -250.11)"/><path class="cls-1" d="M238.75,326.08c3.21-15.1,9-26.66,26.45-26.66,18.46,0,18.39,11.28,15.17,26.39s-9,26.64-26.45,26.64c-18.44,0-18.38-11.27-15.17-26.37m24.44-16.77c-4.47,0-6.7,4.37-9.3,16.59s-2.24,16.67,2.22,16.67c4.67,0,6.5-4.18,9.12-16.58s2.62-16.68-2-16.68" transform="translate(-145.41 -250.11)"/><path class="cls-1" d="M166.74,284.63H191c16.52,0,17.15,11.95,15.39,20.25-2.54,11.95-10,20.35-25.69,20.35h-6.91l-5.53,26H152.58Zm9.51,29h4.3c6.25,0,8.58-3.91,9.53-8.39,1.08-5.14.24-9.06-6.11-9.06h-4Z" transform="translate(-145.41 -250.11)"/><path class="cls-1" d="M565.57,326.08c3.21-15.1,9-26.66,26.45-26.66,18.46,0,18.38,11.28,15.17,26.39s-9,26.64-26.45,26.64c-18.45,0-18.38-11.27-15.17-26.37M590,309.31c-4.48,0-6.71,4.37-9.31,16.59s-2.23,16.67,2.23,16.67c4.67,0,6.49-4.18,9.12-16.58s2.62-16.68-2-16.68" transform="translate(-145.41 -250.11)"/><path class="cls-1" d="M507.51,299.39a16.59,16.59,0,0,0-13.71,7.29h-.19l1.28-6H480.3l-10.76,50.58h15.15l7-33.1c1.07-4.95,4.06-7.2,6.95-7.2s3.95,2.16,3.18,5.81l-7.34,34.49h15.15l8.05-37.87c2.07-9.72-1.6-14-10.2-14" transform="translate(-145.41 -250.11)"/><path class="cls-1" d="M454.81,299.54c-6.26,0-10.74.84-14.8,3.27s-7,6.63-8.57,13.54h13.45c1-4.39,2.77-6.91,7-6.91,3.36,0,4.35,2,3.69,5-.82,3.82-1.83,4.57-6.65,5.78-4.45,1.12-10.25,2.06-14.41,4.11s-7.65,7-8.91,12.89c-2.33,10.92,1.68,15.42,10.18,15.42a16.44,16.44,0,0,0,13.35-7.11h.2a22.73,22.73,0,0,0-.38,5.8H463.5c-1.31-2.25-.27-7.1.55-10.93l5.51-26c2.26-10.64-2.33-14.94-14.75-14.94M451,335.29c-1.07,5.06-4.36,6.92-7.54,6.92-2.79,0-3.87-2.43-3-6.45a8,8,0,0,1,3.51-5.6c1.65-1.12,3.73-1.21,9-3.72-.43,2-1.08,4.67-2,8.85" transform="translate(-145.41 -250.11)"/><path class="cls-1" d="M548.74,319.81c1.57-7.37.55-10.45-3.47-10.45-5,0-7,6.35-9.24,16.71-2.41,11.38-2.87,16.6,2.16,16.6,4.49,0,6.16-3.07,8.24-11.94h14c-3.41,15.59-10.9,21.84-24.62,21.84-19,0-17.69-13.34-14.5-28.36,3-14.2,9.37-24.74,25.79-24.74,15.87,0,18.2,8.3,15.64,20.34Z" transform="translate(-145.41 -250.11)"/><path class="cls-1" d="M153.46,382.33h3.09l-.49,2.37a4.47,4.47,0,0,1-3.7,3.71c-2.7,0-2.47-3.52-1.28-9.11,1.22-5.8,2.64-8.14,4.92-8.14,1.88,0,2.21,2.18,1.84,3.9h4.5c1-4.71-.53-7.35-5.67-7.35-6,0-8.67,4-10.32,11.83-1.71,8-1.49,12.33,4.26,12.33a6.58,6.58,0,0,0,5.45-2.61h.06l-.45,2.16h3.44l2.68-12.54H154.2Zm21.26-8.83a7.18,7.18,0,0,0-.8-.06c-1.86,0-3.37,1.11-4.63,2.79h-.07l.49-2.33h-4.29l-3.72,17.52h4.49l2.24-10.53a3.91,3.91,0,0,1,4-3.16c.46,0,.93,0,1.39.07Zm10.65.4-2.47,11.61c-.41,2-1.47,2.9-3,2.9-1.32,0-1.77-.67-1.39-2.44l2.57-12.07h-4.5l-2.76,13c-.73,3.45.6,5,3.4,5a6.09,6.09,0,0,0,5-2.51h.07l-.44,2.06h4.3l3.72-17.52Zm15.92-.46a5.36,5.36,0,0,0-4.46,2.31h-.07l.39-1.85h-4.29l-4.93,23.24h4.48l1.57-7.37h.07a3.27,3.27,0,0,0,3.31,2.1c3.7,0,6-2.7,7.35-9.22s.26-9.21-3.42-9.21m-1.07,9.21c-.82,3.82-1.63,5.76-3.58,5.76s-1.95-1.94-1.14-5.76,1.61-5.77,3.6-5.77,1.92,2,1.12,5.77m15.33-9.21c-5.14,0-7.59,3.21-8.86,9.21s-.48,9.32,4.94,9.22c5.15,0,7.6-3.22,8.87-9.22s.48-9.31-4.95-9.21m.45,9.21c-.92,4.36-1.9,6.15-3.72,6.15-2.2,0-1.87-2.58-1.1-6.15s1.51-6.14,3.73-6.14c1.82,0,2,1.79,1.09,6.14m26.54-14.49h-8.21l-4.94,23.26h4.69l2-9.29h2.5c4.43,0,7.85-2.18,8.88-7,.74-3.49-.15-7-4.9-7m-.09,7.33c-.5,2.37-2,3.48-3.87,3.48H236.5l1.5-7.06H240c2.36,0,3,1.3,2.5,3.58m16.33-2a7.18,7.18,0,0,0-.81-.06c-1.85,0-3.36,1.11-4.63,2.79h-.06l.49-2.33h-4.3l-3.72,17.52h4.5l2.24-10.53a3.89,3.89,0,0,1,4-3.16c.46,0,.94,0,1.39.07Zm8-.06c-5.15,0-7.59,3.21-8.86,9.21s-.48,9.32,4.94,9.22c5.15,0,7.59-3.22,8.88-9.22s.47-9.31-5-9.21m.44,9.21c-.92,4.36-1.88,6.15-3.71,6.15-2.2,0-1.86-2.58-1.1-6.15s1.51-6.14,3.73-6.14c1.82,0,2,1.79,1.08,6.14m26.2-9.21a5.59,5.59,0,0,0-5,2.79h-.07c-.1-1.78-1.38-2.79-3.44-2.79a6.28,6.28,0,0,0-4.9,2.25h-.07l.39-1.79h-4.31l-3.71,17.52h4.48l2.45-11.53c.43-2,1.54-3,3-3,1.27,0,1.58.83,1.27,2.3l-2.6,12.24h4.5l2.44-11.53c.43-2,1.55-3,3-3,1.27,0,1.58.83,1.28,2.3l-2.61,12.24h4.49l2.7-12.74c.72-3.38-.27-5.24-3.23-5.24m13.67,0c-6.07,0-7.89,4.36-8.9,9-.92,4.38-1.73,9.39,4.8,9.39,4.21,0,6.65-2.28,7.69-6.36h-4c-.73,2.17-1.6,3.29-3.1,3.29s-1.78-2-1.34-4.06l.29-1.41h8.9l.21-1c1.14-5.38.72-8.89-4.52-8.89m.58,7.22H303l.14-.68c.35-1.62,1.26-3.47,3.05-3.47s1.87,1.49,1.4,4.15M325,373.5a7.18,7.18,0,0,0-.8-.06c-1.86,0-3.36,1.11-4.64,2.79h-.07l.51-2.33h-4.3L312,391.42h4.49l2.25-10.53a3.89,3.89,0,0,1,4-3.16c.46,0,.94,0,1.4.07Zm7.47-5.6H328l-.81,3.85h4.49ZM323,391.42h4.5l3.73-17.52h-4.5Zm22.77-11.22c.88-4.11-.71-6.76-4.84-6.76s-7.54,2-9.06,9.21.26,9.22,4.74,9.22c4.76,0,7.23-2.58,8.19-7.17h-4.28c-.61,2.84-1.56,4.1-3.06,4.1-2,0-2-1.79-1.11-6.11.86-4,1.64-6,3.84-6,1.7,0,1.64,1.83,1.28,3.51Zm9.89-6.76c-3.38,0-6.43,1.38-7.3,5.4l-.08.43h4.05l.09-.49a2.58,2.58,0,0,1,2.56-2.27c1.5,0,1.92.8,1.63,2.14-.24,1.17-.81,1.69-2.23,2l-2.67.7c-3.29.83-4.9,2.18-5.61,5.47-.49,2.33.05,5,3.17,5a5.38,5.38,0,0,0,4.95-2.28h.07a7,7,0,0,0,.16,1.83h4.3a6.84,6.84,0,0,1,.17-3.39l2-9.22c.67-3.15.13-5.37-5.22-5.37M355,386.1a3.43,3.43,0,0,1-3.35,2.7c-1.2,0-1.46-1.1-1.17-2.44.33-1.56,1.23-2.43,3.14-2.82a6.9,6.9,0,0,0,2.11-.89Z" transform="translate(-145.41 -250.11)"/><path class="cls-2" d="M723.22,280a569.53,569.53,0,0,0-67.36,80.31v0c35.74-31.05,74.6-58.47,116.42-80.7v-.06q-24.54-.93-49.07.43" transform="translate(-145.41 -250.11)"/><path class="cls-1" d="M641.22,376.47h0c21.68-35.65,46.82-69.16,76-99-3.52-9.12-10.78-27.34-10.78-27.34a291,291,0,0,0-26.69,35.78A320,320,0,0,0,634,299.79s18.88,12.81,28.14,19.42c-7.85,18.14-20.19,55.05-20.91,57.26m103.41-5.18,0,0q-8-29.72-15.81-59.52Q709.52,324.26,691,338q27.06,16.23,53.6,33.31" transform="translate(-145.41 -250.11)"/></svg>