<svg id="Layer_1" data-name="Layer 1" xmlns="http://www.w3.org/2000/svg" viewBox="0 0 95.5 111"><defs><style>.cls-1{fill:#176938;}.cls-2{fill:#f4f9f6;stroke:#176938;stroke-miterlimit:10;stroke-width:4px;}.cls-3{fill:#76bc21;}.cls-4{fill:#006937;}</style></defs><title>medalla</title><polygon class="cls-1" points="34.44 48.71 0 98.82 18.5 93 21.79 109.71 56.59 67.27 34.44 48.71"/><polygon class="cls-1" points="54.96 50.15 89.97 99.86 70.5 94 68.3 111 33.02 68.95 54.96 50.15"/><circle class="cls-2" cx="48.5" cy="47" r="45"/><path class="cls-3" d="M696.07,359.31a269.83,269.83,0,0,0-32,38.17h0a297.33,297.33,0,0,1,55.33-38.36v0q-11.65-.45-23.32.21" transform="translate(-635.5 -329)"/><path class="cls-4" d="M657.09,405.18h0a260.9,260.9,0,0,1,36.13-47.08c-1.67-4.33-5.12-13-5.12-13a138.44,138.44,0,0,0-12.69,17,152.1,152.1,0,0,0-21.77,6.61s9,6.09,13.38,9.23c-3.73,8.62-9.6,26.16-9.94,27.22m49.16-2.47h0q-3.79-14.13-7.52-28.29-9.18,5.94-18,12.47,12.86,7.71,25.48,15.83" transform="translate(-635.5 -329)"/></svg>