<svg xmlns="http://www.w3.org/2000/svg" xmlns:xlink="http://www.w3.org/1999/xlink" viewBox="0 0 459.34 263.72"><defs><style>.cls-1{fill:none;}.cls-2{isolation:isolate;}.cls-3{clip-path:url(#clip-path);}.cls-4{clip-path:url(#clip-path-2);}.cls-5{fill:url(#linear-gradient);}.cls-6{fill:#fff;}.cls-7,.cls-9{fill:#006937;}.cls-25,.cls-7,.cls-8{mix-blend-mode:multiply;}.cls-8{fill:#76bc21;}.cls-10{fill:url(#linear-gradient-2);}.cls-11{fill:url(#linear-gradient-3);}.cls-12{fill:url(#linear-gradient-4);}.cls-13{fill:url(#linear-gradient-5);}.cls-14{fill:url(#linear-gradient-6);}.cls-15{fill:url(#linear-gradient-7);}.cls-16{fill:url(#linear-gradient-8);}.cls-17{fill:url(#linear-gradient-9);}.cls-18{fill:url(#linear-gradient-10);}.cls-19{fill:url(#linear-gradient-11);}.cls-20{fill:url(#linear-gradient-12);}.cls-21{fill:url(#linear-gradient-13);}.cls-22{fill:url(#linear-gradient-14);}.cls-23{fill:url(#linear-gradient-15);}.cls-24{fill:url(#linear-gradient-16);}.cls-25{fill:#bcbdc0;}.cls-26{fill:url(#linear-gradient-17);}.cls-27{fill:url(#linear-gradient-18);}.cls-28{fill:url(#linear-gradient-19);}.cls-29{fill:url(#linear-gradient-20);}.cls-30{fill:url(#linear-gradient-21);}.cls-31{fill:url(#linear-gradient-22);}.cls-32{fill:url(#linear-gradient-23);}.cls-33{fill:url(#linear-gradient-24);}.cls-34{fill:url(#linear-gradient-25);}.cls-35{fill:url(#linear-gradient-26);}.cls-36{fill:url(#linear-gradient-27);}.cls-37{fill:url(#linear-gradient-28);}.cls-38{fill:url(#linear-gradient-29);}.cls-39{fill:url(#linear-gradient-30);}.cls-40{fill:url(#linear-gradient-31);}.cls-41{fill:url(#linear-gradient-32);}.cls-42{fill:url(#linear-gradient-33);}.cls-43{fill:url(#linear-gradient-34);}.cls-44{fill:url(#linear-gradient-35);}.cls-45{fill:url(#linear-gradient-36);}.cls-46{fill:url(#linear-gradient-37);}.cls-47{fill:url(#linear-gradient-38);}.cls-48{fill:url(#linear-gradient-39);}.cls-49{fill:url(#linear-gradient-40);}.cls-50{fill:url(#linear-gradient-41);}.cls-51{fill:url(#linear-gradient-42);}.cls-52{fill:url(#linear-gradient-43);}.cls-53{fill:url(#linear-gradient-44);}</style><clipPath id="clip-path" transform="translate(-550.03 -285.77)"><rect class="cls-1" x="507" y="210" width="341" height="261"/></clipPath><clipPath id="clip-path-2" transform="translate(-550.03 -285.77)"><rect class="cls-1" x="606.07" y="140.24" width="336.78" height="538.85" transform="translate(92.7 959.95) rotate(-66.79)"/></clipPath><linearGradient id="linear-gradient" x1="-3337.58" y1="-3727.62" x2="-3376.54" y2="-3760.97" gradientTransform="matrix(-0.04, 0.67, 0.67, 0.04, 2714.68, 2551.47)" gradientUnits="userSpaceOnUse"><stop offset="0" stop-color="#9a9a9a"/><stop offset="0.01" stop-color="#9f9f9f"/><stop offset="0.06" stop-color="#bcbcbc"/><stop offset="0.12" stop-color="#d5d5d5"/><stop offset="0.19" stop-color="#e8e8e8"/><stop offset="0.26" stop-color="#f5f5f5"/><stop offset="0.36" stop-color="#fdfdfd"/><stop offset="0.56" stop-color="#fff"/></linearGradient><linearGradient id="linear-gradient-2" x1="2333.78" y1="-1219.45" x2="2284.28" y2="-1262.99" gradientTransform="matrix(-0.62, -0.27, -0.27, 0.62, 1257.69, 1466.71)" gradientUnits="userSpaceOnUse"><stop offset="0" stop-color="#898989"/><stop offset="0.03" stop-color="#a2a2a2"/><stop offset="0.08" stop-color="#bebebe"/><stop offset="0.13" stop-color="#d6d6d6"/><stop offset="0.19" stop-color="#e9e9e9"/><stop offset="0.26" stop-color="#f5f5f5"/><stop offset="0.36" stop-color="#fdfdfd"/><stop offset="0.56" stop-color="#fff"/></linearGradient><linearGradient id="linear-gradient-3" x1="2319.22" y1="-1170.72" x2="2388.77" y2="-1237.11" gradientTransform="matrix(-0.62, -0.27, -0.27, 0.62, 1257.69, 1466.71)" gradientUnits="userSpaceOnUse"><stop offset="0" stop-color="#a6a5a5"/><stop offset="0.01" stop-color="#acabab"/><stop offset="0.11" stop-color="#cac9c9"/><stop offset="0.2" stop-color="#e1e1e1"/><stop offset="0.31" stop-color="#f2f2f2"/><stop offset="0.42" stop-color="#fcfcfc"/><stop offset="0.56" stop-color="#fff"/></linearGradient><linearGradient id="linear-gradient-4" x1="2315.33" y1="-1168.03" x2="2366.39" y2="-1169.02" gradientTransform="matrix(-0.62, -0.27, -0.27, 0.62, 1257.69, 1466.71)" gradientUnits="userSpaceOnUse"><stop offset="0" stop-color="#636463"/><stop offset="0" stop-color="#656665"/><stop offset="0.03" stop-color="#898a89"/><stop offset="0.06" stop-color="#a8a9a8"/><stop offset="0.1" stop-color="#c4c4c4"/><stop offset="0.14" stop-color="#dadada"/><stop offset="0.19" stop-color="#ebebeb"/><stop offset="0.25" stop-color="#f6f6f6"/><stop offset="0.33" stop-color="#fdfdfd"/><stop offset="0.56" stop-color="#fff"/></linearGradient><linearGradient id="linear-gradient-5" x1="2292.82" y1="-1190.45" x2="2252.84" y2="-1158.79" gradientTransform="matrix(-0.62, -0.27, -0.27, 0.62, 1257.69, 1466.71)" gradientUnits="userSpaceOnUse"><stop offset="0" stop-color="#535352"/><stop offset="0.04" stop-color="#747473"/><stop offset="0.08" stop-color="#999998"/><stop offset="0.14" stop-color="#b9b9b8"/><stop offset="0.19" stop-color="#d2d2d2"/><stop offset="0.25" stop-color="#e6e6e6"/><stop offset="0.32" stop-color="#f4f4f4"/><stop offset="0.41" stop-color="#fdfdfd"/><stop offset="0.56" stop-color="#fff"/></linearGradient><linearGradient id="linear-gradient-6" x1="2262.84" y1="-1172.89" x2="2240.96" y2="-1106.34" gradientTransform="matrix(-0.62, -0.27, -0.27, 0.62, 1257.69, 1466.71)" gradientUnits="userSpaceOnUse"><stop offset="0" stop-color="#797979"/><stop offset="0.01" stop-color="#828282"/><stop offset="0.05" stop-color="#a4a4a4"/><stop offset="0.09" stop-color="silver"/><stop offset="0.14" stop-color="#d7d7d7"/><stop offset="0.2" stop-color="#e9e9e9"/><stop offset="0.26" stop-color="#f6f6f6"/><stop offset="0.35" stop-color="#fdfdfd"/><stop offset="0.56" stop-color="#fff"/></linearGradient><linearGradient id="linear-gradient-7" x1="2213.5" y1="-1149.76" x2="2140.9" y2="-1222.67" xlink:href="#linear-gradient-2"/><linearGradient id="linear-gradient-8" x1="2140.19" y1="-1187.37" x2="2202.21" y2="-1176.57" gradientTransform="matrix(-0.62, -0.27, -0.27, 0.62, 1257.69, 1466.71)" gradientUnits="userSpaceOnUse"><stop offset="0" stop-color="#9a9a9a"/><stop offset="0" stop-color="#9b9b9b"/><stop offset="0.11" stop-color="#bfbfbf"/><stop offset="0.22" stop-color="#dbdbdb"/><stop offset="0.34" stop-color="#efefef"/><stop offset="0.45" stop-color="#fbfbfb"/><stop offset="0.56" stop-color="#fff"/></linearGradient><linearGradient id="linear-gradient-9" x1="2130.81" y1="-1184.49" x2="2078.86" y2="-1228.96" gradientTransform="matrix(-0.62, -0.27, -0.27, 0.62, 1257.69, 1466.71)" xlink:href="#linear-gradient"/><linearGradient id="linear-gradient-10" x1="2084.23" y1="-1171.02" x2="2028.21" y2="-1146" gradientTransform="matrix(-0.62, -0.27, -0.27, 0.62, 1257.69, 1466.71)" gradientUnits="userSpaceOnUse"><stop offset="0" stop-color="#464646"/><stop offset="0" stop-color="#484848"/><stop offset="0.05" stop-color="#737373"/><stop offset="0.09" stop-color="#989898"/><stop offset="0.15" stop-color="#b8b8b8"/><stop offset="0.2" stop-color="#d2d2d2"/><stop offset="0.26" stop-color="#e6e6e6"/><stop offset="0.33" stop-color="#f4f4f4"/><stop offset="0.41" stop-color="#fdfdfd"/><stop offset="0.56" stop-color="#fff"/></linearGradient><linearGradient id="linear-gradient-11" x1="1930.35" y1="-1158.45" x2="1982.46" y2="-1145.71" gradientTransform="matrix(-0.62, -0.27, -0.27, 0.62, 1257.69, 1466.71)" gradientUnits="userSpaceOnUse"><stop offset="0" stop-color="#676767"/><stop offset="0.03" stop-color="#828282"/><stop offset="0.07" stop-color="#a3a3a3"/><stop offset="0.11" stop-color="silver"/><stop offset="0.16" stop-color="#d7d7d7"/><stop offset="0.22" stop-color="#e9e9e9"/><stop offset="0.29" stop-color="#f6f6f6"/><stop offset="0.38" stop-color="#fdfdfd"/><stop offset="0.59" stop-color="#fff"/></linearGradient><linearGradient id="linear-gradient-12" x1="1881.43" y1="-1146.83" x2="1938.21" y2="-1194.2" gradientTransform="matrix(-0.62, -0.27, -0.27, 0.62, 1257.69, 1466.71)" gradientUnits="userSpaceOnUse"><stop offset="0" stop-color="#a1a1a0"/><stop offset="0.01" stop-color="#aaaaa9"/><stop offset="0.05" stop-color="#c4c4c4"/><stop offset="0.1" stop-color="#dadada"/><stop offset="0.16" stop-color="#ebebeb"/><stop offset="0.23" stop-color="#f6f6f6"/><stop offset="0.32" stop-color="#fdfdfd"/><stop offset="0.59" stop-color="#fff"/></linearGradient><linearGradient id="linear-gradient-13" x1="1902.07" y1="-1166.19" x2="1959.48" y2="-1178.99" gradientTransform="matrix(-0.62, -0.27, -0.27, 0.62, 1257.69, 1466.71)" gradientUnits="userSpaceOnUse"><stop offset="0" stop-color="#4e4e4e"/><stop offset="0.02" stop-color="#646464"/><stop offset="0.05" stop-color="#888"/><stop offset="0.08" stop-color="#a8a8a8"/><stop offset="0.12" stop-color="#c4c4c4"/><stop offset="0.16" stop-color="#dadada"/><stop offset="0.21" stop-color="#ebebeb"/><stop offset="0.27" stop-color="#f6f6f6"/><stop offset="0.36" stop-color="#fdfdfd"/><stop offset="0.59" stop-color="#fff"/></linearGradient><linearGradient id="linear-gradient-14" x1="1863.18" y1="-1209.34" x2="1789.33" y2="-1207.59" gradientTransform="matrix(-0.62, -0.27, -0.27, 0.62, 1257.69, 1466.71)" gradientUnits="userSpaceOnUse"><stop offset="0" stop-color="#959595"/><stop offset="0.06" stop-color="#aeaeae"/><stop offset="0.14" stop-color="#cbcbcb"/><stop offset="0.22" stop-color="#e2e2e2"/><stop offset="0.32" stop-color="#f2f2f2"/><stop offset="0.42" stop-color="#fcfcfc"/><stop offset="0.56" stop-color="#fff"/></linearGradient><linearGradient id="linear-gradient-15" x1="1844.88" y1="-1191.32" x2="1884.34" y2="-1097.3" gradientTransform="matrix(-0.62, -0.27, -0.27, 0.62, 1257.69, 1466.71)" gradientUnits="userSpaceOnUse"><stop offset="0" stop-color="#8c8c8c"/><stop offset="0.03" stop-color="#9f9f9f"/><stop offset="0.08" stop-color="#bcbcbc"/><stop offset="0.13" stop-color="#d5d5d5"/><stop offset="0.2" stop-color="#e8e8e8"/><stop offset="0.27" stop-color="#f5f5f5"/><stop offset="0.37" stop-color="#fdfdfd"/><stop offset="0.56" stop-color="#fff"/></linearGradient><linearGradient id="linear-gradient-16" x1="2020.8" y1="-1203.19" x2="1958.07" y2="-1186.93" gradientTransform="matrix(-0.62, -0.27, -0.27, 0.62, 1257.69, 1466.71)" gradientUnits="userSpaceOnUse"><stop offset="0" stop-color="#616262"/><stop offset="0.03" stop-color="#828383"/><stop offset="0.07" stop-color="#a4a4a4"/><stop offset="0.11" stop-color="#c0c1c1"/><stop offset="0.16" stop-color="#d7d8d8"/><stop offset="0.21" stop-color="#e9e9e9"/><stop offset="0.27" stop-color="#f6f6f6"/><stop offset="0.36" stop-color="#fdfdfd"/><stop offset="0.56" stop-color="#fff"/></linearGradient><linearGradient id="linear-gradient-17" x1="815.98" y1="-3268.11" x2="915.9" y2="-3243.68" gradientTransform="matrix(-0.66, 0.16, 0.16, 0.66, 1460.66, 2189.19)" xlink:href="#linear-gradient-11"/><linearGradient id="linear-gradient-18" x1="766.84" y1="-3256.52" x2="823.62" y2="-3303.89" gradientTransform="matrix(-0.66, 0.16, 0.16, 0.66, 1460.66, 2189.19)" xlink:href="#linear-gradient-12"/><linearGradient id="linear-gradient-19" x1="787.49" y1="-3275.89" x2="844.89" y2="-3288.69" gradientTransform="matrix(-0.66, 0.16, 0.16, 0.66, 1460.66, 2189.19)" xlink:href="#linear-gradient-13"/><linearGradient id="linear-gradient-20" x1="745.02" y1="-3308.72" x2="712.27" y2="-3307.94" gradientTransform="matrix(-0.66, 0.16, 0.16, 0.66, 1460.66, 2189.19)" xlink:href="#linear-gradient-14"/><linearGradient id="linear-gradient-21" x1="744.05" y1="-3280.16" x2="773.73" y2="-3209.43" gradientTransform="matrix(-0.66, 0.16, 0.16, 0.66, 1460.66, 2189.19)" xlink:href="#linear-gradient-15"/><linearGradient id="linear-gradient-22" x1="2550.07" y1="-890.75" x2="2500.18" y2="-934.64" gradientTransform="matrix(-0.59, -0.32, -0.32, 0.59, 1242.86, 1437.9)" xlink:href="#linear-gradient-2"/><linearGradient id="linear-gradient-23" x1="2509.04" y1="-862.01" x2="2469.06" y2="-830.35" gradientTransform="matrix(-0.59, -0.32, -0.32, 0.59, 1242.86, 1437.9)" xlink:href="#linear-gradient-5"/><linearGradient id="linear-gradient-24" x1="2479.19" y1="-844.29" x2="2457.31" y2="-777.73" gradientTransform="matrix(-0.59, -0.32, -0.32, 0.59, 1242.86, 1437.9)" xlink:href="#linear-gradient-6"/><linearGradient id="linear-gradient-25" x1="2429.83" y1="-821.17" x2="2357.56" y2="-893.76" gradientTransform="matrix(-0.59, -0.32, -0.32, 0.59, 1242.86, 1437.9)" xlink:href="#linear-gradient-2"/><linearGradient id="linear-gradient-26" x1="2338.27" y1="-861.85" x2="2422.01" y2="-847.27" gradientTransform="matrix(-0.59, -0.32, -0.32, 0.59, 1242.86, 1437.9)" xlink:href="#linear-gradient-8"/><linearGradient id="linear-gradient-27" x1="-4067.84" y1="95.88" x2="-4133.34" y2="125.13" gradientTransform="matrix(0.62, 0.25, 0.26, -0.63, 2753.78, 1175.59)" xlink:href="#linear-gradient-10"/><linearGradient id="linear-gradient-28" x1="-4858.74" y1="338.93" x2="-4806.63" y2="351.67" gradientTransform="matrix(0.62, 0.2, 0.27, -0.65, 3296.77, 1197.66)" xlink:href="#linear-gradient-11"/><linearGradient id="linear-gradient-29" x1="-4907.67" y1="350.57" x2="-4850.89" y2="303.2" gradientTransform="matrix(0.62, 0.2, 0.27, -0.65, 3296.77, 1197.66)" xlink:href="#linear-gradient-12"/><linearGradient id="linear-gradient-30" x1="-4887.03" y1="331.21" x2="-4829.62" y2="318.4" gradientTransform="matrix(0.62, 0.2, 0.27, -0.65, 3296.77, 1197.66)" xlink:href="#linear-gradient-13"/><linearGradient id="linear-gradient-31" x1="-4924.25" y1="284.74" x2="-5005.59" y2="286.67" gradientTransform="matrix(0.62, 0.2, 0.27, -0.65, 3296.77, 1197.66)" xlink:href="#linear-gradient-14"/><linearGradient id="linear-gradient-32" x1="-4942.27" y1="324.57" x2="-4909.9" y2="401.7" gradientTransform="matrix(0.62, 0.2, 0.27, -0.65, 3296.77, 1197.66)" xlink:href="#linear-gradient-15"/><linearGradient id="linear-gradient-33" x1="-4141.89" y1="57.78" x2="-4232.63" y2="81.29" gradientTransform="matrix(0.62, 0.25, 0.26, -0.63, 2753.78, 1175.59)" xlink:href="#linear-gradient-16"/><linearGradient id="linear-gradient-34" x1="1810.95" y1="-2091.58" x2="1745.17" y2="-2149.44" gradientTransform="matrix(-0.67, -0.08, -0.08, 0.67, 1176.01, 1731.81)" xlink:href="#linear-gradient-2"/><linearGradient id="linear-gradient-35" x1="1791.34" y1="-2027.79" x2="1883.27" y2="-2115.55" gradientTransform="matrix(-0.67, -0.08, -0.08, 0.67, 1176.01, 1731.81)" xlink:href="#linear-gradient-3"/><linearGradient id="linear-gradient-36" x1="1786.62" y1="-2024.36" x2="1852.31" y2="-2025.63" gradientTransform="matrix(-0.67, -0.08, -0.08, 0.67, 1176.01, 1731.81)" xlink:href="#linear-gradient-4"/><linearGradient id="linear-gradient-37" x1="1757.38" y1="-2054.29" x2="1697.98" y2="-2007.26" gradientTransform="matrix(-0.67, -0.08, -0.08, 0.67, 1176.01, 1731.81)" xlink:href="#linear-gradient-5"/><linearGradient id="linear-gradient-38" x1="1639.77" y1="-2031.22" x2="1601.63" y2="-2069.53" gradientTransform="matrix(-0.67, -0.08, -0.08, 0.67, 1176.01, 1731.81)" xlink:href="#linear-gradient-2"/><linearGradient id="linear-gradient-39" x1="1577.4" y1="-2054.74" x2="1629.98" y2="-2045.59" gradientTransform="matrix(-0.67, -0.08, -0.08, 0.67, 1176.01, 1731.81)" xlink:href="#linear-gradient-8"/><linearGradient id="linear-gradient-40" x1="-3689.96" y1="2026.88" x2="-3590.12" y2="2051.3" gradientTransform="matrix(0.66, -0.24, -0.16, -0.63, 3092.75, 501.87)" xlink:href="#linear-gradient-11"/><linearGradient id="linear-gradient-41" x1="-3739.11" y1="2038.47" x2="-3682.32" y2="1991.1" gradientTransform="matrix(0.66, -0.24, -0.16, -0.63, 3092.75, 501.87)" xlink:href="#linear-gradient-12"/><linearGradient id="linear-gradient-42" x1="-3718.46" y1="2019.11" x2="-3661.06" y2="2006.3" gradientTransform="matrix(0.66, -0.24, -0.16, -0.63, 3092.75, 501.87)" xlink:href="#linear-gradient-13"/><linearGradient id="linear-gradient-43" x1="-3761.34" y1="1973.43" x2="-3797.76" y2="1974.29" gradientTransform="matrix(0.66, -0.24, -0.16, -0.63, 3092.75, 501.87)" xlink:href="#linear-gradient-14"/><linearGradient id="linear-gradient-44" x1="-3758.84" y1="2013.45" x2="-3729.12" y2="2084.27" gradientTransform="matrix(0.66, -0.24, -0.16, -0.63, 3092.75, 501.87)" xlink:href="#linear-gradient-15"/></defs><title>origami</title><g class="cls-2"><g id="Layer_1" data-name="Layer 1"><g class="cls-3"><g class="cls-4"><polygon class="cls-5" points="313.31 133.91 360.53 134.91 294.09 173.29 313.31 133.91"/><polygon class="cls-6" points="360.53 134.91 294.09 173.29 349.19 162.67 360.53 134.91"/><polygon class="cls-7" points="313.31 133.91 360.53 134.91 294.09 173.29 313.31 133.91"/><polygon class="cls-7" points="360.53 134.91 294.09 173.29 349.19 162.67 360.53 134.91"/><polygon class="cls-8" points="265.13 108.44 248.1 124.37 294.09 173.28 265.13 108.44"/><polygon class="cls-9" points="366.46 203.1 344.04 201.13 340.04 231.16 366.46 203.1"/><polygon class="cls-10" points="137.24 53.45 183 106.78 140.58 101.64 137.24 53.45 137.24 53.45"/><polygon class="cls-11" points="100.02 139.16 140.58 101.64 137.24 53.45 100.02 139.16"/><polygon class="cls-6" points="124.16 135.79 140.58 101.64 183 106.78 124.16 135.79"/><polygon class="cls-12" points="100.53 139.05 124.16 135.79 140.58 101.64 100.02 139.16 100.53 139.05"/><polygon class="cls-13" points="183.36 139.19 183 106.78 124.16 135.79 183.36 139.19"/><polygon class="cls-14" points="202.56 186.35 183.36 139.19 124.16 135.79 202.56 186.35"/><polygon class="cls-15" points="248.1 124.37 202.56 186.35 183.36 139.19 248.1 124.37"/><polygon class="cls-16" points="236.94 181.63 248.1 124.37 202.56 186.35 236.94 181.63"/><polygon class="cls-17" points="294.09 173.29 261.9 201.69 248.1 124.37 294.09 173.29"/><polygon class="cls-6" points="298.71 243.25 305.43 206.96 340.04 231.16 298.71 243.25"/><polygon class="cls-6" points="349.19 162.67 305.43 206.96 294.09 173.29 349.19 162.67"/><polygon class="cls-18" points="261.9 201.69 305.43 206.96 294.09 173.29 261.9 201.69"/><polygon class="cls-19" points="363.22 263.72 340.04 231.16 366.46 203.1 363.22 263.72"/><polygon class="cls-20" points="413.54 246 408.12 206.77 363.22 263.72 413.54 246"/><polygon class="cls-21" points="408.12 206.77 363.22 263.72 366.46 203.1 408.12 206.77"/><polygon class="cls-6" points="433.24 194.59 413.54 246 408.12 206.77 433.24 194.59"/><polygon class="cls-22" points="433.24 194.59 446.48 257.11 413.54 246 433.24 194.59"/><polygon class="cls-23" points="363.22 263.72 446.48 257.11 413.54 246 363.22 263.72"/><polygon class="cls-24" points="340.04 231.16 349.19 162.67 305.43 206.96 340.04 231.16"/><polygon class="cls-6" points="261.9 201.69 248.1 124.37 236.94 181.63 261.9 201.69"/><polygon class="cls-25" points="137.24 53.45 183 106.78 140.58 101.64 137.24 53.45 137.24 53.45"/><polygon class="cls-25" points="294.09 173.29 261.9 201.69 248.1 124.37 294.09 173.29"/><polygon class="cls-25" points="298.71 243.25 305.43 206.96 340.04 231.15 298.71 243.25"/><polygon class="cls-25" points="413.54 246 408.12 206.77 363.22 263.72 413.54 246"/><polygon class="cls-7" points="437.52 162.26 409.51 134.28 408.13 206.78 437.52 162.26"/><polygon class="cls-25" points="340.04 231.15 349.19 162.67 305.43 206.96 340.04 231.15"/><polygon class="cls-7" points="314.67 61.66 379.09 60.1 348.91 107.87 314.67 61.66"/><polygon class="cls-7" points="285.14 109.22 313.31 133.91 314.67 61.66 285.14 109.22"/><polygon class="cls-7" points="137.24 53.45 183 106.78 140.58 101.64 137.24 53.45 137.24 53.45"/><polygon class="cls-8" points="100.02 139.16 140.58 101.64 137.24 53.45 100.02 139.16"/><polygon class="cls-8" points="124.16 135.79 140.58 101.64 183 106.78 124.16 135.79"/><polygon class="cls-7" points="100.53 139.05 124.16 135.79 140.58 101.64 100.02 139.16 100.53 139.05"/><polygon class="cls-7" points="183.36 139.19 183 106.78 124.16 135.79 183.36 139.19"/><polygon class="cls-8" points="202.56 186.35 183.36 139.19 124.16 135.79 202.56 186.35"/><polygon class="cls-7" points="248.1 124.37 202.56 186.35 183.36 139.19 248.1 124.37"/><polygon class="cls-7" points="236.94 181.63 248.1 124.37 202.56 186.35 236.94 181.63"/><polygon class="cls-7" points="294.09 173.29 261.9 201.69 248.1 124.37 294.09 173.29"/><polygon class="cls-7" points="298.71 243.25 305.43 206.96 340.04 231.15 298.71 243.25"/><polygon class="cls-8" points="349.19 162.67 305.43 206.96 294.09 173.29 349.19 162.67"/><polygon class="cls-7" points="261.9 201.69 305.43 206.96 294.09 173.29 261.9 201.69"/><polygon class="cls-7" points="363.22 263.72 340.04 231.15 366.46 203.1 363.22 263.72"/><polygon class="cls-7" points="413.54 246 408.12 206.77 363.22 263.72 413.54 246"/><polygon class="cls-8" points="408.12 206.77 363.22 263.72 366.46 203.1 408.12 206.77"/><polygon class="cls-7" points="433.24 194.59 413.54 246 408.12 206.77 433.24 194.59"/><polygon class="cls-8" points="433.24 194.59 446.48 257.11 413.54 246 433.24 194.59"/><polygon class="cls-7" points="363.22 263.72 446.48 257.11 413.54 246 363.22 263.72"/><polygon class="cls-26" points="408.13 206.78 344.04 201.13 374.1 156.48 408.13 206.78"/><polygon class="cls-27" points="437.52 162.26 409.51 134.28 408.13 206.78 437.52 162.26"/><polygon class="cls-28" points="409.51 134.28 408.13 206.78 374.1 156.48 409.51 134.28"/><polygon class="cls-6" points="428.71 96.96 437.52 162.26 409.51 134.28 428.71 96.96"/><polygon class="cls-29" points="428.71 96.96 459.33 182.53 437.52 162.26 428.71 96.96"/><polygon class="cls-30" points="408.13 206.78 459.33 182.53 437.52 162.26 408.13 206.78"/><polygon class="cls-8" points="408.13 206.78 344.04 201.13 374.1 156.48 408.13 206.78"/><polygon class="cls-25" points="437.52 162.26 409.51 134.28 408.13 206.78 437.52 162.26"/><polygon class="cls-7" points="437.52 162.26 409.51 134.28 408.13 206.78 437.52 162.26"/><polygon class="cls-7" points="409.51 134.28 408.13 206.78 374.1 156.48 409.51 134.28"/><polygon class="cls-8" points="428.71 96.96 437.52 162.26 409.51 134.28 428.71 96.96"/><polygon class="cls-7" points="428.71 96.96 459.33 182.53 437.52 162.26 428.71 96.96"/><polygon class="cls-8" points="408.13 206.78 459.33 182.53 437.52 162.26 408.13 206.78"/><polygon class="cls-7" points="340.04 231.15 349.19 162.67 305.43 206.96 340.04 231.15"/><polygon class="cls-7" points="261.9 201.69 248.1 124.37 236.94 181.63 261.9 201.69"/><polygon class="cls-31" points="20.45 55.12 61.55 112.44 19.43 103.41 20.45 55.12"/><polygon class="cls-6" points="0 135.94 19.43 103.41 61.55 112.44 0 135.94"/><polygon class="cls-32" points="58.65 144.67 61.55 112.44 0 135.94 58.65 144.67"/><polygon class="cls-33" points="73.52 193.37 58.65 144.67 0 135.94 73.52 193.37"/><polygon class="cls-34" points="124.16 135.79 73.52 193.37 58.65 144.67 124.16 135.79"/><polygon class="cls-35" points="116.49 202.64 124.16 135.79 73.52 193.37 116.49 202.64"/><polygon class="cls-6" points="242.2 42.53 234.44 85.48 182.33 55.07 242.2 42.53"/><polygon class="cls-6" points="183.36 139.19 234.44 85.48 248.1 124.37 183.36 139.19"/><polygon class="cls-36" points="285.02 89.98 234.44 85.48 248.1 124.37 285.02 89.98"/><polygon class="cls-37" points="359.82 0 383.14 29.79 356.55 60.68 359.82 0"/><polygon class="cls-38" points="309.23 23.26 314.69 61.66 359.82 0 309.23 23.26"/><polygon class="cls-39" points="314.69 61.66 359.82 0 356.55 60.68 314.69 61.66"/><polygon class="cls-6" points="284.71 90.57 309.23 23.26 314.69 61.66 284.71 90.57"/><polygon class="cls-40" points="284.71 90.57 279.41 2.35 309.23 23.26 284.71 90.57"/><polygon class="cls-41" points="359.82 0 279.41 2.35 309.23 23.26 359.82 0"/><polygon class="cls-42" points="182.33 55.07 183.36 139.19 234.44 85.48 182.33 55.07"/><polygon class="cls-7" points="20.45 55.12 61.55 112.44 19.43 103.41 20.45 55.12"/><polygon class="cls-8" points="0 135.94 19.43 103.41 61.55 112.44 0 135.94"/><polygon class="cls-7" points="58.65 144.67 61.55 112.44 0 135.94 58.65 144.67"/><polygon class="cls-25" points="73.52 193.37 58.65 144.67 0 135.94 73.52 193.37"/><polygon class="cls-7" points="73.52 193.37 58.65 144.67 0 135.94 73.52 193.37"/><polygon class="cls-8" points="124.16 135.79 73.52 193.37 58.65 144.67 124.16 135.79"/><polygon class="cls-7" points="116.49 202.64 124.16 135.79 73.52 193.37 116.49 202.64"/><polygon class="cls-43" points="124.16 135.79 202.56 186.35 146.55 195.58 124.16 135.79 124.16 135.79"/><polygon class="cls-44" points="109.86 257.33 146.55 195.58 124.16 135.79 109.86 257.33"/><polygon class="cls-6" points="138.42 244.57 146.55 195.58 202.56 186.35 138.42 244.57"/><polygon class="cls-45" points="109.88 257.33 138.42 244.57 146.55 195.58 109.86 257.33 109.88 257.33"/><polygon class="cls-46" points="231 218.15 202.56 186.35 138.42 244.57 231 218.15"/><polygon class="cls-47" points="261.9 201.69 257.82 251.97 231 218.15 261.9 201.69"/><polygon class="cls-48" points="284.67 239.98 261.9 201.69 257.82 251.97 284.67 239.98"/><polygon class="cls-25" points="124.16 135.79 202.56 186.35 146.55 195.58 124.16 135.79 124.16 135.79"/><polygon class="cls-7" points="124.16 135.79 202.56 186.35 146.55 195.58 124.16 135.79 124.16 135.79"/><polygon class="cls-7" points="109.86 257.33 146.55 195.58 124.16 135.79 109.86 257.33"/><polygon class="cls-7" points="138.42 244.57 146.55 195.58 202.56 186.35 138.42 244.57"/><polygon class="cls-8" points="109.88 257.33 138.42 244.57 146.55 195.58 109.86 257.33 109.88 257.33"/><polygon class="cls-7" points="231 218.15 202.56 186.35 138.42 244.57 231 218.15"/><polygon class="cls-8" points="261.9 201.69 257.82 251.97 231 218.15 261.9 201.69"/><polygon class="cls-7" points="284.67 239.98 261.9 201.69 257.82 251.97 284.67 239.98"/><polygon class="cls-25" points="242.2 42.53 234.44 85.48 182.33 55.07 242.2 42.53"/><polygon class="cls-7" points="242.2 42.53 234.44 85.48 182.33 55.07 242.2 42.53"/><polygon class="cls-8" points="183.36 139.19 234.44 85.48 248.1 124.37 183.36 139.19"/><polygon class="cls-7" points="285.02 89.98 234.44 85.48 248.1 124.37 285.02 89.98"/><polygon class="cls-7" points="359.82 0 383.14 29.79 356.55 60.68 359.82 0"/><polygon class="cls-7" points="309.23 23.26 314.69 61.66 359.82 0 309.23 23.26"/><polygon class="cls-8" points="314.69 61.66 359.82 0 356.55 60.68 314.69 61.66"/><polygon class="cls-7" points="284.71 90.57 309.23 23.26 314.69 61.66 284.71 90.57"/><polygon class="cls-8" points="284.71 90.57 279.41 2.35 309.23 23.26 284.71 90.57"/><polygon class="cls-7" points="359.82 0 279.41 2.35 309.23 23.26 359.82 0"/><polygon class="cls-49" points="314.68 61.66 379.09 60.1 348.91 107.87 314.68 61.66"/><polygon class="cls-50" points="285.14 109.22 313.31 133.91 314.68 61.66 285.14 109.22"/><polygon class="cls-51" points="313.31 133.91 314.68 61.66 348.91 107.87 313.31 133.91"/><polygon class="cls-6" points="294.09 173.28 285.14 109.22 313.31 133.91 294.09 173.28"/><polygon class="cls-52" points="294.09 173.28 294.09 173.28 265.13 108.44 285.14 109.22 294.09 173.28"/><polygon class="cls-53" points="314.68 61.66 265.13 108.44 285.14 109.22 314.68 61.66"/><polygon class="cls-25" points="314.67 61.66 379.09 60.1 348.91 107.87 314.67 61.66"/><polygon class="cls-7" points="314.67 61.66 379.09 60.1 348.91 107.87 314.67 61.66"/><polygon class="cls-25" points="285.14 109.22 313.31 133.91 314.67 61.66 285.14 109.22"/><polygon class="cls-7" points="285.14 109.22 313.31 133.91 314.67 61.66 285.14 109.22"/><polygon class="cls-7" points="313.31 133.91 314.67 61.66 348.91 107.87 313.31 133.91"/><polygon class="cls-7" points="294.09 173.29 285.14 109.22 313.31 133.91 294.09 173.29"/><polygon class="cls-7" points="294.09 173.29 294.09 173.29 265.13 108.44 285.14 109.22 294.09 173.29"/><polygon class="cls-8" points="314.67 61.66 265.13 108.44 285.14 109.22 314.67 61.66"/><polygon class="cls-7" points="182.33 55.07 183.36 139.19 234.44 85.48 182.33 55.07"/></g></g></g></g></svg>