<svg xmlns="http://www.w3.org/2000/svg" xmlns:xlink="http://www.w3.org/1999/xlink" viewBox="0 0 2804.31 2395.26"><defs><style>.cls-1,.cls-9{fill:#006937;}.cls-2,.cls-55,.cls-69,.cls-70,.cls-76{fill:none;}.cls-3{isolation:isolate;}.cls-10,.cls-26,.cls-4,.cls-9{mix-blend-mode:multiply;}.cls-5{clip-path:url(#clip-path);}.cls-6{clip-path:url(#clip-path-2);}.cls-7{fill:url(#linear-gradient);}.cls-61,.cls-62,.cls-72,.cls-8{fill:#fff;}.cls-10,.cls-67,.cls-71{fill:#76bc21;}.cls-11{fill:url(#linear-gradient-2);}.cls-12{fill:url(#linear-gradient-3);}.cls-13{fill:url(#linear-gradient-4);}.cls-14{fill:url(#linear-gradient-5);}.cls-15{fill:url(#linear-gradient-6);}.cls-16{fill:url(#linear-gradient-7);}.cls-17{fill:url(#linear-gradient-8);}.cls-18{fill:url(#linear-gradient-9);}.cls-19{fill:url(#linear-gradient-10);}.cls-20{fill:url(#linear-gradient-11);}.cls-21{fill:url(#linear-gradient-12);}.cls-22{fill:url(#linear-gradient-13);}.cls-23{fill:url(#linear-gradient-14);}.cls-24{fill:url(#linear-gradient-15);}.cls-25{fill:url(#linear-gradient-16);}.cls-26{fill:#bcbdc0;}.cls-27{fill:url(#linear-gradient-17);}.cls-28{fill:url(#linear-gradient-18);}.cls-29{fill:url(#linear-gradient-19);}.cls-30{fill:url(#linear-gradient-20);}.cls-31{fill:url(#linear-gradient-21);}.cls-32{fill:url(#linear-gradient-22);}.cls-33{fill:url(#linear-gradient-23);}.cls-34{fill:url(#linear-gradient-24);}.cls-35{fill:url(#linear-gradient-25);}.cls-36{fill:url(#linear-gradient-26);}.cls-37{fill:url(#linear-gradient-27);}.cls-38{fill:url(#linear-gradient-28);}.cls-39{fill:url(#linear-gradient-29);}.cls-40{fill:url(#linear-gradient-30);}.cls-41{fill:url(#linear-gradient-31);}.cls-42{fill:url(#linear-gradient-32);}.cls-43{fill:url(#linear-gradient-33);}.cls-44{fill:url(#linear-gradient-34);}.cls-45{fill:url(#linear-gradient-35);}.cls-46{fill:url(#linear-gradient-36);}.cls-47{fill:url(#linear-gradient-37);}.cls-48{fill:url(#linear-gradient-38);}.cls-49{fill:url(#linear-gradient-39);}.cls-50{fill:url(#linear-gradient-40);}.cls-51{fill:url(#linear-gradient-41);}.cls-52{fill:url(#linear-gradient-42);}.cls-53{fill:url(#linear-gradient-43);}.cls-54{fill:url(#linear-gradient-44);}.cls-55,.cls-69{stroke:#006937;}.cls-55,.cls-66,.cls-71,.cls-72,.cls-76,.cls-83{stroke-miterlimit:10;}.cls-56,.cls-57,.cls-58{font-size:48px;}.cls-56,.cls-65,.cls-84{fill:#176938;}.cls-56,.cls-57,.cls-61{font-family:Helvetica-Light, Helvetica;}.cls-58{fill:#070707;}.cls-58,.cls-62,.cls-64,.cls-74,.cls-84{font-family:Tahoma, Tahoma;}.cls-59{letter-spacing:0em;}.cls-60{letter-spacing:-0.02em;}.cls-61,.cls-62,.cls-64,.cls-84{font-size:30px;}.cls-63{letter-spacing:0em;}.cls-64{fill:#585959;}.cls-66{fill:#f4f9f6;stroke-width:4px;}.cls-66,.cls-76,.cls-83{stroke:#176938;}.cls-68{fill:#d2d3d5;}.cls-69{stroke-width:1.05px;}.cls-70,.cls-71{stroke:#76bc21;}.cls-70{stroke-width:0.95px;}.cls-71{stroke-width:0.55px;}.cls-72{stroke:#fff;stroke-width:0.28px;}.cls-73{letter-spacing:-0.02em;}.cls-74{font-size:21px;fill:#5b5b5b;}.cls-75{letter-spacing:0em;}.cls-77{clip-path:url(#clip-path-3);}.cls-78{fill:url(#linear-gradient-45);}.cls-79{fill:url(#linear-gradient-46);}.cls-80{fill:url(#linear-gradient-47);}.cls-81{fill:url(#linear-gradient-48);}.cls-82{fill:url(#linear-gradient-49);}.cls-83{fill:#fafcfb;}.cls-85{clip-path:url(#clip-path-4);}.cls-86{clip-path:url(#clip-path-5);}.cls-87{fill:url(#linear-gradient-50);}.cls-88{fill:url(#linear-gradient-51);}.cls-89{fill:url(#linear-gradient-52);}.cls-90{fill:url(#linear-gradient-53);}.cls-91{fill:url(#linear-gradient-54);}.cls-92{fill:url(#linear-gradient-55);}.cls-93{fill:url(#linear-gradient-56);}.cls-94{fill:url(#linear-gradient-57);}.cls-95{fill:url(#linear-gradient-58);}.cls-96{fill:url(#linear-gradient-59);}.cls-97{fill:url(#linear-gradient-60);}.cls-98{fill:url(#linear-gradient-61);}.cls-99{fill:url(#linear-gradient-62);}.cls-100{fill:url(#linear-gradient-63);}.cls-101{fill:url(#linear-gradient-64);}.cls-102{fill:url(#linear-gradient-65);}.cls-103{fill:url(#linear-gradient-66);}.cls-104{fill:url(#linear-gradient-67);}.cls-105{fill:url(#linear-gradient-68);}.cls-106{fill:url(#linear-gradient-69);}.cls-107{fill:url(#linear-gradient-70);}.cls-108{fill:url(#linear-gradient-71);}.cls-109{fill:url(#linear-gradient-72);}.cls-110{fill:url(#linear-gradient-73);}.cls-111{fill:url(#linear-gradient-74);}.cls-112{fill:url(#linear-gradient-75);}.cls-113{fill:url(#linear-gradient-76);}.cls-114{fill:url(#linear-gradient-77);}.cls-115{fill:url(#linear-gradient-78);}.cls-116{fill:url(#linear-gradient-79);}.cls-117{fill:url(#linear-gradient-80);}.cls-118{fill:url(#linear-gradient-81);}.cls-119{fill:url(#linear-gradient-82);}.cls-120{fill:url(#linear-gradient-83);}.cls-121{fill:url(#linear-gradient-84);}.cls-122{fill:url(#linear-gradient-85);}.cls-123{fill:url(#linear-gradient-86);}.cls-124{fill:url(#linear-gradient-87);}.cls-125{fill:url(#linear-gradient-88);}.cls-126{fill:url(#linear-gradient-89);}.cls-127{fill:url(#linear-gradient-90);}.cls-128{fill:url(#linear-gradient-91);}.cls-129{fill:url(#linear-gradient-92);}.cls-130{fill:url(#linear-gradient-93);}</style><clipPath id="clip-path" transform="translate(2 476.37)"><rect class="cls-1" x="-2" y="152.5" width="505" height="615"/></clipPath><clipPath id="clip-path-2" transform="translate(2 476.37)"><rect class="cls-2" x="1673" y="128" width="578" height="512"/></clipPath><linearGradient id="linear-gradient" x1="-1348.04" y1="-4703.31" x2="-1411.13" y2="-4757.31" gradientTransform="matrix(-0.34, -0.94, -0.94, 0.34, -2856.04, 1219.74)" gradientUnits="userSpaceOnUse"><stop offset="0" stop-color="#9a9a9a"/><stop offset="0.01" stop-color="#9f9f9f"/><stop offset="0.06" stop-color="#bcbcbc"/><stop offset="0.12" stop-color="#d5d5d5"/><stop offset="0.19" stop-color="#e8e8e8"/><stop offset="0.26" stop-color="#f5f5f5"/><stop offset="0.36" stop-color="#fdfdfd"/><stop offset="0.56" stop-color="#fff"/></linearGradient><linearGradient id="linear-gradient-2" x1="2762.62" y1="996.21" x2="2682.47" y2="925.72" gradientTransform="matrix(1, 0, 0, -1, -240, 1845.62)" gradientUnits="userSpaceOnUse"><stop offset="0" stop-color="#898989"/><stop offset="0.03" stop-color="#a2a2a2"/><stop offset="0.08" stop-color="#bebebe"/><stop offset="0.13" stop-color="#d6d6d6"/><stop offset="0.19" stop-color="#e9e9e9"/><stop offset="0.26" stop-color="#f5f5f5"/><stop offset="0.36" stop-color="#fdfdfd"/><stop offset="0.56" stop-color="#fff"/></linearGradient><linearGradient id="linear-gradient-3" x1="2739.04" y1="1075.12" x2="2851.65" y2="967.63" gradientTransform="matrix(1, 0, 0, -1, -240, 1845.62)" gradientUnits="userSpaceOnUse"><stop offset="0" stop-color="#a6a5a5"/><stop offset="0.01" stop-color="#acabab"/><stop offset="0.11" stop-color="#cac9c9"/><stop offset="0.2" stop-color="#e1e1e1"/><stop offset="0.31" stop-color="#f2f2f2"/><stop offset="0.42" stop-color="#fcfcfc"/><stop offset="0.56" stop-color="#fff"/></linearGradient><linearGradient id="linear-gradient-4" x1="2732.74" y1="1079.48" x2="2815.41" y2="1077.87" gradientTransform="matrix(1, 0, 0, -1, -240, 1845.62)" gradientUnits="userSpaceOnUse"><stop offset="0" stop-color="#636463"/><stop offset="0" stop-color="#656665"/><stop offset="0.03" stop-color="#898a89"/><stop offset="0.06" stop-color="#a8a9a8"/><stop offset="0.1" stop-color="#c4c4c4"/><stop offset="0.14" stop-color="#dadada"/><stop offset="0.19" stop-color="#ebebeb"/><stop offset="0.25" stop-color="#f6f6f6"/><stop offset="0.33" stop-color="#fdfdfd"/><stop offset="0.56" stop-color="#fff"/></linearGradient><linearGradient id="linear-gradient-5" x1="2696.3" y1="1043.18" x2="2631.58" y2="1094.43" gradientTransform="matrix(1, 0, 0, -1, -240, 1845.62)" gradientUnits="userSpaceOnUse"><stop offset="0" stop-color="#535352"/><stop offset="0.04" stop-color="#747473"/><stop offset="0.08" stop-color="#999998"/><stop offset="0.14" stop-color="#b9b9b8"/><stop offset="0.19" stop-color="#d2d2d2"/><stop offset="0.25" stop-color="#e6e6e6"/><stop offset="0.32" stop-color="#f4f4f4"/><stop offset="0.41" stop-color="#fdfdfd"/><stop offset="0.56" stop-color="#fff"/></linearGradient><linearGradient id="linear-gradient-6" x1="2647.76" y1="1071.6" x2="2612.34" y2="1179.35" gradientTransform="matrix(1, 0, 0, -1, -240, 1845.62)" gradientUnits="userSpaceOnUse"><stop offset="0" stop-color="#797979"/><stop offset="0.01" stop-color="#828282"/><stop offset="0.05" stop-color="#a4a4a4"/><stop offset="0.09" stop-color="silver"/><stop offset="0.14" stop-color="#d7d7d7"/><stop offset="0.2" stop-color="#e9e9e9"/><stop offset="0.26" stop-color="#f6f6f6"/><stop offset="0.35" stop-color="#fdfdfd"/><stop offset="0.56" stop-color="#fff"/></linearGradient><linearGradient id="linear-gradient-7" x1="2567.87" y1="1109.05" x2="2450.33" y2="991" xlink:href="#linear-gradient-2"/><linearGradient id="linear-gradient-8" x1="2449.19" y1="1048.16" x2="2549.6" y2="1065.65" gradientTransform="matrix(1, 0, 0, -1, -240, 1845.62)" gradientUnits="userSpaceOnUse"><stop offset="0" stop-color="#9a9a9a"/><stop offset="0" stop-color="#9b9b9b"/><stop offset="0.11" stop-color="#bfbfbf"/><stop offset="0.22" stop-color="#dbdbdb"/><stop offset="0.34" stop-color="#efefef"/><stop offset="0.45" stop-color="#fbfbfb"/><stop offset="0.56" stop-color="#fff"/></linearGradient><linearGradient id="linear-gradient-9" x1="2433.99" y1="1052.81" x2="2349.88" y2="980.82" gradientTransform="matrix(1, 0, 0, -1, -240, 1845.62)" xlink:href="#linear-gradient"/><linearGradient id="linear-gradient-10" x1="2358.57" y1="1074.64" x2="2267.86" y2="1115.15" gradientTransform="matrix(1, 0, 0, -1, -240, 1845.62)" gradientUnits="userSpaceOnUse"><stop offset="0" stop-color="#464646"/><stop offset="0" stop-color="#484848"/><stop offset="0.05" stop-color="#737373"/><stop offset="0.09" stop-color="#989898"/><stop offset="0.15" stop-color="#b8b8b8"/><stop offset="0.2" stop-color="#d2d2d2"/><stop offset="0.26" stop-color="#e6e6e6"/><stop offset="0.33" stop-color="#f4f4f4"/><stop offset="0.41" stop-color="#fdfdfd"/><stop offset="0.56" stop-color="#fff"/></linearGradient><linearGradient id="linear-gradient-11" x1="2109.43" y1="1094.98" x2="2193.79" y2="1115.62" gradientTransform="matrix(1, 0, 0, -1, -240, 1845.62)" gradientUnits="userSpaceOnUse"><stop offset="0" stop-color="#676767"/><stop offset="0.03" stop-color="#828282"/><stop offset="0.07" stop-color="#a3a3a3"/><stop offset="0.11" stop-color="silver"/><stop offset="0.16" stop-color="#d7d7d7"/><stop offset="0.22" stop-color="#e9e9e9"/><stop offset="0.29" stop-color="#f6f6f6"/><stop offset="0.38" stop-color="#fdfdfd"/><stop offset="0.59" stop-color="#fff"/></linearGradient><linearGradient id="linear-gradient-12" x1="2030.21" y1="1113.8" x2="2122.15" y2="1037.1" gradientTransform="matrix(1, 0, 0, -1, -240, 1845.62)" gradientUnits="userSpaceOnUse"><stop offset="0" stop-color="#a1a1a0"/><stop offset="0.01" stop-color="#aaaaa9"/><stop offset="0.05" stop-color="#c4c4c4"/><stop offset="0.1" stop-color="#dadada"/><stop offset="0.16" stop-color="#ebebeb"/><stop offset="0.23" stop-color="#f6f6f6"/><stop offset="0.32" stop-color="#fdfdfd"/><stop offset="0.59" stop-color="#fff"/></linearGradient><linearGradient id="linear-gradient-13" x1="2063.64" y1="1082.45" x2="2156.58" y2="1061.72" gradientTransform="matrix(1, 0, 0, -1, -240, 1845.62)" gradientUnits="userSpaceOnUse"><stop offset="0" stop-color="#4e4e4e"/><stop offset="0.02" stop-color="#646464"/><stop offset="0.05" stop-color="#888"/><stop offset="0.08" stop-color="#a8a8a8"/><stop offset="0.12" stop-color="#c4c4c4"/><stop offset="0.16" stop-color="#dadada"/><stop offset="0.21" stop-color="#ebebeb"/><stop offset="0.27" stop-color="#f6f6f6"/><stop offset="0.36" stop-color="#fdfdfd"/><stop offset="0.59" stop-color="#fff"/></linearGradient><linearGradient id="linear-gradient-14" x1="2000.66" y1="1012.58" x2="1881.09" y2="1015.42" gradientTransform="matrix(1, 0, 0, -1, -240, 1845.62)" gradientUnits="userSpaceOnUse"><stop offset="0" stop-color="#959595"/><stop offset="0.06" stop-color="#aeaeae"/><stop offset="0.14" stop-color="#cbcbcb"/><stop offset="0.22" stop-color="#e2e2e2"/><stop offset="0.32" stop-color="#f2f2f2"/><stop offset="0.42" stop-color="#fcfcfc"/><stop offset="0.56" stop-color="#fff"/></linearGradient><linearGradient id="linear-gradient-15" x1="1971.04" y1="1041.75" x2="2034.93" y2="1193.98" gradientTransform="matrix(1, 0, 0, -1, -240, 1845.62)" gradientUnits="userSpaceOnUse"><stop offset="0" stop-color="#8c8c8c"/><stop offset="0.03" stop-color="#9f9f9f"/><stop offset="0.08" stop-color="#bcbcbc"/><stop offset="0.13" stop-color="#d5d5d5"/><stop offset="0.2" stop-color="#e8e8e8"/><stop offset="0.27" stop-color="#f5f5f5"/><stop offset="0.37" stop-color="#fdfdfd"/><stop offset="0.56" stop-color="#fff"/></linearGradient><linearGradient id="linear-gradient-16" x1="2255.88" y1="1022.55" x2="2154.3" y2="1048.86" gradientTransform="matrix(1, 0, 0, -1, -240, 1845.62)" gradientUnits="userSpaceOnUse"><stop offset="0" stop-color="#616262"/><stop offset="0.03" stop-color="#828383"/><stop offset="0.07" stop-color="#a4a4a4"/><stop offset="0.11" stop-color="#c0c1c1"/><stop offset="0.16" stop-color="#d7d8d8"/><stop offset="0.21" stop-color="#e9e9e9"/><stop offset="0.27" stop-color="#f6f6f6"/><stop offset="0.36" stop-color="#fdfdfd"/><stop offset="0.56" stop-color="#fff"/></linearGradient><linearGradient id="linear-gradient-17" x1="2285.17" y1="-1622.62" x2="2446.94" y2="-1583.06" gradientTransform="matrix(0.8, -0.6, -0.6, -0.8, -937.93, 980.84)" xlink:href="#linear-gradient-11"/><linearGradient id="linear-gradient-18" x1="2205.6" y1="-1603.85" x2="2297.54" y2="-1680.55" gradientTransform="matrix(0.8, -0.6, -0.6, -0.8, -937.93, 980.84)" xlink:href="#linear-gradient-12"/><linearGradient id="linear-gradient-19" x1="2239.03" y1="-1635.2" x2="2331.97" y2="-1655.93" gradientTransform="matrix(0.8, -0.6, -0.6, -0.8, -937.93, 980.84)" xlink:href="#linear-gradient-13"/><linearGradient id="linear-gradient-20" x1="2170.28" y1="-1688.36" x2="2117.25" y2="-1687.1" gradientTransform="matrix(0.8, -0.6, -0.6, -0.8, -937.93, 980.84)" xlink:href="#linear-gradient-14"/><linearGradient id="linear-gradient-21" x1="2168.69" y1="-1642.12" x2="2216.76" y2="-1527.6" gradientTransform="matrix(0.8, -0.6, -0.6, -0.8, -937.93, 980.84)" xlink:href="#linear-gradient-15"/><linearGradient id="linear-gradient-22" x1="2873.49" y1="1407.96" x2="2792.71" y2="1336.9" gradientTransform="matrix(1, 0.09, 0.09, -1, -203, 1876.17)" xlink:href="#linear-gradient-2"/><linearGradient id="linear-gradient-23" x1="2807.06" y1="1454.49" x2="2742.33" y2="1505.75" gradientTransform="matrix(1, 0.09, 0.09, -1, -203, 1876.17)" xlink:href="#linear-gradient-5"/><linearGradient id="linear-gradient-24" x1="2758.72" y1="1483.18" x2="2723.3" y2="1590.94" gradientTransform="matrix(1, 0.09, 0.09, -1, -203, 1876.17)" xlink:href="#linear-gradient-6"/><linearGradient id="linear-gradient-25" x1="2678.81" y1="1520.61" x2="2561.79" y2="1403.08" gradientTransform="matrix(1, 0.09, 0.09, -1, -203, 1876.17)" xlink:href="#linear-gradient-2"/><linearGradient id="linear-gradient-26" x1="2530.56" y1="1454.74" x2="2666.15" y2="1478.36" gradientTransform="matrix(1, 0.09, 0.09, -1, -203, 1876.17)" xlink:href="#linear-gradient-8"/><linearGradient id="linear-gradient-27" x1="-4403.3" y1="-2046.42" x2="-4509.35" y2="-1999.06" gradientTransform="matrix(-0.98, 0.02, 0.01, 1.02, -2106.17, 3115.07)" xlink:href="#linear-gradient-10"/><linearGradient id="linear-gradient-28" x1="-5160.69" y1="-1644.91" x2="-5076.33" y2="-1624.28" gradientTransform="matrix(-0.96, 0.1, 0.01, 1.04, -2858.04, 3401.98)" xlink:href="#linear-gradient-11"/><linearGradient id="linear-gradient-29" x1="-5239.91" y1="-1626.06" x2="-5147.98" y2="-1702.75" gradientTransform="matrix(-0.96, 0.1, 0.01, 1.04, -2858.04, 3401.98)" xlink:href="#linear-gradient-12"/><linearGradient id="linear-gradient-30" x1="-5206.5" y1="-1657.41" x2="-5113.55" y2="-1678.14" gradientTransform="matrix(-0.96, 0.1, 0.01, 1.04, -2858.04, 3401.98)" xlink:href="#linear-gradient-13"/><linearGradient id="linear-gradient-31" x1="-5266.76" y1="-1732.64" x2="-5398.46" y2="-1729.52" gradientTransform="matrix(-0.96, 0.1, 0.01, 1.04, -2858.04, 3401.98)" xlink:href="#linear-gradient-14"/><linearGradient id="linear-gradient-32" x1="-5295.94" y1="-1668.16" x2="-5243.52" y2="-1543.27" gradientTransform="matrix(-0.96, 0.1, 0.01, 1.04, -2858.04, 3401.98)" xlink:href="#linear-gradient-15"/><linearGradient id="linear-gradient-33" x1="-4523.19" y1="-2108.1" x2="-4670.11" y2="-2070.03" gradientTransform="matrix(-0.98, 0.02, 0.01, 1.02, -2106.17, 3115.07)" xlink:href="#linear-gradient-16"/><linearGradient id="linear-gradient-34" x1="2833.1" y1="0.21" x2="2726.59" y2="-93.47" gradientTransform="matrix(0.96, -0.28, -0.28, -0.96, -283.57, 1437.16)" xlink:href="#linear-gradient-2"/><linearGradient id="linear-gradient-35" x1="2801.35" y1="103.49" x2="2950.2" y2="-38.6" gradientTransform="matrix(0.96, -0.28, -0.28, -0.96, -283.57, 1437.16)" xlink:href="#linear-gradient-3"/><linearGradient id="linear-gradient-36" x1="2793.72" y1="109.04" x2="2900.06" y2="106.98" gradientTransform="matrix(0.96, -0.28, -0.28, -0.96, -283.57, 1437.16)" xlink:href="#linear-gradient-4"/><linearGradient id="linear-gradient-37" x1="2746.36" y1="60.58" x2="2650.2" y2="136.73" gradientTransform="matrix(0.96, -0.28, -0.28, -0.96, -283.57, 1437.16)" xlink:href="#linear-gradient-5"/><linearGradient id="linear-gradient-38" x1="2555.95" y1="97.94" x2="2494.18" y2="35.91" gradientTransform="matrix(0.96, -0.28, -0.28, -0.96, -283.57, 1437.16)" xlink:href="#linear-gradient-2"/><linearGradient id="linear-gradient-39" x1="2454.97" y1="59.85" x2="2540.09" y2="74.68" gradientTransform="matrix(0.96, -0.28, -0.28, -0.96, -283.57, 1437.16)" xlink:href="#linear-gradient-8"/><linearGradient id="linear-gradient-40" x1="-5163.76" y1="586.24" x2="-5002.09" y2="625.78" gradientTransform="matrix(-0.76, 0.71, 0.59, 0.77, -2174.24, 4229.83)" xlink:href="#linear-gradient-11"/><linearGradient id="linear-gradient-41" x1="-5243.32" y1="605.01" x2="-5151.38" y2="528.31" gradientTransform="matrix(-0.76, 0.71, 0.59, 0.77, -2174.24, 4229.83)" xlink:href="#linear-gradient-12"/><linearGradient id="linear-gradient-42" x1="-5209.9" y1="573.66" x2="-5116.96" y2="552.93" gradientTransform="matrix(-0.76, 0.71, 0.59, 0.77, -2174.24, 4229.83)" xlink:href="#linear-gradient-13"/><linearGradient id="linear-gradient-43" x1="-5279.32" y1="499.7" x2="-5338.3" y2="501.1" gradientTransform="matrix(-0.76, 0.71, 0.59, 0.77, -2174.24, 4229.83)" xlink:href="#linear-gradient-14"/><linearGradient id="linear-gradient-44" x1="-5275.27" y1="564.51" x2="-5227.15" y2="679.17" gradientTransform="matrix(-0.76, 0.71, 0.59, 0.77, -2174.24, 4229.83)" xlink:href="#linear-gradient-15"/><clipPath id="clip-path-3" transform="translate(2 476.37)"><rect class="cls-2" x="1626" y="586" width="453" height="301"/></clipPath><linearGradient id="linear-gradient-45" x1="819.06" y1="737.64" x2="738.27" y2="666.58" gradientTransform="matrix(-1, 0.01, 0.01, 1, 2570.07, 503.6)" xlink:href="#linear-gradient-2"/><linearGradient id="linear-gradient-46" x1="752.62" y1="784.18" x2="687.89" y2="835.43" gradientTransform="matrix(-1, 0.01, 0.01, 1, 2570.07, 503.6)" xlink:href="#linear-gradient-5"/><linearGradient id="linear-gradient-47" x1="704.29" y1="812.87" x2="668.86" y2="920.62" gradientTransform="matrix(-1, 0.01, 0.01, 1, 2570.07, 503.6)" xlink:href="#linear-gradient-6"/><linearGradient id="linear-gradient-48" x1="624.37" y1="850.29" x2="507.36" y2="732.76" gradientTransform="matrix(-1, 0.01, 0.01, 1, 2570.07, 503.6)" xlink:href="#linear-gradient-2"/><linearGradient id="linear-gradient-49" x1="476.12" y1="784.43" x2="611.71" y2="808.04" gradientTransform="matrix(-1, 0.01, 0.01, 1, 2570.07, 503.6)" xlink:href="#linear-gradient-8"/><clipPath id="clip-path-4" transform="translate(2 476.37)"><rect class="cls-2" x="1023" y="503" width="341" height="261"/></clipPath><clipPath id="clip-path-5" transform="translate(2 476.37)"><rect class="cls-2" x="1122.07" y="433.24" width="336.78" height="538.85" transform="translate(136.03 1611.69) rotate(-66.79)"/></clipPath><linearGradient id="linear-gradient-50" x1="-2947.97" y1="-2939.99" x2="-2986.93" y2="-2973.34" gradientTransform="matrix(-0.04, 0.67, 0.67, 0.04, 3266.7, 3313.62)" xlink:href="#linear-gradient"/><linearGradient id="linear-gradient-51" x1="1460.51" y1="-1121.88" x2="1411.01" y2="-1165.42" gradientTransform="matrix(-0.62, -0.27, -0.27, 0.62, 1809.72, 2228.86)" xlink:href="#linear-gradient-2"/><linearGradient id="linear-gradient-52" x1="1445.95" y1="-1073.14" x2="1515.5" y2="-1139.53" gradientTransform="matrix(-0.62, -0.27, -0.27, 0.62, 1809.72, 2228.86)" xlink:href="#linear-gradient-3"/><linearGradient id="linear-gradient-53" x1="1442.05" y1="-1070.45" x2="1493.11" y2="-1071.44" gradientTransform="matrix(-0.62, -0.27, -0.27, 0.62, 1809.72, 2228.86)" xlink:href="#linear-gradient-4"/><linearGradient id="linear-gradient-54" x1="1419.54" y1="-1092.87" x2="1379.57" y2="-1061.22" gradientTransform="matrix(-0.62, -0.27, -0.27, 0.62, 1809.72, 2228.86)" xlink:href="#linear-gradient-5"/><linearGradient id="linear-gradient-55" x1="1389.57" y1="-1075.32" x2="1367.69" y2="-1008.77" gradientTransform="matrix(-0.62, -0.27, -0.27, 0.62, 1809.72, 2228.86)" xlink:href="#linear-gradient-6"/><linearGradient id="linear-gradient-56" x1="1340.23" y1="-1052.19" x2="1267.63" y2="-1125.1" gradientTransform="matrix(-0.62, -0.27, -0.27, 0.62, 1809.72, 2228.86)" xlink:href="#linear-gradient-2"/><linearGradient id="linear-gradient-57" x1="1266.92" y1="-1089.8" x2="1328.94" y2="-1078.99" gradientTransform="matrix(-0.62, -0.27, -0.27, 0.62, 1809.72, 2228.86)" xlink:href="#linear-gradient-8"/><linearGradient id="linear-gradient-58" x1="1257.54" y1="-1086.92" x2="1205.59" y2="-1131.39" gradientTransform="matrix(-0.62, -0.27, -0.27, 0.62, 1809.72, 2228.86)" xlink:href="#linear-gradient"/><linearGradient id="linear-gradient-59" x1="1210.96" y1="-1073.44" x2="1154.93" y2="-1048.42" gradientTransform="matrix(-0.62, -0.27, -0.27, 0.62, 1809.72, 2228.86)" xlink:href="#linear-gradient-10"/><linearGradient id="linear-gradient-60" x1="1057.08" y1="-1060.87" x2="1109.19" y2="-1048.13" gradientTransform="matrix(-0.62, -0.27, -0.27, 0.62, 1809.72, 2228.86)" xlink:href="#linear-gradient-11"/><linearGradient id="linear-gradient-61" x1="1008.16" y1="-1049.25" x2="1064.94" y2="-1096.62" gradientTransform="matrix(-0.62, -0.27, -0.27, 0.62, 1809.72, 2228.86)" xlink:href="#linear-gradient-12"/><linearGradient id="linear-gradient-62" x1="1028.8" y1="-1068.62" x2="1086.2" y2="-1081.42" gradientTransform="matrix(-0.62, -0.27, -0.27, 0.62, 1809.72, 2228.86)" xlink:href="#linear-gradient-13"/><linearGradient id="linear-gradient-63" x1="989.91" y1="-1111.77" x2="916.06" y2="-1110.02" gradientTransform="matrix(-0.62, -0.27, -0.27, 0.62, 1809.72, 2228.86)" xlink:href="#linear-gradient-14"/><linearGradient id="linear-gradient-64" x1="971.61" y1="-1093.75" x2="1011.07" y2="-999.73" gradientTransform="matrix(-0.62, -0.27, -0.27, 0.62, 1809.72, 2228.86)" xlink:href="#linear-gradient-15"/><linearGradient id="linear-gradient-65" x1="1147.53" y1="-1105.61" x2="1084.8" y2="-1089.36" gradientTransform="matrix(-0.62, -0.27, -0.27, 0.62, 1809.72, 2228.86)" xlink:href="#linear-gradient-16"/><linearGradient id="linear-gradient-66" x1="179.01" y1="-2662.81" x2="278.92" y2="-2638.37" gradientTransform="matrix(-0.66, 0.16, 0.16, 0.66, 2012.69, 2951.33)" xlink:href="#linear-gradient-11"/><linearGradient id="linear-gradient-67" x1="129.87" y1="-2651.21" x2="186.65" y2="-2698.58" gradientTransform="matrix(-0.66, 0.16, 0.16, 0.66, 2012.69, 2951.33)" xlink:href="#linear-gradient-12"/><linearGradient id="linear-gradient-68" x1="150.51" y1="-2670.58" x2="207.92" y2="-2683.38" gradientTransform="matrix(-0.66, 0.16, 0.16, 0.66, 2012.69, 2951.33)" xlink:href="#linear-gradient-13"/><linearGradient id="linear-gradient-69" x1="108.05" y1="-2703.41" x2="75.3" y2="-2702.63" gradientTransform="matrix(-0.66, 0.16, 0.16, 0.66, 2012.69, 2951.33)" xlink:href="#linear-gradient-14"/><linearGradient id="linear-gradient-70" x1="107.07" y1="-2674.85" x2="136.76" y2="-2604.12" gradientTransform="matrix(-0.66, 0.16, 0.16, 0.66, 2012.69, 2951.33)" xlink:href="#linear-gradient-15"/><linearGradient id="linear-gradient-71" x1="1671.54" y1="-872.34" x2="1621.64" y2="-916.23" gradientTransform="matrix(-0.59, -0.32, -0.32, 0.59, 1794.89, 2200.05)" xlink:href="#linear-gradient-2"/><linearGradient id="linear-gradient-72" x1="1630.51" y1="-843.6" x2="1590.53" y2="-811.95" gradientTransform="matrix(-0.59, -0.32, -0.32, 0.59, 1794.89, 2200.05)" xlink:href="#linear-gradient-5"/><linearGradient id="linear-gradient-73" x1="1600.65" y1="-825.88" x2="1578.78" y2="-759.33" gradientTransform="matrix(-0.59, -0.32, -0.32, 0.59, 1794.89, 2200.05)" xlink:href="#linear-gradient-6"/><linearGradient id="linear-gradient-74" x1="1551.3" y1="-802.77" x2="1479.03" y2="-875.36" gradientTransform="matrix(-0.59, -0.32, -0.32, 0.59, 1794.89, 2200.05)" xlink:href="#linear-gradient-2"/><linearGradient id="linear-gradient-75" x1="1459.73" y1="-843.45" x2="1543.48" y2="-828.86" gradientTransform="matrix(-0.59, -0.32, -0.32, 0.59, 1794.89, 2200.05)" xlink:href="#linear-gradient-8"/><linearGradient id="linear-gradient-76" x1="-3181.63" y1="-21.01" x2="-3247.13" y2="8.25" gradientTransform="matrix(0.62, 0.25, 0.26, -0.63, 3305.8, 1937.73)" xlink:href="#linear-gradient-10"/><linearGradient id="linear-gradient-77" x1="-3954.76" y1="158.74" x2="-3902.65" y2="171.48" gradientTransform="matrix(0.62, 0.2, 0.27, -0.65, 3848.8, 1959.8)" xlink:href="#linear-gradient-11"/><linearGradient id="linear-gradient-78" x1="-4003.69" y1="170.39" x2="-3946.91" y2="123.02" gradientTransform="matrix(0.62, 0.2, 0.27, -0.65, 3848.8, 1959.8)" xlink:href="#linear-gradient-12"/><linearGradient id="linear-gradient-79" x1="-3983.05" y1="151.02" x2="-3925.64" y2="138.22" gradientTransform="matrix(0.62, 0.2, 0.27, -0.65, 3848.8, 1959.8)" xlink:href="#linear-gradient-13"/><linearGradient id="linear-gradient-80" x1="-4020.27" y1="104.56" x2="-4101.61" y2="106.49" gradientTransform="matrix(0.62, 0.2, 0.27, -0.65, 3848.8, 1959.8)" xlink:href="#linear-gradient-14"/><linearGradient id="linear-gradient-81" x1="-4038.29" y1="144.38" x2="-4005.92" y2="221.52" gradientTransform="matrix(0.62, 0.2, 0.27, -0.65, 3848.8, 1959.8)" xlink:href="#linear-gradient-15"/><linearGradient id="linear-gradient-82" x1="-3255.68" y1="-59.1" x2="-3346.42" y2="-35.59" gradientTransform="matrix(0.62, 0.25, 0.26, -0.63, 3305.8, 1937.73)" xlink:href="#linear-gradient-16"/><linearGradient id="linear-gradient-83" x1="999.87" y1="-1753.46" x2="934.09" y2="-1811.32" gradientTransform="matrix(-0.67, -0.08, -0.08, 0.67, 1728.04, 2493.95)" xlink:href="#linear-gradient-2"/><linearGradient id="linear-gradient-84" x1="980.26" y1="-1689.67" x2="1072.19" y2="-1777.43" gradientTransform="matrix(-0.67, -0.08, -0.08, 0.67, 1728.04, 2493.95)" xlink:href="#linear-gradient-3"/><linearGradient id="linear-gradient-85" x1="975.55" y1="-1686.24" x2="1041.23" y2="-1687.51" gradientTransform="matrix(-0.67, -0.08, -0.08, 0.67, 1728.04, 2493.95)" xlink:href="#linear-gradient-4"/><linearGradient id="linear-gradient-86" x1="946.3" y1="-1716.17" x2="886.91" y2="-1669.14" gradientTransform="matrix(-0.67, -0.08, -0.08, 0.67, 1728.04, 2493.95)" xlink:href="#linear-gradient-5"/><linearGradient id="linear-gradient-87" x1="828.7" y1="-1693.1" x2="790.55" y2="-1731.41" gradientTransform="matrix(-0.67, -0.08, -0.08, 0.67, 1728.04, 2493.95)" xlink:href="#linear-gradient-2"/><linearGradient id="linear-gradient-88" x1="766.33" y1="-1716.63" x2="818.9" y2="-1707.47" gradientTransform="matrix(-0.67, -0.08, -0.08, 0.67, 1728.04, 2493.95)" xlink:href="#linear-gradient-8"/><linearGradient id="linear-gradient-89" x1="-3078.45" y1="1337.13" x2="-2978.6" y2="1361.54" gradientTransform="matrix(0.66, -0.24, -0.16, -0.63, 3644.78, 1264.01)" xlink:href="#linear-gradient-11"/><linearGradient id="linear-gradient-90" x1="-3127.59" y1="1348.72" x2="-3070.8" y2="1301.35" gradientTransform="matrix(0.66, -0.24, -0.16, -0.63, 3644.78, 1264.01)" xlink:href="#linear-gradient-12"/><linearGradient id="linear-gradient-91" x1="-3106.94" y1="1329.36" x2="-3049.54" y2="1316.55" gradientTransform="matrix(0.66, -0.24, -0.16, -0.63, 3644.78, 1264.01)" xlink:href="#linear-gradient-13"/><linearGradient id="linear-gradient-92" x1="-3149.82" y1="1283.68" x2="-3186.25" y2="1284.54" gradientTransform="matrix(0.66, -0.24, -0.16, -0.63, 3644.78, 1264.01)" xlink:href="#linear-gradient-14"/><linearGradient id="linear-gradient-93" x1="-3147.32" y1="1323.7" x2="-3117.6" y2="1394.52" gradientTransform="matrix(0.66, -0.24, -0.16, -0.63, 3644.78, 1264.01)" xlink:href="#linear-gradient-15"/></defs><title>pantalla</title><g class="cls-3"><g id="Layer_1" data-name="Layer 1"><g class="cls-4"><rect class="cls-1" y="628.87" width="505" height="615"/><g class="cls-5"><polygon class="cls-1" points="510.07 0 56.68 0 57.42 2395.26 510.92 2395.26 510.07 0"/></g></g><g class="cls-6"><polygon class="cls-7" points="2084.51 919.34 1979.54 961.78 2089.66 814.42 2084.51 919.34"/><polygon class="cls-8" points="1979.54 961.78 2089.66 814.42 1978.28 889.88 1979.54 961.78"/><polygon class="cls-9" points="2084.51 919.34 1979.54 961.78 2089.66 814.42 2084.51 919.34"/><polygon class="cls-9" points="1979.54 961.78 2089.66 814.42 1978.28 889.88 1979.54 961.78"/><polygon class="cls-10" points="2214.77 929.93 2237.24 878.74 2089.66 814.42 2214.77 929.93"/><polygon class="cls-1" points="1902.01 817.11 1953.28 800.27 1933.73 730.33 1902.01 817.11"/><polygon class="cls-11" points="2548.55 930.25 2397.31 855.97 2495.64 827.23 2548.55 930.25 2548.55 930.25"/><polygon class="cls-12" points="2549.55 706.22 2495.64 827.23 2548.55 930.25 2549.55 706.22"/><polygon class="cls-8" points="2499.54 736.45 2495.64 827.23 2397.31 855.97 2499.54 736.45"/><polygon class="cls-13" points="2548.55 706.94 2499.54 736.45 2495.64 827.23 2549.55 706.22 2548.55 706.94"/><polygon class="cls-14" points="2365.89 784.9 2397.31 855.97 2499.54 736.45 2365.89 784.9"/><polygon class="cls-15" points="2279.01 699.14 2365.89 784.9 2499.54 736.45 2279.01 699.14"/><polygon class="cls-16" points="2237.24 878.74 2279.01 699.14 2365.89 784.9 2237.24 878.74"/><polygon class="cls-17" points="2207.72 742.02 2237.24 878.74 2279.01 699.14 2207.72 742.02"/><polygon class="cls-18" points="2089.66 814.42 2133.75 721.41 2237.24 878.74 2089.66 814.42"/><polygon class="cls-8" points="2013.37 664.61 2032.86 750.93 1933.73 730.33 2013.37 664.61"/><polygon class="cls-8" points="1978.28 889.88 2032.86 750.93 2089.66 814.42 1978.28 889.88"/><polygon class="cls-19" points="2133.75 721.41 2032.86 750.93 2089.66 814.42 2133.75 721.41"/><polygon class="cls-20" points="1851.87 680.48 1933.73 730.33 1902.01 817.11 1851.87 680.48"/><polygon class="cls-21" points="1757.75 767.08 1806.76 848.39 1851.87 680.48 1757.75 767.08"/><polygon class="cls-22" points="1806.76 848.39 1851.87 680.48 1902.01 817.11 1806.76 848.39"/><polygon class="cls-8" points="1762.92 898.97 1757.75 767.08 1806.76 848.39 1762.92 898.97"/><polygon class="cls-23" points="1762.92 898.97 1674.65 773.72 1757.75 767.08 1762.92 898.97"/><polygon class="cls-24" points="1851.87 680.48 1674.65 773.72 1757.75 767.08 1851.87 680.48"/><polygon class="cls-25" points="1933.73 730.33 1978.28 889.88 2032.86 750.93 1933.73 730.33"/><polygon class="cls-8" points="2133.75 721.41 2237.24 878.74 2207.72 742.02 2133.75 721.41"/><polygon class="cls-26" points="2548.55 930.25 2397.31 855.97 2495.64 827.23 2548.55 930.25 2548.55 930.25"/><polygon class="cls-26" points="2089.66 814.42 2133.75 721.42 2237.24 878.74 2089.66 814.42"/><polygon class="cls-26" points="2013.37 664.61 2032.86 750.93 1933.73 730.33 2013.37 664.61"/><polygon class="cls-26" points="1757.75 767.08 1806.76 848.39 1851.87 680.48 1757.75 767.08"/><polygon class="cls-9" points="1784.03 974.26 1872.2 1009.44 1806.71 848.39 1784.03 974.26"/><polygon class="cls-26" points="1933.73 730.33 1978.28 889.88 2032.86 750.93 1933.73 730.33"/><polygon class="cls-9" points="2149.8 1079.84 2009.34 1144.15 2030.69 1010.38 2149.8 1079.84"/><polygon class="cls-9" points="2169.93 947.12 2084.51 919.34 2149.8 1079.84 2169.93 947.12"/><polygon class="cls-9" points="2548.55 930.25 2397.31 855.97 2495.64 827.23 2548.55 930.25 2548.55 930.25"/><polygon class="cls-10" points="2549.55 706.22 2495.64 827.23 2548.55 930.25 2549.55 706.22"/><polygon class="cls-10" points="2499.54 736.45 2495.64 827.23 2397.31 855.97 2499.54 736.45"/><polygon class="cls-9" points="2548.55 706.94 2499.54 736.45 2495.64 827.23 2549.55 706.22 2548.55 706.94"/><polygon class="cls-9" points="2365.89 784.9 2397.31 855.97 2499.54 736.45 2365.89 784.9"/><polygon class="cls-10" points="2279.01 699.14 2365.89 784.9 2499.54 736.45 2279.01 699.14"/><polygon class="cls-9" points="2237.24 878.74 2279.01 699.14 2365.89 784.9 2237.24 878.74"/><polygon class="cls-9" points="2207.72 742.02 2237.24 878.74 2279.01 699.14 2207.72 742.02"/><polygon class="cls-9" points="2089.66 814.42 2133.75 721.42 2237.24 878.74 2089.66 814.42"/><polygon class="cls-9" points="2013.37 664.61 2032.86 750.93 1933.73 730.33 2013.37 664.61"/><polygon class="cls-10" points="1978.28 889.88 2032.86 750.93 2089.66 814.42 1978.28 889.88"/><polygon class="cls-9" points="2133.75 721.42 2032.86 750.93 2089.66 814.42 2133.75 721.42"/><polygon class="cls-9" points="1851.87 680.48 1933.73 730.33 1902.01 817.11 1851.87 680.48"/><polygon class="cls-9" points="1757.75 767.08 1806.76 848.39 1851.87 680.48 1757.75 767.08"/><polygon class="cls-10" points="1806.76 848.39 1851.87 680.48 1902.01 817.11 1806.76 848.39"/><polygon class="cls-9" points="1762.92 898.98 1757.75 767.08 1806.76 848.39 1762.92 898.98"/><polygon class="cls-10" points="1762.92 898.98 1674.65 773.72 1757.75 767.08 1762.92 898.98"/><polygon class="cls-9" points="1851.87 680.48 1674.65 773.72 1757.75 767.08 1851.87 680.48"/><polygon class="cls-27" points="1806.71 848.39 1953.28 800.27 1929.25 927.06 1806.71 848.39"/><polygon class="cls-28" points="1784.03 974.26 1872.2 1009.44 1806.71 848.39 1784.03 974.26"/><polygon class="cls-29" points="1872.2 1009.44 1806.71 848.39 1929.25 927.06 1872.2 1009.44"/><polygon class="cls-8" points="1865.15 1109.83 1784.03 974.26 1872.2 1009.44 1865.15 1109.83"/><polygon class="cls-30" points="1865.15 1109.83 1716.81 950.23 1784.03 974.26 1865.15 1109.83"/><polygon class="cls-31" points="1806.71 848.39 1716.81 950.23 1784.03 974.26 1806.71 848.39"/><polygon class="cls-10" points="1806.71 848.39 1953.28 800.27 1929.25 927.06 1806.71 848.39"/><polygon class="cls-26" points="1784.03 974.26 1872.2 1009.44 1806.71 848.39 1784.03 974.26"/><polygon class="cls-9" points="1784.03 974.26 1872.2 1009.44 1806.71 848.39 1784.03 974.26"/><polygon class="cls-9" points="1872.2 1009.44 1806.71 848.39 1929.25 927.06 1872.2 1009.44"/><polygon class="cls-10" points="1865.15 1109.83 1784.03 974.26 1872.2 1009.44 1865.15 1109.83"/><polygon class="cls-9" points="1865.15 1109.83 1716.81 950.23 1784.03 974.26 1865.15 1109.83"/><polygon class="cls-10" points="1806.71 848.39 1716.81 950.23 1784.03 974.26 1806.71 848.39"/><polygon class="cls-9" points="1933.73 730.33 1978.28 889.88 2032.86 750.93 1933.73 730.33"/><polygon class="cls-9" points="2133.75 721.42 2237.24 878.74 2207.72 742.02 2133.75 721.42"/><polygon class="cls-32" points="2804.31 816.21 2659.58 728.72 2760.92 708.83 2804.31 816.21"/><polygon class="cls-8" points="2772.99 618.77 2760.92 708.83 2659.58 728.72 2772.99 618.77"/><polygon class="cls-33" points="2635.51 654.96 2659.58 728.72 2772.99 618.77 2635.51 654.96"/><polygon class="cls-34" points="2556.73 561.71 2635.51 654.96 2772.99 618.77 2556.73 561.71"/><polygon class="cls-35" points="2499.54 736.45 2556.73 561.71 2635.51 654.96 2499.54 736.45"/><polygon class="cls-36" points="2453.27 581.89 2499.54 736.45 2556.73 561.71 2453.27 581.89"/><polygon class="cls-8" points="2327.57 1053.5 2304.08 951.53 2447.66 969.28 2327.57 1053.5"/><polygon class="cls-8" points="2365.88 784.9 2304.08 951.53 2237.24 878.74 2365.88 784.9"/><polygon class="cls-37" points="2188.38 989.41 2304.08 951.53 2237.24 878.74 2188.38 989.41"/><polygon class="cls-38" points="2108.6 1258.37 2029.06 1214.78 2058.45 1121.58 2108.6 1258.37"/><polygon class="cls-39" points="2198.08 1159.31 2149.76 1079.85 2108.6 1258.37 2198.08 1159.31"/><polygon class="cls-40" points="2149.76 1079.85 2108.6 1258.37 2058.45 1121.58 2149.76 1079.85"/><polygon class="cls-8" points="2188.51 987.82 2198.08 1159.31 2149.76 1079.85 2188.51 987.82"/><polygon class="cls-41" points="2188.51 987.82 2283.56 1177.21 2198.08 1159.31 2188.51 987.82"/><polygon class="cls-42" points="2108.6 1258.37 2283.56 1177.21 2198.08 1159.31 2108.6 1258.37"/><polygon class="cls-43" points="2447.66 969.28 2365.88 784.9 2304.08 951.53 2447.66 969.28"/><polygon class="cls-9" points="2804.31 816.21 2659.58 728.72 2760.92 708.83 2804.31 816.21"/><polygon class="cls-10" points="2772.99 618.77 2760.92 708.83 2659.58 728.72 2772.99 618.77"/><polygon class="cls-9" points="2635.51 654.97 2659.58 728.72 2772.99 618.77 2635.51 654.97"/><polygon class="cls-26" points="2556.73 561.71 2635.51 654.97 2772.99 618.77 2556.73 561.71"/><polygon class="cls-9" points="2556.73 561.71 2635.51 654.97 2772.99 618.77 2556.73 561.71"/><polygon class="cls-10" points="2499.54 736.45 2556.73 561.71 2635.51 654.97 2499.54 736.45"/><polygon class="cls-9" points="2453.27 581.89 2499.54 736.45 2556.73 561.71 2453.27 581.89"/><polygon class="cls-44" points="2499.54 736.45 2279.01 699.14 2393.71 625.86 2499.54 736.45 2499.54 736.45"/><polygon class="cls-45" points="2416.2 455.12 2393.71 625.86 2499.54 736.45 2416.2 455.12"/><polygon class="cls-8" points="2365.32 510.23 2393.71 625.86 2279.01 699.14 2365.32 510.23"/><polygon class="cls-46" points="2416.15 455.12 2365.32 510.23 2393.71 625.86 2416.2 455.12 2416.15 455.12"/><polygon class="cls-47" points="2186.28 655.94 2279.01 699.14 2365.32 510.23 2186.28 655.94"/><polygon class="cls-48" points="2133.75 721.41 2095.23 606.75 2186.28 655.94 2133.75 721.41"/><polygon class="cls-49" points="2047.39 658.56 2133.75 721.41 2095.23 606.75 2047.39 658.56"/><polygon class="cls-26" points="2499.54 736.45 2279.01 699.14 2393.71 625.86 2499.54 736.45 2499.54 736.45"/><polygon class="cls-9" points="2499.54 736.45 2279.01 699.14 2393.71 625.86 2499.54 736.45 2499.54 736.45"/><polygon class="cls-9" points="2416.2 455.12 2393.71 625.86 2499.54 736.45 2416.2 455.12"/><polygon class="cls-9" points="2365.32 510.23 2393.71 625.86 2279.01 699.14 2365.32 510.23"/><polygon class="cls-10" points="2416.16 455.13 2365.32 510.23 2393.71 625.86 2416.2 455.12 2416.16 455.13"/><polygon class="cls-9" points="2186.28 655.94 2279.01 699.14 2365.32 510.23 2186.28 655.94"/><polygon class="cls-10" points="2133.75 721.41 2095.23 606.75 2186.28 655.94 2133.75 721.41"/><polygon class="cls-9" points="2047.39 658.56 2133.75 721.41 2095.23 606.75 2047.39 658.56"/><polygon class="cls-26" points="2327.58 1053.5 2304.08 951.53 2447.66 969.28 2327.58 1053.5"/><polygon class="cls-9" points="2327.58 1053.5 2304.08 951.53 2447.66 969.28 2327.58 1053.5"/><polygon class="cls-10" points="2365.89 784.9 2304.08 951.53 2237.24 878.74 2365.89 784.9"/><polygon class="cls-9" points="2188.38 989.4 2304.08 951.53 2237.24 878.74 2188.38 989.4"/><polygon class="cls-9" points="2108.6 1258.37 2029.06 1214.78 2058.45 1121.58 2108.6 1258.37"/><polygon class="cls-9" points="2198.08 1159.31 2149.76 1079.85 2108.6 1258.37 2198.08 1159.31"/><polygon class="cls-10" points="2149.76 1079.85 2108.6 1258.37 2058.45 1121.58 2149.76 1079.85"/><polygon class="cls-9" points="2188.51 987.82 2198.08 1159.31 2149.76 1079.85 2188.51 987.82"/><polygon class="cls-10" points="2188.51 987.82 2283.56 1177.21 2198.08 1159.31 2188.51 987.82"/><polygon class="cls-9" points="2108.6 1258.37 2283.56 1177.21 2198.08 1159.31 2108.6 1258.37"/><polygon class="cls-50" points="2149.8 1079.85 2009.34 1144.15 2030.69 1010.38 2149.8 1079.85"/><polygon class="cls-51" points="2169.93 947.12 2084.51 919.34 2149.8 1079.85 2169.93 947.12"/><polygon class="cls-52" points="2084.51 919.34 2149.8 1079.85 2030.69 1010.38 2084.51 919.34"/><polygon class="cls-8" points="2089.66 814.42 2169.93 947.12 2084.51 919.34 2089.66 814.42"/><polygon class="cls-53" points="2089.66 814.42 2089.66 814.42 2214.77 929.93 2169.93 947.12 2089.66 814.42"/><polygon class="cls-54" points="2149.8 1079.85 2214.77 929.93 2169.93 947.12 2149.8 1079.85"/><polygon class="cls-26" points="2149.8 1079.84 2009.34 1144.15 2030.69 1010.38 2149.8 1079.84"/><polygon class="cls-9" points="2149.8 1079.84 2009.34 1144.15 2030.69 1010.38 2149.8 1079.84"/><polygon class="cls-26" points="2169.93 947.12 2084.51 919.34 2149.8 1079.84 2169.93 947.12"/><polygon class="cls-9" points="2169.93 947.12 2084.51 919.34 2149.8 1079.84 2169.93 947.12"/><polygon class="cls-9" points="2084.51 919.34 2149.8 1079.84 2030.69 1010.38 2084.51 919.34"/><polygon class="cls-9" points="2089.66 814.42 2169.93 947.12 2084.51 919.34 2089.66 814.42"/><polygon class="cls-9" points="2089.66 814.42 2089.66 814.42 2214.77 929.93 2169.93 947.12 2089.66 814.42"/><polygon class="cls-10" points="2149.8 1079.84 2214.77 929.93 2169.93 947.12 2149.8 1079.84"/><polygon class="cls-9" points="2447.66 969.28 2365.89 784.9 2304.08 951.53 2447.66 969.28"/></g><rect class="cls-1" x="1" y="573.37" width="1366" height="13"/><rect class="cls-55" x="505.5" y="628.87" width="862.5" height="612.5"/><text class="cls-56" transform="translate(824 806.37)">Premios</text><text class="cls-57" transform="translate(546.48 928.37)">Juan Pérez</text><text class="cls-58" transform="translate(39 845.37)">P<tspan class="cls-59" x="26.46" y="0">r</tspan><tspan x="43.52" y="0">emio de Carte</tspan><tspan class="cls-60" x="340.57" y="0">r</tspan><tspan x="357.05" y="0">a</tspan></text><text class="cls-61" transform="translate(112 901.37)">N. participantes</text><text class="cls-62" transform="translate(32.31 965.37)">p<tspan class="cls-59" x="16.58" y="0">r</tspan><tspan x="27.25" y="0">emio de 500 $ ent</tspan><tspan class="cls-59" x="269.31" y="0">r</tspan><tspan x="279.98" y="0">egado a los </tspan><tspan x="-18.45" y="36">mejo</tspan><tspan class="cls-59" x="47.28" y="36">r</tspan><tspan x="57.94" y="36">es colabo</tspan><tspan class="cls-60" x="182.1" y="36">r</tspan><tspan x="192.4" y="36">ado</tspan><tspan class="cls-59" x="241.02" y="36">r</tspan><tspan x="251.68" y="36">es en la ciudad </tspan><tspan x="164.22" y="72">de Qu</tspan><tspan class="cls-63" x="243.92" y="72">i</tspan><tspan x="250.83" y="72">to</tspan></text><text class="cls-64" transform="translate(607.98 883.37)">P<tspan class="cls-59" x="16.54" y="0">r</tspan><tspan x="27.2" y="0">emio 1</tspan></text><polygon class="cls-65" points="901.94 699.08 867.5 749.19 886 743.37 889.29 760.09 924.09 717.64 901.94 699.08"/><polygon class="cls-65" points="922.46 700.52 957.47 750.23 938 744.37 935.8 761.37 900.52 719.33 922.46 700.52"/><circle class="cls-66" cx="916" cy="697.37" r="45"/><path class="cls-67" d="M926.07,204.31a269.83,269.83,0,0,0-32,38.17h0a297.33,297.33,0,0,1,55.33-38.36v0q-11.65-.45-23.32.21" transform="translate(2 476.37)"/><path class="cls-1" d="M887.09,250.18h0a260.9,260.9,0,0,1,36.13-47.08c-1.67-4.33-5.12-13-5.12-13a138.44,138.44,0,0,0-12.69,17,152.1,152.1,0,0,0-21.77,6.61s9,6.09,13.38,9.23c-3.73,8.62-9.6,26.16-9.94,27.22m49.16-2.47h0q-3.79-14.13-7.52-28.29-9.18,5.94-18,12.47,12.86,7.71,25.48,15.83" transform="translate(2 476.37)"/><path class="cls-1" d="M120.05,58.62H120a6.94,6.94,0,0,1-6.29,3.76c-5.12,0-7.06-3.66-5-13.14,1.68-7.9,4-13.58,10.26-13.58,2.11,0,4.26.71,5,3.43h.09l2.32-10.89h7.61l-7.13,33.52H119.4Zm.8-17.41c-2.77,0-3.56,3-4.54,7.65-.87,4.08-1.6,8,1.26,8,2.25,0,3.3-2.72,4.35-7.65,1-4.51,1.51-8-1.07-8" transform="translate(2 476.37)"/><path class="cls-1" d="M150.66,61.72h-7.32l.64-3h-.1A8.32,8.32,0,0,1,137,62.38c-4.32,0-6.16-2.16-5.12-7l4-19h7.61l-3.68,17.33c-.4,1.83.18,2.91,1.58,2.91s3-1.13,3.49-3.62l3.54-16.62h7.6Z" transform="translate(2 476.37)"/><path class="cls-1" d="M161.59,28.2h7.61l-2.32,10.89h.1a7.37,7.37,0,0,1,6.41-3.43c6.24,0,6.16,5.68,4.48,13.58-2,9.48-5.52,13.14-10.63,13.14-3.38,0-4.5-2-4.7-3.76h-.09l-.66,3.1h-7.32Zm4.1,28.64c2.87,0,3.79-3.9,4.66-8,1-4.6,1.48-7.66-1.29-7.66-2.58,0-3.51,3.48-4.47,8-1,4.93-1.15,7.65,1.1,7.65" transform="translate(2 476.37)"/><path class="cls-1" d="M71.85,36.28h7.33l-.76,3.57h.09a8.44,8.44,0,0,1,7-4.23,5.76,5.76,0,0,1,1.2.09L85.2,42.86a9.5,9.5,0,0,0-2.07-.19c-3,0-5.3,1.26-6,4.6L74.06,61.69H66.45Z" transform="translate(2 476.37)"/><path class="cls-1" d="M85.35,49c1.61-7.59,4.53-13.4,13.29-13.4,9.29,0,9.25,5.67,7.63,13.27s-4.53,13.4-13.3,13.4c-9.27,0-9.24-5.67-7.62-13.27m12.29-8.43c-2.26,0-3.38,2.2-4.68,8.34s-1.13,8.39,1.12,8.39,3.26-2.11,4.58-8.34,1.32-8.39-1-8.39" transform="translate(2 476.37)"/><path class="cls-1" d="M49.14,28.18h12.2c8.3,0,8.62,6,7.74,10.19-1.28,6-5,10.23-12.92,10.23H52.68L49.9,61.69H42Zm4.78,14.6h2.16c3.14,0,4.31-2,4.79-4.22C61.42,36,61,34,57.8,34h-2Z" transform="translate(2 476.37)"/><path class="cls-1" d="M249.68,49c1.61-7.59,4.53-13.4,13.29-13.4,9.29,0,9.25,5.67,7.63,13.27s-4.53,13.4-13.3,13.4c-9.27,0-9.24-5.67-7.62-13.27M262,40.59c-2.25,0-3.37,2.2-4.67,8.34s-1.13,8.39,1.11,8.39S261.67,55.21,263,49s1.32-8.39-1-8.39" transform="translate(2 476.37)"/><path class="cls-1" d="M220.48,35.6a8.34,8.34,0,0,0-6.89,3.67h-.1l.65-3H206.8l-5.41,25.43H209l3.54-16.64c.53-2.49,2-3.62,3.49-3.62s2,1.09,1.59,2.92L214,61.69h7.62l4-19c1-4.88-.81-7-5.13-7" transform="translate(2 476.37)"/><path class="cls-1" d="M194,35.68c-3.15,0-5.4.42-7.44,1.64s-3.52,3.34-4.3,6.81H189c.51-2.21,1.39-3.47,3.5-3.47,1.69,0,2.19,1,1.86,2.53-.41,1.92-.92,2.3-3.34,2.91-2.24.56-5.15,1-7.25,2.07a9.36,9.36,0,0,0-4.48,6.47c-1.17,5.5.85,7.76,5.12,7.76a8.27,8.27,0,0,0,6.72-3.58h.1a10.89,10.89,0,0,0-.2,2.92h7.33c-.67-1.13-.14-3.57.27-5.49l2.77-13.06c1.14-5.35-1.17-7.51-7.42-7.51m-1.9,18c-.53,2.54-2.19,3.47-3.79,3.47-1.4,0-1.94-1.22-1.51-3.24a4,4,0,0,1,1.76-2.81c.83-.57,1.88-.61,4.54-1.88-.22,1-.55,2.35-1,4.46" transform="translate(2 476.37)"/><path class="cls-1" d="M241.21,45.87c.79-3.7.28-5.26-1.74-5.26-2.53,0-3.53,3.2-4.64,8.41-1.22,5.72-1.45,8.35,1.08,8.35,2.25,0,3.1-1.55,4.14-6h7c-1.71,7.84-5.48,11-12.38,11-9.57,0-8.89-6.7-7.29-14.26,1.51-7.14,4.71-12.44,13-12.44,8,0,9.15,4.18,7.86,10.23Z" transform="translate(2 476.37)"/><path class="cls-1" d="M42.46,77.31H44l-.26,1.19a2.24,2.24,0,0,1-1.85,1.87c-1.36,0-1.25-1.77-.65-4.59s1.33-4.09,2.48-4.09c.94,0,1.11,1.1.92,2h2.26c.51-2.37-.26-3.69-2.85-3.69-3,0-4.36,2-5.19,5.94s-.75,6.2,2.15,6.2a3.32,3.32,0,0,0,2.74-1.31h0l-.23,1.09H45.3l1.35-6.31H42.83Zm10.69-4.44a2.69,2.69,0,0,0-.4,0,3,3,0,0,0-2.33,1.4h0l.25-1.17H48.47L46.6,81.88h2.26L50,76.59A2,2,0,0,1,52,75l.7,0Zm5.36.2-1.25,5.84c-.2,1-.74,1.46-1.5,1.46s-.89-.34-.71-1.23l1.29-6.07H54.08L52.7,79.6c-.37,1.73.3,2.5,1.71,2.5a3.06,3.06,0,0,0,2.51-1.26h0l-.22,1h2.16l1.87-8.81Zm8-.23A2.69,2.69,0,0,0,64.27,74h0l.2-.93H62.27L59.79,84.75H62l.79-3.7h0a1.64,1.64,0,0,0,1.66,1c1.86,0,3-1.36,3.7-4.63s.13-4.63-1.72-4.63M66,77.47c-.41,1.92-.82,2.9-1.8,2.9s-1-1-.57-2.9.81-2.91,1.81-2.91,1,1,.56,2.91m7.71-4.63c-2.58,0-3.82,1.61-4.45,4.63S69,82.15,71.71,82.1s3.82-1.62,4.46-4.63.24-4.68-2.49-4.63m.22,4.63c-.46,2.19-1,3.09-1.86,3.09-1.11,0-.94-1.29-.56-3.09s.76-3.09,1.88-3.09c.91,0,1,.9.54,3.09m13.35-7.29H83.12l-2.48,11.7H83l1-4.67h1.26a4.18,4.18,0,0,0,4.46-3.52c.37-1.75-.07-3.51-2.46-3.51m0,3.69a1.94,1.94,0,0,1-1.95,1.75h-1L85,72.07h1c1.18,0,1.5.65,1.26,1.8m8.21-1a2.83,2.83,0,0,0-.41,0,3,3,0,0,0-2.33,1.4h0l.25-1.17H90.74l-1.88,8.81h2.27l1.12-5.29a2,2,0,0,1,2-1.59c.24,0,.48,0,.7,0Zm4,0c-2.58,0-3.81,1.61-4.45,4.63s-.24,4.68,2.48,4.63,3.82-1.62,4.47-4.63.23-4.68-2.5-4.63m.23,4.63c-.47,2.19-1,3.09-1.87,3.09-1.11,0-.93-1.29-.55-3.09s.75-3.09,1.87-3.09c.92,0,1,.9.55,3.09m13.17-4.63a2.8,2.8,0,0,0-2.53,1.4h0c-.06-.89-.7-1.4-1.73-1.4A3.15,3.15,0,0,0,106.05,74h0l.19-.9h-2.16l-1.87,8.81h2.25l1.23-5.8c.22-1,.78-1.52,1.51-1.52s.79.43.64,1.16l-1.31,6.16h2.26l1.23-5.8c.21-1,.78-1.52,1.5-1.52s.79.43.64,1.16l-1.31,6.16h2.25l1.36-6.41c.37-1.7-.13-2.63-1.62-2.63m6.87,0c-3.05,0-4,2.19-4.47,4.54s-.87,4.72,2.41,4.72a3.71,3.71,0,0,0,3.87-3.19h-2c-.37,1.09-.8,1.65-1.56,1.65s-.89-1-.67-2l.15-.71h4.47l.11-.5c.57-2.71.36-4.47-2.28-4.47m.29,3.63h-2.3l.06-.34c.18-.82.64-1.75,1.54-1.75s.94.75.7,2.09m8.74-3.6a2.69,2.69,0,0,0-.4,0,3,3,0,0,0-2.33,1.4h0l.26-1.17H124l-1.88,8.81h2.26l1.13-5.29a2,2,0,0,1,2-1.59l.71,0Zm3.76-2.82h-2.26L129.8,72h2.26Zm-4.78,11.83H130l1.88-8.81h-2.26Zm11.45-5.64c.44-2.07-.36-3.4-2.43-3.4s-3.79,1-4.56,4.63.13,4.63,2.39,4.63,3.63-1.29,4.11-3.6H136.5c-.3,1.43-.78,2.06-1.54,2.06-1,0-1-.9-.55-3.07s.82-3,1.93-3c.85,0,.82.92.64,1.77Zm5-3.4a3.36,3.36,0,0,0-3.67,2.71l0,.22h2l.05-.25a1.28,1.28,0,0,1,1.28-1.14c.76,0,1,.41.82,1.08s-.4.85-1.12,1l-1.34.35a3.22,3.22,0,0,0-2.82,2.75c-.25,1.18,0,2.52,1.59,2.52A2.7,2.7,0,0,0,143.39,81h0a3.57,3.57,0,0,0,.07.92h2.17a3.41,3.41,0,0,1,.08-1.71l1-4.63c.34-1.59.06-2.7-2.62-2.7m-.32,6.37a1.73,1.73,0,0,1-1.68,1.35c-.61,0-.74-.55-.59-1.22a1.71,1.71,0,0,1,1.57-1.42,3.47,3.47,0,0,0,1.06-.45Z" transform="translate(2 476.37)"/><path class="cls-67" d="M329,25.84a285.43,285.43,0,0,0-33.87,40.38h0a315.12,315.12,0,0,1,58.54-40.58v0c-8.22-.31-16.46-.25-24.67.22" transform="translate(2 476.37)"/><path class="cls-1" d="M287.71,74.36h0a275.84,275.84,0,0,1,38.22-49.79c-1.77-4.59-5.41-13.75-5.41-13.75a146.41,146.41,0,0,0-13.43,18,161.07,161.07,0,0,0-23,7s9.49,6.45,14.15,9.77c-4,9.12-10.15,27.68-10.52,28.79m52-2.6h0q-4-15-8-29.93-9.72,6.28-19,13.19,13.61,8.16,26.95,16.75" transform="translate(2 476.37)"/><path class="cls-1" d="M457.87,70h3.56l.45,12.11h-3l.06-2.31h-2.9l-.92,2.31h-3Zm1.26,2.21h0L457,77.6H459Z" transform="translate(2 476.37)"/><path class="cls-1" d="M464.3,73H467L466.71,74h0a3.06,3.06,0,0,1,2.49-1.32c1.56,0,2.22.78,1.85,2.54l-1.46,6.87h-2.74l1.32-6.26c.15-.66-.05-1-.56-1s-1.07.41-1.27,1.31l-1.27,6h-2.75Zm7.1-3.33c-.29,1-1,2.31-2.18,2.31-.83,0-1.46-.51-1.9-.51a.73.73,0,0,0-.6.51h-1.3a4.23,4.23,0,0,1,.8-1.6,1.72,1.72,0,0,1,1.29-.71,2.39,2.39,0,0,1,1.08.26,2.54,2.54,0,0,0,.81.25.65.65,0,0,0,.65-.51Z" transform="translate(2 476.37)"/><path class="cls-1" d="M471.49,77.56c.59-2.75,1.65-4.85,4.82-4.85,3.35,0,3.34,2.05,2.76,4.8s-1.64,4.84-4.82,4.84c-3.35,0-3.33-2-2.76-4.79m4.44-3.06c-.81,0-1.22.8-1.68,3s-.4,3,.41,3,1.17-.77,1.65-3,.47-3-.38-3" transform="translate(2 476.37)"/><path class="cls-1" d="M481.72,79.2a2.16,2.16,0,0,0,0,1c.09.26.31.43.75.43a1.16,1.16,0,0,0,1.18-.93c.09-.43,0-.84-.81-1.12-2.09-.77-3.08-1.21-2.68-3.14s1.88-2.76,4.09-2.76c2.57,0,3.05,1.25,2.78,2.57l-.07.31h-2.44l0-.17c.17-.8-.1-1-.68-1a1,1,0,0,0-1.11.85c-.35,1.63,4.27.54,3.52,4.1-.41,1.85-1.88,3-4.15,3-2.46,0-3.29-.91-2.92-2.74l.1-.41Z" transform="translate(2 476.37)"/><path class="cls-1" d="M407.54,54.86H397.49v5.51h12Z" transform="translate(2 476.37)"/><path class="cls-67" d="M428.42,25.67c-7.87-2.07-16.85,6.06-20,18.11a29.71,29.71,0,0,0,.06,16.38c1.59,4.92,4.61,8.19,8.49,9.21a9.63,9.63,0,0,0,2.5.32c7.18,0,14.67-7.64,17.5-18.43C440.12,39.22,436.29,27.74,428.42,25.67Zm3.36,24.24c-2.25,8.57-8.79,15.53-13.47,14.3s-7-10.49-4.71-19.07c2.07-7.92,7.8-14.45,12.35-14.45a4.56,4.56,0,0,1,1.11.14C431.74,32.06,434,41.33,431.78,49.91Z" transform="translate(2 476.37)"/><path class="cls-67" d="M398.88,70.06h-5.34L403,25.59h5.72Z" transform="translate(2 476.37)"/><polygon class="cls-1" points="402.59 513.2 405.01 501.96 380.66 528.67 380.66 536.75 397.6 536.75 398.77 531.23 386.16 531.23 386.16 530.78 402.59 513.2"/><path class="cls-67" d="M413.71,57.61c9.61,1.31,20,1.74,29-2.43,4.22-2,6.94-5.11,10.46-8,6.64-5.45,10.66-4.88,15.75.83,3.83,4.31,7.16,11.64,13.08,13.48,4.77,1.48,9.64-1.13,13.24-4,.9-.74-3.26-.24-4.12.46-9.45,7.66-16.9-15.17-25.91-17-3.5-.72-7.41.47-10.43,2.2-3.55,2-6.16,5.23-9.23,7.86-8,6.82-18.45,6.15-28.1,4.84-1.07-.15-4.92,1.66-3.73,1.82" transform="translate(2 476.37)"/><path class="cls-1" d="M494.76,42.59c-7-1.32-13.7-2.66-20.64-.52s-12.34,7.72-16.49,13.41c-2,2.75-4,5.79-6.9,7.69s-6.07.27-8.67-1.06c-4.36-2.22-7.92-4.83-14.46-6.17v0l-.76-.1a53.92,53.92,0,0,0-10.95-.73h0c-.94,0-1.89,0-2.86,0h-.09a17.94,17.94,0,0,0,1.36,5s8.63-1.3,13.21-.34a86.51,86.51,0,0,1,16.88,7c2.27,1.16,4.56,2,7.13,1.63,3.35-.54,5.84-4.52,7.69-7,4.26-5.68,8.6-10.75,15.14-13.9,7.25-3.49,15.07-1.8,22.58-.38C497.75,47.28,496.15,42.85,494.76,42.59Z" transform="translate(2 476.37)"/><rect class="cls-68" x="367.5" y="507.94" width="1.28" height="28.26"/><polygon class="cls-1" points="572.52 510.44 564.62 510.44 564.62 536.66 561.88 536.66 561.88 510.44 553.99 510.44 553.99 507.31 572.52 507.31 572.52 510.44"/><polygon class="cls-69" points="572.52 510.44 564.62 510.44 564.62 536.66 561.88 536.66 561.88 510.44 553.99 510.44 553.99 507.31 572.52 507.31 572.52 510.44"/><path class="cls-1" d="M584.76,60.29h-3.14l-3.68-6.55h-7v6.55h-2.74V42.45h11.35A4.47,4.47,0,0,1,583.14,44a6.12,6.12,0,0,1,1.32,4.12q0,4.44-3.49,5.42Zm-5.59-9.69a2.17,2.17,0,0,0,2.48-2.43A2.31,2.31,0,0,0,579,45.59h-8v5Z" transform="translate(2 476.37)"/><path class="cls-69" d="M584.76,60.29h-3.14l-3.68-6.55h-7v6.55h-2.74V42.45h11.35A4.47,4.47,0,0,1,583.14,44a6.12,6.12,0,0,1,1.32,4.12q0,4.44-3.49,5.42Zm-5.59-9.69a2.17,2.17,0,0,0,2.48-2.43A2.31,2.31,0,0,0,579,45.59h-8v5Z" transform="translate(2 476.37)"/><path class="cls-1" d="M605.24,60.29h-3l-1.61-3.83h-9.44l-1.62,3.83h-3l7.65-17.84h3.4Zm-6-7-3.34-7.9-3.36,7.9Z" transform="translate(2 476.37)"/><path class="cls-69" d="M605.24,60.29h-3l-1.61-3.83h-9.44l-1.62,3.83h-3l7.65-17.84h3.4Zm-6-7-3.34-7.9-3.36,7.9Z" transform="translate(2 476.37)"/><polygon class="cls-1" points="628.82 536.66 626.08 536.66 626.01 521.99 618.96 534.14 611.93 521.87 611.86 521.99 611.86 536.66 609.12 536.66 609.12 518.83 613.23 518.83 618.96 528.91 624.7 518.83 628.82 518.83 628.82 536.66"/><polygon class="cls-69" points="628.82 536.66 626.08 536.66 626.01 521.99 618.96 534.14 611.93 521.87 611.86 521.99 611.86 536.66 609.12 536.66 609.12 518.83 613.23 518.83 618.96 528.91 624.7 518.83 628.82 518.83 628.82 536.66"/><rect class="cls-1" x="631.99" y="518.83" width="2.74" height="17.84"/><rect class="cls-69" x="631.99" y="518.83" width="2.74" height="17.84"/><polygon class="cls-1" points="653.86 521.96 647.15 521.96 647.15 536.66 644.41 536.66 644.41 521.96 637.7 521.96 637.7 518.83 653.86 518.83 653.86 521.96"/><polygon class="cls-69" points="653.86 521.96 647.15 521.96 647.15 536.66 644.41 536.66 644.41 521.96 637.7 521.96 637.7 518.83 653.86 518.83 653.86 521.96"/><polygon class="cls-1" points="671.13 536.66 656.01 536.66 656.01 518.83 670.6 518.83 670.6 521.96 658.75 521.96 658.75 525.82 667 525.82 667 528.95 658.75 528.95 658.75 533.53 671.13 533.53 671.13 536.66"/><polygon class="cls-69" points="671.13 536.66 656.01 536.66 656.01 518.83 670.6 518.83 670.6 521.96 658.75 521.96 658.75 525.82 667 525.82 667 528.95 658.75 528.95 658.75 533.53 671.13 533.53 671.13 536.66"/><path class="cls-1" d="M685.38,46.86a10.58,10.58,0,0,0-6-1.82q-4.68,0-4.68,2.11c0,.83.59,1.38,1.76,1.63,1.6.17,3.2.36,4.8.55a10.4,10.4,0,0,1,4.9,1.56,4.51,4.51,0,0,1,1.62,3.8,5.29,5.29,0,0,1-2,4.44A9.47,9.47,0,0,1,680,60.7a11.91,11.91,0,0,1-8.65-3.14l1.48-2.46a10.33,10.33,0,0,0,7.12,2.58,7.31,7.31,0,0,0,3.68-.77,2.29,2.29,0,0,0,1.3-2,2.05,2.05,0,0,0-1.6-2,10.49,10.49,0,0,0-2.76-.44c-1.95-.12-3.14-.2-3.58-.26a7,7,0,0,1-3.84-1.42,4.11,4.11,0,0,1-1.23-3.22,4.81,4.81,0,0,1,2-4.05A9.06,9.06,0,0,1,679.38,42a11.16,11.16,0,0,1,7.69,2.61Z" transform="translate(2 476.37)"/><path class="cls-69" d="M685.38,46.86a10.58,10.58,0,0,0-6-1.82q-4.68,0-4.68,2.11c0,.83.59,1.38,1.76,1.63,1.6.17,3.2.36,4.8.55a10.4,10.4,0,0,1,4.9,1.56,4.51,4.51,0,0,1,1.62,3.8,5.29,5.29,0,0,1-2,4.44A9.47,9.47,0,0,1,680,60.7a11.91,11.91,0,0,1-8.65-3.14l1.48-2.46a10.33,10.33,0,0,0,7.12,2.58,7.31,7.31,0,0,0,3.68-.77,2.29,2.29,0,0,0,1.3-2,2.05,2.05,0,0,0-1.6-2,10.49,10.49,0,0,0-2.76-.44c-1.95-.12-3.14-.2-3.58-.26a7,7,0,0,1-3.84-1.42,4.11,4.11,0,0,1-1.23-3.22,4.81,4.81,0,0,1,2-4.05A9.06,9.06,0,0,1,679.38,42a11.16,11.16,0,0,1,7.69,2.61Z" transform="translate(2 476.37)"/><rect class="cls-1" x="636.5" y="507.44" width="53.57" height="2.95"/><rect class="cls-69" x="636.5" y="507.44" width="53.78" height="2.95"/><path class="cls-67" d="M586.76,20.21a4.56,4.56,0,0,1,3.67,1.61,6.55,6.55,0,0,1,1.36,4.33,6.11,6.11,0,0,1-1.41,4.34,5.36,5.36,0,0,1-4.1,1.49h-9v7.26h-2.5v-19Zm-.44,8.94c1.94,0,2.9-1,2.9-2.95s-1-3.15-3.06-3.15h-8.87v6.1Z" transform="translate(2 476.37)"/><path class="cls-70" d="M586.76,20.21a4.56,4.56,0,0,1,3.67,1.61,6.55,6.55,0,0,1,1.36,4.33,6.11,6.11,0,0,1-1.41,4.34,5.36,5.36,0,0,1-4.1,1.49h-9v7.26h-2.5v-19Zm-.44,8.94c1.94,0,2.9-1,2.9-2.95s-1-3.15-3.06-3.15h-8.87v6.1Z" transform="translate(2 476.37)"/><path class="cls-67" d="M609.43,39.24h-2.87L603.2,33.3h-6.37v5.94h-2.5V23.07h10.36a4.1,4.1,0,0,1,3.26,1.4,5.5,5.5,0,0,1,1.21,3.73c0,2.68-1.07,4.32-3.19,4.92Zm-5.11-8.78a2,2,0,0,0,2.27-2.21c0-1.56-.8-2.34-2.42-2.34h-7.34v4.55Z" transform="translate(2 476.37)"/><path class="cls-70" d="M609.43,39.24h-2.87L603.2,33.3h-6.37v5.94h-2.5V23.07h10.36a4.1,4.1,0,0,1,3.26,1.4,5.5,5.5,0,0,1,1.21,3.73c0,2.68-1.07,4.32-3.19,4.92Zm-5.11-8.78a2,2,0,0,0,2.27-2.21c0-1.56-.8-2.34-2.42-2.34h-7.34v4.55Z" transform="translate(2 476.37)"/><path class="cls-67" d="M629.07,31.12a8.42,8.42,0,0,1-2.69,6.46,8.81,8.81,0,0,1-11.49,0,8.36,8.36,0,0,1-2.69-6.46,8.34,8.34,0,0,1,8.45-8.6,8.18,8.18,0,0,1,5.71,2.18,8.34,8.34,0,0,1,2.71,6.42m-2.61,0A5.56,5.56,0,0,0,624.83,27a5.67,5.67,0,0,0-4.19-1.62A5.76,5.76,0,0,0,616.4,27a5.58,5.58,0,0,0-1.64,4.11,5.62,5.62,0,0,0,1.61,4.18,5.83,5.83,0,0,0,4.27,1.59,5.75,5.75,0,0,0,4.23-1.59,5.65,5.65,0,0,0,1.59-4.18" transform="translate(2 476.37)"/><path class="cls-70" d="M629.07,31.12a8.42,8.42,0,0,1-2.69,6.46,8.81,8.81,0,0,1-11.49,0,8.36,8.36,0,0,1-2.69-6.46,8.34,8.34,0,0,1,8.45-8.6,8.18,8.18,0,0,1,5.71,2.18A8.34,8.34,0,0,1,629.07,31.12Zm-2.61,0A5.56,5.56,0,0,0,624.83,27a5.67,5.67,0,0,0-4.19-1.62A5.76,5.76,0,0,0,616.4,27a5.58,5.58,0,0,0-1.64,4.11,5.62,5.62,0,0,0,1.61,4.18,5.83,5.83,0,0,0,4.27,1.59,5.75,5.75,0,0,0,4.23-1.59A5.65,5.65,0,0,0,626.46,31.1Z" transform="translate(2 476.37)"/><rect class="cls-1" x="553.24" y="542.13" width="137.25" height="9.61"/><path class="cls-8" d="M558.07,68.54v.59h-1.58v4.36h-.65V69.13h-1.58v-.59Z" transform="translate(2 476.37)"/><path class="cls-8" d="M559.72,68.54h2.14a2,2,0,0,1,.87.16,1.17,1.17,0,0,1,.65,1.17,1.34,1.34,0,0,1-.17.73,1.36,1.36,0,0,1-.49.46.91.91,0,0,1,.42.31,1.14,1.14,0,0,1,.15.62l0,.66a3,3,0,0,0,.05.43.43.43,0,0,0,.2.3v.11h-.78a.6.6,0,0,1,0-.16c0-.07,0-.2,0-.4l0-.82a.68.68,0,0,0-.33-.65,1.33,1.33,0,0,0-.56-.09h-1.41v2.12h-.64Zm2.07,2.27a1.18,1.18,0,0,0,.69-.19.81.81,0,0,0,.26-.68.75.75,0,0,0-.36-.73,1.15,1.15,0,0,0-.51-.1h-1.51v1.7Z" transform="translate(2 476.37)"/><path class="cls-8" d="M566.74,68.54h.72l1.71,4.95h-.7L568,72h-1.85l-.51,1.48H565Zm1.06,2.92-.72-2.19-.76,2.19Z" transform="translate(2 476.37)"/><path class="cls-8" d="M570.72,68.54h.91L573,72.73l1.35-4.19h.9v4.95h-.61V70.57c0-.1,0-.27,0-.51s0-.48,0-.75l-1.35,4.18h-.63l-1.36-4.18v.15c0,.13,0,.31,0,.56s0,.43,0,.55v2.92h-.6Z" transform="translate(2 476.37)"/><path class="cls-8" d="M577.33,68.54H578v4.95h-.64Z" transform="translate(2 476.37)"/><path class="cls-8" d="M583.41,68.54v.59h-1.58v4.36h-.65V69.13H579.6v-.59Z" transform="translate(2 476.37)"/><path class="cls-8" d="M585,68.54h3.42v.6h-2.79v1.51h2.58v.57h-2.58V72.9h2.84v.59H585Z" transform="translate(2 476.37)"/><path class="cls-8" d="M590.76,71.89a1.66,1.66,0,0,0,.18.69,1.18,1.18,0,0,0,1.08.49,1.81,1.81,0,0,0,.63-.11.75.75,0,0,0,.55-.75.66.66,0,0,0-.23-.57,2.29,2.29,0,0,0-.74-.3l-.62-.15a2.74,2.74,0,0,1-.86-.33,1,1,0,0,1-.43-.92,1.48,1.48,0,0,1,.43-1.1,1.6,1.6,0,0,1,1.21-.43,2,2,0,0,1,1.22.38,1.38,1.38,0,0,1,.5,1.2h-.6a1.29,1.29,0,0,0-.19-.61,1.09,1.09,0,0,0-.95-.39,1,1,0,0,0-.78.25.82.82,0,0,0-.24.58.59.59,0,0,0,.28.53,3.24,3.24,0,0,0,.83.27l.64.16a1.86,1.86,0,0,1,.72.32,1.2,1.2,0,0,1,.43,1,1.28,1.28,0,0,1-.55,1.17,2.32,2.32,0,0,1-1.29.36,1.82,1.82,0,0,1-1.34-.48,1.64,1.64,0,0,1-.48-1.27Z" transform="translate(2 476.37)"/><path class="cls-8" d="M598.57,68.54h2.11A1.3,1.3,0,0,1,602.07,70a1.58,1.58,0,0,1-.34,1,1.29,1.29,0,0,1-1.05.43h-1.47v2.09h-.64Zm2.48.68a1.3,1.3,0,0,0-.58-.11h-1.26v1.72h1.26a1.11,1.11,0,0,0,.69-.19.79.79,0,0,0,.27-.68A.76.76,0,0,0,601.05,69.22Z" transform="translate(2 476.37)"/><path class="cls-8" d="M604,68.54h2.14a2,2,0,0,1,.87.16,1.18,1.18,0,0,1,.66,1.17,1.34,1.34,0,0,1-.18.73,1.36,1.36,0,0,1-.49.46.91.91,0,0,1,.42.31,1.14,1.14,0,0,1,.15.62l0,.66a3,3,0,0,0,.05.43.43.43,0,0,0,.2.3v.11H607a.6.6,0,0,1,0-.16c0-.07,0-.2,0-.4l0-.82a.68.68,0,0,0-.33-.65,1.33,1.33,0,0,0-.56-.09h-1.41v2.12H604ZM606,70.81a1.18,1.18,0,0,0,.69-.19.81.81,0,0,0,.26-.68.75.75,0,0,0-.36-.73,1.15,1.15,0,0,0-.51-.1h-1.51v1.7Z" transform="translate(2 476.37)"/><path class="cls-8" d="M613.48,69.24a2.86,2.86,0,0,1,.46,1.69,3,3,0,0,1-.53,1.84,2.29,2.29,0,0,1-3.5.11,2.94,2.94,0,0,1-.55-1.84,3,3,0,0,1,.47-1.72,2,2,0,0,1,1.8-.92A2.12,2.12,0,0,1,613.48,69.24Zm-.57,3.16a2.72,2.72,0,0,0,.38-1.46,2.18,2.18,0,0,0-.43-1.41,1.6,1.6,0,0,0-2.38,0,2.28,2.28,0,0,0-.46,1.55,2.37,2.37,0,0,0,.39,1.39,1.45,1.45,0,0,0,1.28.57A1.29,1.29,0,0,0,612.91,72.4Z" transform="translate(2 476.37)"/><path class="cls-8" d="M615.75,68.54H619v.6h-2.62v1.51h2.31v.59h-2.31v2.25h-.64Z" transform="translate(2 476.37)"/><path class="cls-8" d="M620.74,68.54h3.42v.6h-2.8v1.51H624v.57h-2.59V72.9h2.85v.59h-3.47Z" transform="translate(2 476.37)"/><path class="cls-8" d="M626.46,71.89a1.52,1.52,0,0,0,.18.69,1.17,1.17,0,0,0,1.08.49,1.81,1.81,0,0,0,.63-.11.75.75,0,0,0,.55-.75.66.66,0,0,0-.23-.57,2.29,2.29,0,0,0-.74-.3l-.62-.15a2.74,2.74,0,0,1-.86-.33,1,1,0,0,1-.43-.92,1.48,1.48,0,0,1,.43-1.1,1.6,1.6,0,0,1,1.21-.43,2,2,0,0,1,1.22.38,1.41,1.41,0,0,1,.5,1.2h-.6a1.29,1.29,0,0,0-.19-.61,1.1,1.1,0,0,0-1-.39,1,1,0,0,0-.78.25.82.82,0,0,0-.24.58.59.59,0,0,0,.28.53,3.24,3.24,0,0,0,.83.27l.64.16a1.86,1.86,0,0,1,.72.32,1.2,1.2,0,0,1,.43,1,1.28,1.28,0,0,1-.55,1.17,2.32,2.32,0,0,1-1.29.36,1.82,1.82,0,0,1-1.34-.48,1.61,1.61,0,0,1-.48-1.27Z" transform="translate(2 476.37)"/><path class="cls-8" d="M631.55,68.54h.64v4.95h-.64Z" transform="translate(2 476.37)"/><path class="cls-8" d="M638.09,69.24a2.86,2.86,0,0,1,.47,1.69,3,3,0,0,1-.54,1.84,2.07,2.07,0,0,1-1.79.87,2.12,2.12,0,0,1-1.71-.76A2.94,2.94,0,0,1,634,71a3.1,3.1,0,0,1,.47-1.72,2,2,0,0,1,1.8-.92A2.11,2.11,0,0,1,638.09,69.24Zm-.56,3.16a2.81,2.81,0,0,0,.37-1.46,2.18,2.18,0,0,0-.43-1.41,1.46,1.46,0,0,0-1.19-.53,1.5,1.5,0,0,0-1.19.53,2.28,2.28,0,0,0-.46,1.55,2.31,2.31,0,0,0,.4,1.39,1.44,1.44,0,0,0,1.28.57A1.3,1.3,0,0,0,637.53,72.4Z" transform="translate(2 476.37)"/><path class="cls-8" d="M640.3,68.54h.75l2.35,4v-4H644v4.95h-.72l-2.38-4v4h-.61Z" transform="translate(2 476.37)"/><path class="cls-8" d="M647.4,68.54h.72l1.71,4.95h-.7L648.64,72h-1.85l-.51,1.48h-.65Zm1.06,2.92-.73-2.19L647,71.46Z" transform="translate(2 476.37)"/><path class="cls-8" d="M651.39,68.54H652V72.9h2.36v.59h-3Z" transform="translate(2 476.37)"/><path class="cls-8" d="M656.08,68.54h3.42v.6h-2.8v1.51h2.59v.57H656.7V72.9h2.85v.59h-3.47Z" transform="translate(2 476.37)"/><path class="cls-8" d="M661.8,71.89a1.66,1.66,0,0,0,.18.69,1.18,1.18,0,0,0,1.08.49,1.81,1.81,0,0,0,.63-.11.75.75,0,0,0,.55-.75.66.66,0,0,0-.23-.57,2.29,2.29,0,0,0-.74-.3l-.62-.15a2.74,2.74,0,0,1-.86-.33,1,1,0,0,1-.43-.92,1.48,1.48,0,0,1,.43-1.1,1.6,1.6,0,0,1,1.21-.43,2,2,0,0,1,1.22.38,1.38,1.38,0,0,1,.5,1.2h-.6a1.29,1.29,0,0,0-.19-.61A1.1,1.1,0,0,0,663,69a1,1,0,0,0-.78.25.82.82,0,0,0-.24.58.59.59,0,0,0,.28.53,3.24,3.24,0,0,0,.83.27l.64.16a1.86,1.86,0,0,1,.72.32,1.2,1.2,0,0,1,.43,1,1.28,1.28,0,0,1-.55,1.17,2.32,2.32,0,0,1-1.29.36,1.82,1.82,0,0,1-1.34-.48,1.64,1.64,0,0,1-.48-1.27Z" transform="translate(2 476.37)"/><path class="cls-8" d="M670,71.89a1.66,1.66,0,0,0,.18.69,1.18,1.18,0,0,0,1.08.49,1.81,1.81,0,0,0,.63-.11.75.75,0,0,0,.55-.75.66.66,0,0,0-.23-.57,2.29,2.29,0,0,0-.74-.3l-.62-.15a2.74,2.74,0,0,1-.86-.33,1,1,0,0,1-.43-.92,1.48,1.48,0,0,1,.43-1.1,1.6,1.6,0,0,1,1.21-.43,2,2,0,0,1,1.22.38,1.38,1.38,0,0,1,.5,1.2h-.6a1.29,1.29,0,0,0-.19-.61,1.09,1.09,0,0,0-1-.39,1,1,0,0,0-.78.25.82.82,0,0,0-.24.58.59.59,0,0,0,.28.53,3.24,3.24,0,0,0,.83.27l.64.16a1.86,1.86,0,0,1,.72.32,1.2,1.2,0,0,1,.43,1,1.28,1.28,0,0,1-.55,1.17,2.32,2.32,0,0,1-1.29.36,1.82,1.82,0,0,1-1.34-.48,1.64,1.64,0,0,1-.48-1.27Z" transform="translate(2 476.37)"/><path class="cls-8" d="M675,72.76h.67v.73H675Z" transform="translate(2 476.37)"/><path class="cls-8" d="M679.1,68.54h.72l1.71,4.95h-.7L680.34,72h-1.85L678,73.49h-.65Zm1.06,2.92-.73-2.19-.75,2.19Z" transform="translate(2 476.37)"/><path class="cls-8" d="M683.15,72.76h.67v.73h-.67Z" transform="translate(2 476.37)"/><path class="cls-1" d="M869.85,44.08a6.53,6.53,0,0,0-1.43-4.41A4.87,4.87,0,0,0,864.54,38H852.69V56.76h3.52V50.14h6.46l3.71,6.62h4l-3.92-7C868.72,49,869.85,47.05,869.85,44.08ZM856.21,41.9H864c1.57,0,2.31.71,2.31,2.24s-.69,2.09-2.15,2.09h-7.91Z" transform="translate(2 476.37)"/><path class="cls-1" d="M899,38l-8,18.77h3.86l1.63-3.87h9l1.63,3.87H911L903,38Zm4.79,11h-5.65L901,42.32Z" transform="translate(2 476.37)"/><polygon class="cls-1" points="839.48 525.34 847.81 525.34 847.81 521.43 839.48 521.43 839.48 518.27 851.46 518.27 851.46 514.36 835.97 514.36 835.97 533.14 851.99 533.14 851.99 529.23 839.48 529.23 839.48 525.34"/><polygon class="cls-1" points="778.09 529.13 778.09 518.32 789.3 518.32 789.3 514.4 778.09 514.4 778.09 506.64 792.95 506.64 792.95 502.72 774.4 502.72 774.4 533.05 793.48 533.05 793.48 529.13 778.09 529.13"/><rect class="cls-1" x="901.02" y="502.72" width="11.98" height="3.92"/><path class="cls-1" d="M888.32,46.6a10.72,10.72,0,0,0-5.15-1.66c-1.74-.21-3.33-.39-4.81-.55s-1.49-.87-1.49-1.28c0-1.18,1.47-1.77,4.36-1.77a10.33,10.33,0,0,1,5.82,1.78l.3.2,2.12-2.84-.26-.23a11.69,11.69,0,0,0-8-2.73,9.51,9.51,0,0,0-5.82,1.58,5.22,5.22,0,0,0-2.15,4.39A4.5,4.5,0,0,0,874.59,47a7.42,7.42,0,0,0,4.08,1.53c.44.06,1.57.14,3.65.27a10.62,10.62,0,0,1,2.69.41,1.73,1.73,0,0,1,1.37,1.68,2,2,0,0,1-1.13,1.75,7.08,7.08,0,0,1-3.53.72,10.14,10.14,0,0,1-7-2.51l-.33-.3-1.88,3.13.21.2a12.49,12.49,0,0,0,9,3.28,9.89,9.89,0,0,0,6.15-1.67,5.71,5.71,0,0,0,2.18-4.78A4.91,4.91,0,0,0,888.32,46.6Z" transform="translate(2 476.37)"/><path class="cls-1" d="M829.36,46.6a10.68,10.68,0,0,0-5.14-1.66c-1.75-.21-3.33-.39-4.82-.55-1.33-.29-1.48-.87-1.48-1.28,0-1.18,1.47-1.77,4.36-1.77a10.38,10.38,0,0,1,5.82,1.78l.29.2,2.12-2.84-.25-.23a11.69,11.69,0,0,0-8-2.73,9.53,9.53,0,0,0-5.83,1.58,5.24,5.24,0,0,0-2.14,4.39A4.5,4.5,0,0,0,815.64,47a7.42,7.42,0,0,0,4.08,1.53c.44.06,1.56.14,3.65.27a10.7,10.7,0,0,1,2.69.41,1.73,1.73,0,0,1,1.37,1.68,2,2,0,0,1-1.14,1.75,7,7,0,0,1-3.52.72,10.14,10.14,0,0,1-7-2.51l-.33-.3-1.89,3.13.22.2a12.46,12.46,0,0,0,9,3.28A9.85,9.85,0,0,0,829,55.51a5.72,5.72,0,0,0,2.19-4.78A4.89,4.89,0,0,0,829.36,46.6Z" transform="translate(2 476.37)"/><path class="cls-1" d="M808.93,56.76l-5.64-7.16-5.75,7.16h-4.79l8.12-10.13L794.08,38h4.79l4.42,5.75L807.94,38h4.66l-6.94,8.61,8,10.13Z" transform="translate(2 476.37)"/><path class="cls-71" d="M794.25,32.45V23.94h7v1.22h-5.74V27.4h2.89v1.22h-2.89v2.6h5.95v1.23Z" transform="translate(2 476.37)"/><path class="cls-67" d="M807.52,32.45l-2-2.57-2.07,2.57h-1.73l2.93-3.64-2.45-3.08h1.73l1.59,2.06,1.67-2.06h1.68l-2.5,3.08,2.89,3.64Z" transform="translate(2 476.37)"/><path class="cls-67" d="M813,27.08v5.37h-1.27V27.08h-2.34V25.73h6v1.35Z" transform="translate(2 476.37)"/><path class="cls-67" d="M816.15,32.45V25.73h5.63v1.35h-4.36V28.3h2.3v1.35h-2.3V31.1h4.5v1.35Z" transform="translate(2 476.37)"/><path class="cls-67" d="M827.73,32.45l-1.6-2.74h-2v2.74h-1.27V25.73h4c1.17,0,2.28.46,2.28,2a2,2,0,0,1-1.42,2l1.61,2.75Zm-.86-5.37H824.1v1.28h2.77c.38,0,1-.05,1-.65S827.31,27.08,826.87,27.08Z" transform="translate(2 476.37)"/><path class="cls-67" d="M835.39,32.45l-3.47-4.54h0v4.54h-1.27V25.73h1.27l3.48,4.54h0V25.73h1.28v6.72Z" transform="translate(2 476.37)"/><path class="cls-67" d="M844.3,32.45,843.67,31H840l-.64,1.42h-1.44L841,25.73h1.69l3.11,6.72ZM841.81,27l-1.23,2.64H843Z" transform="translate(2 476.37)"/><path class="cls-67" d="M846.68,32.45V25.73H848V31.1h3.65v1.35Z" transform="translate(2 476.37)"/><path class="cls-67" d="M853,32.45V25.73h1.28v6.72Z" transform="translate(2 476.37)"/><path class="cls-67" d="M856,32.45l-.44-.87,3.92-4.5H856V25.73h5.17l.56.9-4,4.47h4v1.35Z" transform="translate(2 476.37)"/><path class="cls-67" d="M868.49,32.45,867.86,31h-3.71l-.64,1.42h-1.44l3.07-6.72h1.69l3.11,6.72ZM866,27l-1.23,2.64h2.45Z" transform="translate(2 476.37)"/><path class="cls-67" d="M873.93,32.66c-2.13,0-3.89-1.24-3.89-3.57a3.64,3.64,0,0,1,3.81-3.57,4.83,4.83,0,0,1,3.21,1.27L876.31,28a3.83,3.83,0,0,0-2.52-1.1,2.24,2.24,0,1,0,.15,4.44,4.44,4.44,0,0,0,2.66-.95l.57,1.24A5.64,5.64,0,0,1,873.93,32.66Z" transform="translate(2 476.37)"/><path class="cls-67" d="M878.5,32.45V25.73h1.28v6.72Z" transform="translate(2 476.37)"/><path class="cls-67" d="M885,32.66a3.58,3.58,0,1,1,3.89-3.57A3.6,3.6,0,0,1,885,32.66Zm0-5.79a2.41,2.41,0,0,0-2.62,2.22,2.66,2.66,0,0,0,5.24,0A2.4,2.4,0,0,0,885,26.87Z" transform="translate(2 476.37)"/><path class="cls-67" d="M895.12,32.45l-3.47-4.54h0v4.54h-1.27V25.73h1.27l3.48,4.54h0V25.73h1.27v6.72Z" transform="translate(2 476.37)"/><rect class="cls-1" x="774.4" y="538.29" width="138.6" height="9.72"/><path class="cls-72" d="M802.71,64.72h2a2.15,2.15,0,0,1,2.11,2.44c0,1.13-.49,2.58-2.14,2.58h-2Zm.67,4.44h1.32c.88,0,1.45-.69,1.45-2s-.58-1.91-1.5-1.91h-1.27Z" transform="translate(2 476.37)"/><path class="cls-72" d="M812.4,69.74h-3.7v-5h3.66v.6h-3v1.54h2.74v.6h-2.74v1.68h3Z" transform="translate(2 476.37)"/><path class="cls-72" d="M820.08,66.19a1.1,1.1,0,0,0-1.24-1c-.43,0-1.15.12-1.15.88,0,.43.3.57.59.64l1.44.33a1.3,1.3,0,0,1,1.14,1.34c0,1.19-1.11,1.52-2,1.52a1.93,1.93,0,0,1-1.51-.49,1.53,1.53,0,0,1-.52-1.27h.64c0,.91.74,1.18,1.39,1.18.49,0,1.31-.13,1.31-.85,0-.52-.24-.69-1.07-.89l-1-.24A1.19,1.19,0,0,1,817,66.14a1.54,1.54,0,0,1,1.73-1.55c1.75,0,1.93,1,2,1.6Z" transform="translate(2 476.37)"/><path class="cls-72" d="M826.4,69.74h-3.7v-5h3.65v.6h-3v1.54h2.75v.6h-2.75v1.68h3Z" transform="translate(2 476.37)"/><path class="cls-72" d="M829,69.74h-.68v-5h2.32c.83,0,1.65.29,1.65,1.35a1.25,1.25,0,0,1-.69,1.21c.28.11.57.24.6.94l0,.91c0,.28,0,.38.25.5v.11h-.83a6,6,0,0,1-.12-1.25c0-.42-.08-.9-.9-.9H829ZM829,67h1.57c.5,0,1-.13,1-.87s-.57-.84-.91-.84H829Z" transform="translate(2 476.37)"/><path class="cls-72" d="M837,64.72h.76l-1.83,5h-.72l-1.83-5h.75L835.6,69h0Z" transform="translate(2 476.37)"/><path class="cls-72" d="M840.16,69.74h-.68v-5h.68Z" transform="translate(2 476.37)"/><path class="cls-72" d="M845.76,66.23a1.31,1.31,0,0,0-1.41-1c-.91,0-1.64.67-1.64,2s.42,2.1,1.66,2.1c.44,0,1.2-.21,1.44-1.38h.65a2.12,2.12,0,0,1-2.19,2c-1.14,0-2.26-.74-2.26-2.67a2.33,2.33,0,0,1,2.34-2.62,1.89,1.89,0,0,1,2.06,1.64Z" transform="translate(2 476.37)"/><path class="cls-72" d="M849,69.74h-.68v-5H849Z" transform="translate(2 476.37)"/><path class="cls-72" d="M853.23,69.88a2.65,2.65,0,1,1,2.45-2.65A2.44,2.44,0,0,1,853.23,69.88Zm0-4.69a2.07,2.07,0,1,0,1.75,2A1.81,1.81,0,0,0,853.23,65.19Z" transform="translate(2 476.37)"/><path class="cls-72" d="M860.42,66.19a1.11,1.11,0,0,0-1.25-1c-.42,0-1.14.12-1.14.88,0,.43.3.57.59.64l1.43.33a1.29,1.29,0,0,1,1.14,1.34c0,1.19-1.1,1.52-2,1.52a2,2,0,0,1-1.52-.49,1.55,1.55,0,0,1-.51-1.27h.64c0,.91.74,1.18,1.38,1.18s1.32-.13,1.32-.85c0-.52-.25-.69-1.07-.89l-1-.24a1.19,1.19,0,0,1-1.07-1.18,1.54,1.54,0,0,1,1.73-1.55c1.75,0,1.93,1,1.95,1.6Z" transform="translate(2 476.37)"/><path class="cls-72" d="M868.84,66.19a1.09,1.09,0,0,0-1.24-1c-.43,0-1.15.12-1.15.88,0,.43.3.57.6.64l1.43.33a1.3,1.3,0,0,1,1.14,1.34c0,1.19-1.11,1.52-2,1.52a1.93,1.93,0,0,1-1.51-.49,1.52,1.52,0,0,1-.51-1.27h.63c0,.91.74,1.18,1.39,1.18.49,0,1.31-.13,1.31-.85,0-.52-.24-.69-1.07-.89l-1-.24a1.2,1.2,0,0,1-1.07-1.18,1.54,1.54,0,0,1,1.73-1.55c1.76,0,1.93,1,2,1.6Z" transform="translate(2 476.37)"/><path class="cls-72" d="M872.05,69.74h-.72V69h.72Z" transform="translate(2 476.37)"/><path class="cls-72" d="M874.89,68.28l-.52,1.46h-.7l1.89-5h.77l1.81,5h-.74l-.49-1.46Zm1.77-.6-.74-2.21h0l-.81,2.21Z" transform="translate(2 476.37)"/><path class="cls-72" d="M880.48,69.74h-.73V69h.73Z" transform="translate(2 476.37)"/><rect class="cls-65" x="1178" y="873.34" width="138" height="44"/><text class="cls-62" transform="translate(1188.27 905.84)"><tspan class="cls-73">R</tspan><tspan x="18.08" y="0">esorteo</tspan></text><text class="cls-74" transform="translate(831.2 892.37)">1713957682 Qu<tspan class="cls-63" x="147.77" y="0">i</tspan><tspan x="152.61" y="0">to </tspan><tspan class="cls-75" x="14.51" y="25.2">B</tspan><tspan x="26.99" y="25.2">ienestar Matríz</tspan></text><text x="2" y="476.37"></text><rect class="cls-76" x="524.5" y="848.28" width="800.5" height="94.13"/><g class="cls-77"><polygon class="cls-78" points="1730.19 1166.79 1882.79 1239.68 1783.89 1269.41 1730.19 1166.79"/><polygon class="cls-8" points="1780.7 1360.21 1783.89 1269.41 1882.79 1239.68 1780.7 1360.21"/><polygon class="cls-79" points="1913.97 1310.72 1882.79 1239.68 1780.7 1360.21 1913.97 1310.72"/><polygon class="cls-80" points="2001.52 1395.81 1913.97 1310.72 1780.7 1360.21 2001.52 1395.81"/><polygon class="cls-81" points="2041.3 1216.3 2001.52 1395.81 1913.97 1310.72 2041.3 1216.3"/><polygon class="cls-82" points="2102.5 1365.59 2041.3 1216.3 2001.52 1395.81 2102.5 1365.59"/><polygon class="cls-9" points="1730.19 1166.79 1882.79 1239.68 1783.89 1269.41 1730.19 1166.79"/><polygon class="cls-10" points="1780.7 1360.21 1783.89 1269.41 1882.79 1239.68 1780.7 1360.21"/><polygon class="cls-9" points="1913.97 1310.72 1882.79 1239.68 1780.7 1360.21 1913.97 1310.72"/><polygon class="cls-26" points="2001.52 1395.81 1913.97 1310.72 1780.7 1360.21 2001.52 1395.81"/><polygon class="cls-9" points="2001.52 1395.81 1913.97 1310.72 1780.7 1360.21 2001.52 1395.81"/><polygon class="cls-10" points="2041.3 1216.3 2001.52 1395.81 1913.97 1310.72 2041.3 1216.3"/><polygon class="cls-9" points="2102.5 1365.59 2041.3 1216.3 2001.52 1395.81 2102.5 1365.59"/></g><rect class="cls-83" x="523.5" y="978.12" width="800.5" height="95"/><text class="cls-57" transform="translate(531.47 1056.37)">No entregado</text><text class="cls-64" transform="translate(620.99 1008.37)">P<tspan class="cls-59" x="16.54" y="0">r</tspan><tspan x="27.2" y="0">emio 2</tspan></text><rect class="cls-76" x="1177.5" y="1003.62" width="138" height="44"/><text class="cls-84" transform="translate(1203.01 1036.12)"><tspan class="cls-63">S</tspan><tspan x="16.77" y="0">orteo</tspan></text><g class="cls-85"><g class="cls-86"><polygon class="cls-87" points="1381.34 1189.06 1428.56 1190.05 1362.12 1228.43 1381.34 1189.06"/><polygon class="cls-8" points="1428.56 1190.05 1362.12 1228.43 1417.22 1217.82 1428.56 1190.05"/><polygon class="cls-9" points="1381.34 1189.06 1428.56 1190.05 1362.12 1228.43 1381.34 1189.06"/><polygon class="cls-9" points="1428.56 1190.05 1362.12 1228.43 1417.22 1217.82 1428.56 1190.05"/><polygon class="cls-10" points="1333.15 1163.59 1316.13 1179.51 1362.12 1228.43 1333.15 1163.59"/><polygon class="cls-1" points="1434.49 1258.25 1412.07 1256.28 1408.07 1286.3 1434.49 1258.25"/><polygon class="cls-88" points="1205.27 1108.59 1251.03 1161.93 1208.61 1156.78 1205.27 1108.59 1205.27 1108.59"/><polygon class="cls-89" points="1168.05 1194.3 1208.61 1156.78 1205.27 1108.59 1168.05 1194.3"/><polygon class="cls-8" points="1192.19 1190.93 1208.61 1156.78 1251.03 1161.93 1192.19 1190.93"/><polygon class="cls-90" points="1168.55 1194.19 1192.19 1190.93 1208.61 1156.78 1168.05 1194.3 1168.55 1194.19"/><polygon class="cls-91" points="1251.39 1194.34 1251.03 1161.93 1192.19 1190.93 1251.39 1194.34"/><polygon class="cls-92" points="1270.59 1241.49 1251.39 1194.34 1192.19 1190.93 1270.59 1241.49"/><polygon class="cls-93" points="1316.13 1179.51 1270.59 1241.49 1251.39 1194.34 1316.13 1179.51"/><polygon class="cls-94" points="1304.96 1236.77 1316.13 1179.51 1270.59 1241.49 1304.96 1236.77"/><polygon class="cls-95" points="1362.12 1228.43 1329.93 1256.83 1316.13 1179.51 1362.12 1228.43"/><polygon class="cls-8" points="1366.74 1298.4 1373.46 1262.11 1408.07 1286.3 1366.74 1298.4"/><polygon class="cls-8" points="1417.22 1217.82 1373.46 1262.11 1362.12 1228.43 1417.22 1217.82"/><polygon class="cls-96" points="1329.93 1256.83 1373.46 1262.11 1362.12 1228.43 1329.93 1256.83"/><polygon class="cls-97" points="1431.25 1318.86 1408.07 1286.3 1434.49 1258.25 1431.25 1318.86"/><polygon class="cls-98" points="1481.56 1301.14 1476.14 1261.92 1431.25 1318.86 1481.56 1301.14"/><polygon class="cls-99" points="1476.14 1261.92 1431.25 1318.86 1434.49 1258.25 1476.14 1261.92"/><polygon class="cls-8" points="1501.27 1249.73 1481.56 1301.14 1476.14 1261.92 1501.27 1249.73"/><polygon class="cls-100" points="1501.27 1249.73 1514.51 1312.26 1481.56 1301.14 1501.27 1249.73"/><polygon class="cls-101" points="1431.25 1318.86 1514.51 1312.26 1481.56 1301.14 1431.25 1318.86"/><polygon class="cls-102" points="1408.07 1286.3 1417.22 1217.82 1373.46 1262.11 1408.07 1286.3"/><polygon class="cls-8" points="1329.93 1256.83 1316.13 1179.51 1304.96 1236.77 1329.93 1256.83"/><polygon class="cls-26" points="1205.27 1108.59 1251.03 1161.93 1208.61 1156.78 1205.27 1108.59 1205.27 1108.59"/><polygon class="cls-26" points="1362.12 1228.43 1329.93 1256.83 1316.13 1179.51 1362.12 1228.43"/><polygon class="cls-26" points="1366.74 1298.4 1373.45 1262.11 1408.07 1286.3 1366.74 1298.4"/><polygon class="cls-26" points="1481.56 1301.14 1476.14 1261.92 1431.25 1318.86 1481.56 1301.14"/><polygon class="cls-9" points="1505.55 1217.41 1477.54 1189.42 1476.16 1261.92 1505.55 1217.41"/><polygon class="cls-26" points="1408.07 1286.3 1417.22 1217.82 1373.45 1262.11 1408.07 1286.3"/><polygon class="cls-9" points="1382.7 1116.8 1447.11 1115.25 1416.94 1163.01 1382.7 1116.8"/><polygon class="cls-9" points="1353.17 1164.37 1381.34 1189.06 1382.7 1116.8 1353.17 1164.37"/><polygon class="cls-9" points="1205.27 1108.59 1251.03 1161.93 1208.61 1156.78 1205.27 1108.59 1205.27 1108.59"/><polygon class="cls-10" points="1168.05 1194.3 1208.61 1156.78 1205.27 1108.59 1168.05 1194.3"/><polygon class="cls-10" points="1192.19 1190.93 1208.61 1156.78 1251.03 1161.93 1192.19 1190.93"/><polygon class="cls-9" points="1168.56 1194.19 1192.19 1190.93 1208.61 1156.78 1168.05 1194.3 1168.56 1194.19"/><polygon class="cls-9" points="1251.39 1194.33 1251.03 1161.93 1192.19 1190.93 1251.39 1194.33"/><polygon class="cls-10" points="1270.59 1241.49 1251.39 1194.33 1192.19 1190.93 1270.59 1241.49"/><polygon class="cls-9" points="1316.13 1179.51 1270.59 1241.49 1251.39 1194.33 1316.13 1179.51"/><polygon class="cls-9" points="1304.96 1236.77 1316.13 1179.51 1270.59 1241.49 1304.96 1236.77"/><polygon class="cls-9" points="1362.12 1228.43 1329.93 1256.83 1316.13 1179.51 1362.12 1228.43"/><polygon class="cls-9" points="1366.74 1298.4 1373.45 1262.11 1408.07 1286.3 1366.74 1298.4"/><polygon class="cls-10" points="1417.22 1217.82 1373.45 1262.11 1362.12 1228.43 1417.22 1217.82"/><polygon class="cls-9" points="1329.93 1256.83 1373.45 1262.11 1362.12 1228.43 1329.93 1256.83"/><polygon class="cls-9" points="1431.25 1318.86 1408.07 1286.3 1434.49 1258.25 1431.25 1318.86"/><polygon class="cls-9" points="1481.56 1301.14 1476.14 1261.92 1431.25 1318.86 1481.56 1301.14"/><polygon class="cls-10" points="1476.14 1261.92 1431.25 1318.86 1434.49 1258.25 1476.14 1261.92"/><polygon class="cls-9" points="1501.27 1249.73 1481.56 1301.14 1476.14 1261.92 1501.27 1249.73"/><polygon class="cls-10" points="1501.27 1249.73 1514.51 1312.26 1481.56 1301.14 1501.27 1249.73"/><polygon class="cls-9" points="1431.25 1318.86 1514.51 1312.26 1481.56 1301.14 1431.25 1318.86"/><polygon class="cls-103" points="1476.16 1261.92 1412.07 1256.28 1442.13 1211.63 1476.16 1261.92"/><polygon class="cls-104" points="1505.55 1217.41 1477.54 1189.42 1476.16 1261.92 1505.55 1217.41"/><polygon class="cls-105" points="1477.54 1189.42 1476.16 1261.92 1442.13 1211.63 1477.54 1189.42"/><polygon class="cls-8" points="1496.74 1152.1 1505.55 1217.41 1477.54 1189.42 1496.74 1152.1"/><polygon class="cls-106" points="1496.74 1152.1 1527.36 1237.67 1505.55 1217.41 1496.74 1152.1"/><polygon class="cls-107" points="1476.16 1261.92 1527.36 1237.67 1505.55 1217.41 1476.16 1261.92"/><polygon class="cls-10" points="1476.16 1261.92 1412.07 1256.27 1442.13 1211.63 1476.16 1261.92"/><polygon class="cls-26" points="1505.55 1217.41 1477.54 1189.42 1476.16 1261.92 1505.55 1217.41"/><polygon class="cls-9" points="1505.55 1217.41 1477.54 1189.42 1476.16 1261.92 1505.55 1217.41"/><polygon class="cls-9" points="1477.54 1189.42 1476.16 1261.92 1442.13 1211.63 1477.54 1189.42"/><polygon class="cls-10" points="1496.74 1152.1 1505.55 1217.41 1477.54 1189.42 1496.74 1152.1"/><polygon class="cls-9" points="1496.74 1152.1 1527.36 1237.67 1505.55 1217.41 1496.74 1152.1"/><polygon class="cls-10" points="1476.16 1261.92 1527.36 1237.67 1505.55 1217.41 1476.16 1261.92"/><polygon class="cls-9" points="1408.07 1286.3 1417.22 1217.82 1373.45 1262.11 1408.07 1286.3"/><polygon class="cls-9" points="1329.93 1256.83 1316.13 1179.51 1304.96 1236.77 1329.93 1256.83"/><polygon class="cls-108" points="1088.48 1110.26 1129.58 1167.59 1087.46 1158.55 1088.48 1110.26"/><polygon class="cls-8" points="1068.03 1191.09 1087.46 1158.55 1129.58 1167.59 1068.03 1191.09"/><polygon class="cls-109" points="1126.68 1199.82 1129.58 1167.59 1068.03 1191.09 1126.68 1199.82"/><polygon class="cls-110" points="1141.54 1248.51 1126.68 1199.82 1068.03 1191.09 1141.54 1248.51"/><polygon class="cls-111" points="1192.19 1190.93 1141.54 1248.51 1126.68 1199.82 1192.19 1190.93"/><polygon class="cls-112" points="1184.52 1257.79 1192.19 1190.93 1141.54 1248.51 1184.52 1257.79"/><polygon class="cls-8" points="1310.23 1097.67 1302.47 1140.63 1250.36 1110.22 1310.23 1097.67"/><polygon class="cls-8" points="1251.39 1194.33 1302.47 1140.63 1316.13 1179.51 1251.39 1194.33"/><polygon class="cls-113" points="1353.05 1145.13 1302.47 1140.63 1316.13 1179.51 1353.05 1145.13"/><polygon class="cls-114" points="1427.85 1055.14 1451.17 1084.93 1424.58 1115.82 1427.85 1055.14"/><polygon class="cls-115" points="1377.26 1078.41 1382.72 1116.81 1427.85 1055.14 1377.26 1078.41"/><polygon class="cls-116" points="1382.72 1116.81 1427.85 1055.14 1424.58 1115.82 1382.72 1116.81"/><polygon class="cls-8" points="1352.74 1145.71 1377.26 1078.41 1382.72 1116.81 1352.74 1145.71"/><polygon class="cls-117" points="1352.74 1145.71 1347.44 1057.49 1377.26 1078.41 1352.74 1145.71"/><polygon class="cls-118" points="1427.85 1055.14 1347.44 1057.49 1377.26 1078.41 1427.85 1055.14"/><polygon class="cls-119" points="1250.36 1110.22 1251.39 1194.33 1302.47 1140.63 1250.36 1110.22"/><polygon class="cls-9" points="1088.48 1110.26 1129.58 1167.59 1087.46 1158.55 1088.48 1110.26"/><polygon class="cls-10" points="1068.03 1191.09 1087.46 1158.55 1129.58 1167.59 1068.03 1191.09"/><polygon class="cls-9" points="1126.68 1199.82 1129.58 1167.59 1068.03 1191.09 1126.68 1199.82"/><polygon class="cls-26" points="1141.54 1248.51 1126.68 1199.82 1068.03 1191.09 1141.54 1248.51"/><polygon class="cls-9" points="1141.54 1248.51 1126.68 1199.82 1068.03 1191.09 1141.54 1248.51"/><polygon class="cls-10" points="1192.19 1190.93 1141.54 1248.51 1126.68 1199.82 1192.19 1190.93"/><polygon class="cls-9" points="1184.52 1257.79 1192.19 1190.93 1141.54 1248.51 1184.52 1257.79"/><polygon class="cls-120" points="1192.19 1190.93 1270.59 1241.49 1214.58 1250.72 1192.19 1190.93 1192.19 1190.93"/><polygon class="cls-121" points="1177.88 1312.47 1214.58 1250.72 1192.19 1190.93 1177.88 1312.47"/><polygon class="cls-8" points="1206.45 1299.71 1214.58 1250.72 1270.59 1241.49 1206.45 1299.71"/><polygon class="cls-122" points="1177.9 1312.48 1206.45 1299.71 1214.58 1250.72 1177.88 1312.47 1177.9 1312.48"/><polygon class="cls-123" points="1299.03 1273.3 1270.59 1241.49 1206.45 1299.71 1299.03 1273.3"/><polygon class="cls-124" points="1329.93 1256.83 1325.85 1307.12 1299.03 1273.3 1329.93 1256.83"/><polygon class="cls-125" points="1352.7 1295.12 1329.93 1256.83 1325.85 1307.12 1352.7 1295.12"/><polygon class="cls-26" points="1192.19 1190.93 1270.59 1241.49 1214.58 1250.72 1192.19 1190.93 1192.19 1190.93"/><polygon class="cls-9" points="1192.19 1190.93 1270.59 1241.49 1214.58 1250.72 1192.19 1190.93 1192.19 1190.93"/><polygon class="cls-9" points="1177.88 1312.47 1214.58 1250.72 1192.19 1190.93 1177.88 1312.47"/><polygon class="cls-9" points="1206.45 1299.71 1214.58 1250.72 1270.59 1241.49 1206.45 1299.71"/><polygon class="cls-10" points="1177.9 1312.48 1206.45 1299.71 1214.58 1250.72 1177.88 1312.47 1177.9 1312.48"/><polygon class="cls-9" points="1299.03 1273.29 1270.59 1241.49 1206.45 1299.71 1299.03 1273.29"/><polygon class="cls-10" points="1329.93 1256.83 1325.85 1307.12 1299.03 1273.3 1329.93 1256.83"/><polygon class="cls-9" points="1352.7 1295.12 1329.93 1256.83 1325.85 1307.12 1352.7 1295.12"/><polygon class="cls-26" points="1310.23 1097.67 1302.47 1140.63 1250.35 1110.22 1310.23 1097.67"/><polygon class="cls-9" points="1310.23 1097.67 1302.47 1140.63 1250.35 1110.22 1310.23 1097.67"/><polygon class="cls-10" points="1251.39 1194.34 1302.47 1140.63 1316.13 1179.51 1251.39 1194.34"/><polygon class="cls-9" points="1353.05 1145.13 1302.47 1140.63 1316.13 1179.51 1353.05 1145.13"/><polygon class="cls-9" points="1427.85 1055.14 1451.17 1084.93 1424.58 1115.82 1427.85 1055.14"/><polygon class="cls-9" points="1377.26 1078.41 1382.72 1116.81 1427.85 1055.14 1377.26 1078.41"/><polygon class="cls-10" points="1382.72 1116.81 1427.85 1055.14 1424.58 1115.82 1382.72 1116.81"/><polygon class="cls-9" points="1352.73 1145.71 1377.26 1078.41 1382.72 1116.81 1352.73 1145.71"/><polygon class="cls-10" points="1352.73 1145.71 1347.44 1057.49 1377.26 1078.41 1352.73 1145.71"/><polygon class="cls-9" points="1427.85 1055.14 1347.44 1057.49 1377.26 1078.41 1427.85 1055.14"/><polygon class="cls-126" points="1382.7 1116.8 1447.11 1115.25 1416.94 1163.01 1382.7 1116.8"/><polygon class="cls-127" points="1353.17 1164.37 1381.34 1189.06 1382.7 1116.8 1353.17 1164.37"/><polygon class="cls-128" points="1381.34 1189.06 1382.7 1116.8 1416.94 1163.01 1381.34 1189.06"/><polygon class="cls-8" points="1362.12 1228.43 1353.17 1164.37 1381.34 1189.06 1362.12 1228.43"/><polygon class="cls-129" points="1362.12 1228.43 1362.12 1228.43 1333.15 1163.59 1353.17 1164.37 1362.12 1228.43"/><polygon class="cls-130" points="1382.7 1116.8 1333.15 1163.59 1353.17 1164.37 1382.7 1116.8"/><polygon class="cls-26" points="1382.7 1116.8 1447.11 1115.25 1416.94 1163.01 1382.7 1116.8"/><polygon class="cls-9" points="1382.7 1116.8 1447.11 1115.25 1416.94 1163.01 1382.7 1116.8"/><polygon class="cls-26" points="1353.17 1164.37 1381.34 1189.06 1382.7 1116.8 1353.17 1164.37"/><polygon class="cls-9" points="1353.17 1164.37 1381.34 1189.06 1382.7 1116.8 1353.17 1164.37"/><polygon class="cls-9" points="1381.34 1189.06 1382.7 1116.8 1416.94 1163.01 1381.34 1189.06"/><polygon class="cls-9" points="1362.12 1228.43 1353.17 1164.37 1381.34 1189.06 1362.12 1228.43"/><polygon class="cls-9" points="1362.12 1228.43 1362.12 1228.43 1333.15 1163.59 1353.17 1164.37 1362.12 1228.43"/><polygon class="cls-10" points="1382.7 1116.8 1333.15 1163.59 1353.17 1164.37 1382.7 1116.8"/><polygon class="cls-9" points="1250.35 1110.22 1251.39 1194.34 1302.47 1140.63 1250.35 1110.22"/></g></g></g></g></svg>