<svg id="Layer_1" data-name="Layer 1" xmlns="http://www.w3.org/2000/svg" viewBox="0 0 428.68 524.28"><defs><style>.cls-1{fill:#307b4e;}.cls-2{fill:#006937;}.cls-3{fill:#76bc21;}.cls-4{fill:#f9f9f9;stroke:#006937;stroke-miterlimit:10;}</style></defs><title>regalo</title><rect class="cls-1" x="222.12" y="317.71" width="206.56" height="206.56"/><rect class="cls-2" x="0.5" y="317.71" width="206.56" height="206.56"/><rect class="cls-3" x="222.12" y="100.28" width="206.56" height="206.56"/><rect class="cls-4" x="0.5" y="100.28" width="206.56" height="206.56"/><path class="cls-2" d="M601.6,174.21c10.44,13.83,27.18,21.48,43.9,26a172.74,172.74,0,0,0,47.71,6.06l2.38-4c9.45-21.63,5.65-48.45-9.44-66.61S645.39,109,622.39,114.28c-8.22,1.91-16.27,5.62-21.86,11.94C589,139.19,591.16,160.37,601.6,174.21Zm16.73-35c76-27.71,69.23,59.39,69.23,59.39C576.86,171.16,618.33,139.25,618.33,139.25Z" transform="translate(-489.5 -112.72)"/><path class="cls-2" d="M809,127.22c-5.6-6.32-13.65-10-21.87-11.94-23-5.33-48.67,3.31-63.76,21.46s-18.89,45-9.44,66.61l2.38,4A172.74,172.74,0,0,0,764,201.25c16.72-4.56,33.46-12.21,43.91-26S820.5,140.19,809,127.22Zm-87,72.42s-6.78-87.1,69.23-59.39C791.21,140.25,832.68,172.16,722,199.64Z" transform="translate(-489.5 -112.72)"/></svg>